<?xml version="1.0" standalone="no"?>
<!DOCTYPE svg PUBLIC "-//W3C//DTD SVG 1.1//EN" "http://www.w3.org/Graphics/SVG/1.1/DTD/svg11.dtd" >
<svg xmlns="http://www.w3.org/2000/svg">
<metadata></metadata>
<defs>
<font id="lato_latin_hairregular" horiz-adv-x="1187" >
<font-face units-per-em="2048" ascent="1649" descent="-399" />
<missing-glyph horiz-adv-x="583" />
<glyph unicode="ff" horiz-adv-x="1284" d="M62 952v9h181v143q0 86 20.5 149t56 104t86 61t110.5 20q30 0 61.5 -6t53.5 -17l-2 -8q-2 -7 -8.5 -6t-19 4.5t-33.5 7.5t-52 4q-53 0 -98.5 -17t-79 -54t-52.5 -97t-19 -145v-143h580v153q0 86 20.5 149t56 104t86 61t110.5 20q30 0 61.5 -5.5t53.5 -17.5l-2 -8 q-2 -7 -8 -6t-19 4.5t-34 7.5t-52 4q-53 0 -98.5 -16.5t-79 -54t-52.5 -97.5t-19 -145v-153h358v-21h-358v-940h-24v940h-580v-940h-24v940l-168 4q-12 0 -13 8z" />
<glyph unicode="fi" horiz-adv-x="1042" d="M66 952v9h180v112q0 93 26 165.5t73 121t112.5 73.5t144.5 25q30 0 61.5 -5.5t53.5 -16.5l-2 -9q-2 -6 -8 -5t-18.5 4.5t-33.5 7.5t-53 4q-73 0 -133 -22t-105 -67t-69.5 -114t-24.5 -162v-112h572v-961h-25v940h-547v-940h-24v940l-168 4q-12 0 -12 8z" />
<glyph unicode="fl" horiz-adv-x="1103" d="M66 952v9h180v77q0 93 26.5 170.5t76.5 132.5t123 85t165 30q68 0 134 -7t120 -7h12v-1442h-24v1425q-52 1 -117.5 6t-124.5 5q-87 0 -155 -28.5t-115.5 -80t-72 -125.5t-24.5 -164v-77h318v-21h-318v-940h-24v940l-168 4q-12 0 -12 8z" />
<glyph unicode="ffi" horiz-adv-x="1646" d="M66 952v9h180v143q0 86 20.5 149t56 104t86 61t110.5 20q30 0 61.5 -6t53.5 -17l-2 -8q-2 -7 -8.5 -6t-19 4.5t-33.5 7.5t-52 4q-53 0 -98.5 -17t-79 -54t-52.5 -97t-19 -145v-143h580v112q0 93 26 165.5t73 121t112.5 73.5t144.5 25q30 0 61.5 -5.5t53.5 -16.5l-2 -9 q-2 -6 -7.5 -5t-18.5 4.5t-34 7.5t-53 4q-73 0 -133 -22t-104.5 -67t-69.5 -114t-25 -162v-112h572v-961h-25v940h-547v-940h-24v940h-580v-940h-24v940l-168 4q-12 0 -12 8z" />
<glyph unicode="ffl" horiz-adv-x="1704" d="M62 952v9h181v143q0 86 20.5 149t56 104t86 61t110.5 20q30 0 61.5 -6t53.5 -17l-2 -8q-2 -7 -8.5 -6t-19 4.5t-33.5 7.5t-52 4q-53 0 -98.5 -17t-79 -54t-52.5 -97t-19 -145v-143h580v77q0 93 26.5 170.5t76.5 132.5t123 85t165 30q68 0 134 -7t120 -7h12v-1442h-24 v1425q-52 1 -117.5 6t-124.5 5q-87 0 -155 -28.5t-115 -80t-72 -125.5t-25 -164v-77h358v-21h-358v-940h-24v940h-580v-940h-24v940l-168 4q-12 0 -13 8z" />
<glyph unicode="fb" horiz-adv-x="1780" d="M62 952v9h181v118q0 89 21.5 165t69 130t123 85t184.5 31q58 0 114 -6.5t108 -8.5h18v-678q67 102 161.5 162.5t223.5 60.5q92 0 164.5 -32.5t122.5 -95t76 -153.5t26 -209q0 -122 -29 -222t-84 -171t-137 -110t-190 -39q-112 0 -195 44t-140 136l-3 -154q0 -5 -2.5 -9.5 t-10.5 -4.5h-8v1452q-52 7 -109.5 12t-103.5 5q-105 0 -177 -29t-116 -80.5t-63.5 -123.5t-19.5 -157v-118h358v-21h-358v-940h-24v940l-168 4q-12 0 -13 8zM881 200q66 -105 147.5 -148.5t185.5 -43.5q106 0 185 38.5t130 107.5t76 164.5t25 209.5q0 230 -95.5 350.5 t-268.5 120.5q-127 0 -222 -63t-163 -172v-564z" />
<glyph unicode="ffb" horiz-adv-x="2384" d="M62 952v9h181v143q0 86 20.5 149t56 104t86 61t110.5 20q30 0 61.5 -6t53.5 -17l-2 -8q-2 -7 -8.5 -6t-19 4.5t-33.5 7.5t-52 4q-53 0 -98.5 -17t-79 -54t-52.5 -97t-19 -145v-143h580v118q0 89 21.5 165t69 130t123.5 85t184 31q58 0 114 -6.5t108 -8.5h18v-678 q67 102 161.5 162.5t223.5 60.5q92 0 164.5 -32.5t122.5 -95t76 -153.5t26 -209q0 -122 -28.5 -222t-84 -171t-137.5 -110t-189 -39q-112 0 -195.5 44t-140.5 136l-3 -154q0 -5 -2 -9.5t-11 -4.5h-8v1452q-52 7 -109.5 12t-103.5 5q-105 0 -177 -29t-116 -80.5t-63.5 -123.5 t-19.5 -157v-118h358v-21h-358v-940h-24v940h-580v-940h-24v940l-168 4q-12 0 -13 8zM1485 200q66 -105 147.5 -148.5t186.5 -43.5q106 0 184.5 38.5t129.5 107.5t76 164.5t25 209.5q0 230 -95.5 350.5t-268.5 120.5q-127 0 -222 -63t-163 -172v-564z" />
<glyph unicode="fh" horiz-adv-x="1780" d="M62 952v9h181v118q0 89 21.5 165t69 130t123 85t184.5 31q58 0 114 -6.5t108 -8.5h18v-680q35 51 78 92.5t93.5 71t105.5 45.5t114 16q167 0 249.5 -99.5t82.5 -277.5v-643h-25v643q0 84 -18.5 150t-57 112t-96 70t-135.5 24q-118 0 -217.5 -63t-173.5 -173v-763h-25 v1452q-52 7 -109.5 12t-103.5 5q-105 0 -177 -29t-116 -80.5t-63.5 -123.5t-19.5 -157v-118h358v-21h-358v-940h-24v940l-168 4q-12 0 -13 8z" />
<glyph unicode="ffh" horiz-adv-x="2384" d="M62 952v9h181v143q0 86 20.5 149t56 104t86 61t110.5 20q30 0 61.5 -6t53.5 -17l-2 -8q-2 -7 -8.5 -6t-19 4.5t-33.5 7.5t-52 4q-53 0 -98.5 -17t-79 -54t-52.5 -97t-19 -145v-143h580v118q0 89 21.5 165t69 130t123.5 85t184 31q58 0 114 -6.5t108 -8.5h18v-680 q35 51 78.5 92.5t93.5 71t105.5 45.5t113.5 16q167 0 249.5 -99.5t82.5 -277.5v-643h-25v643q0 84 -18.5 150t-56.5 112t-96 70t-136 24q-118 0 -217 -63t-174 -173v-763h-25v1452q-52 7 -109.5 12t-103.5 5q-105 0 -177 -29t-116 -80.5t-63.5 -123.5t-19.5 -157v-118h358 v-21h-358v-940h-24v940h-580v-940h-24v940l-168 4q-12 0 -13 8z" />
<glyph unicode="f&#xec;" horiz-adv-x="1042" d="M66 952v9h180v112q0 93 26 165.5t73 121t112.5 73.5t144.5 25q26 0 42 -8t26 -23l168 -241h-15q-11 0 -16 8l-197 244h-9q-72 0 -132.5 -22t-105 -67t-69 -114t-24.5 -162v-112h572v-961h-25v940h-547v-940h-24v940l-168 4q-12 0 -12 8z" />
<glyph unicode="f&#xee;" horiz-adv-x="1042" d="M66 952v9h180v174q0 86 17.5 147t48.5 100t75 57.5t98 18.5q17 0 30 -1.5t24 -3.5v-11q0 -8 -12 -6t-45 2q-100 0 -156 -73t-56 -230v-174h572v-961h-25v940h-547v-940h-24v940l-168 4q-12 0 -12 8zM604 1198l217 236h17l217 -236h-19q-8 0 -16 8l-184 201l-7 6l-6 -6 l-184 -201q-3 -3 -7 -5.5t-9 -2.5h-19z" />
<glyph unicode="f&#x129;" horiz-adv-x="1043" d="M66 0zM66 952v9h180v174q0 86 17.5 147t48.5 100t75 57.5t98 18.5q17 0 30 -1.5t24 -3.5v-11q0 -8 -12 -6t-45 2q-100 0 -156 -73t-56 -230v-174h572v-961h-25v940h-547v-940h-24v940l-168 4q-12 0 -12 8zM595 1253q0 28 8 53t23 43.5t37.5 30t52.5 11.5q34 0 62.5 -18.5 t55.5 -41t54 -41t57 -18.5q51 0 76 33.5t27 83.5h16q0 -28 -7 -53t-21.5 -43.5t-37 -30t-53.5 -11.5q-33 0 -61.5 18.5t-56 41t-54.5 41t-57 18.5q-25 0 -43.5 -9t-31.5 -25t-19.5 -37.5t-7.5 -45.5h-19z" />
<glyph unicode="f&#xef;" horiz-adv-x="1042" d="M66 952v9h180v174q0 86 17.5 147t48.5 100t75 57.5t98 18.5q17 0 30 -1.5t24 -3.5v-11q0 -8 -12 -6t-45 2q-100 0 -156 -73t-56 -230v-174h572v-961h-25v940h-547v-940h-24v940l-168 4q-12 0 -12 8zM620 1311q0 24 16.5 40.5t40.5 16.5q22 0 39.5 -16.5t17.5 -40.5 q0 -22 -18 -39t-39 -17q-24 0 -40.5 17t-16.5 39zM914 1311q0 24 17 40.5t41 16.5q22 0 39.5 -16.5t17.5 -40.5q0 -22 -18 -39t-39 -17q-24 0 -41 17t-17 39z" />
<glyph unicode="f&#x12b;" horiz-adv-x="1043" d="M66 0zM66 952v9h180v174q0 86 17.5 147t48.5 100t75 57.5t98 18.5q17 0 30 -1.5t24 -3.5v-11q0 -8 -12 -6t-45 2q-100 0 -156 -73t-56 -230v-174h572v-961h-25v940h-547v-940h-24v940l-168 4q-12 0 -12 8zM558 1300v21h533v-21h-533z" />
<glyph unicode="f&#x12f;" horiz-adv-x="1042" d="M66 952v9h180v112q0 93 26 165.5t73 121t112.5 73.5t144.5 25q30 0 61.5 -5.5t53.5 -16.5l-2 -9q-2 -6 -8 -5t-18.5 4.5t-33.5 7.5t-53 4q-73 0 -133 -22t-105 -67t-69.5 -114t-24.5 -162v-112h572v-961q-20 -11 -46.5 -30t-49.5 -44.5t-38.5 -57.5t-15.5 -69 q0 -57 39.5 -89t97.5 -32q33 0 56 7.5t38.5 15.5t24.5 15.5t15 7.5q4 0 8 -5l6 -6q-27 -27 -67 -41t-83 -14q-68 0 -112.5 36t-44.5 105q0 35 13.5 66.5t35 57.5t48 47.5t50.5 36.5v933h-547v-940h-24v940l-168 4q-12 0 -12 8z" />
<glyph unicode="f&#x131;" horiz-adv-x="1042" d="M66 952v9h180v174q0 86 17.5 147t48.5 100t75 57.5t98 18.5q17 0 30 -1.5t24 -3.5v-11q0 -8 -12 -6t-45 2q-100 0 -156 -73t-56 -230v-174h572v-961h-25v940h-547v-940h-24v940l-168 4q-12 0 -12 8z" />
<glyph unicode="ff&#xec;" horiz-adv-x="1643" d="M61 952v9h185v143q0 86 20.5 149t56 104t86 61t110.5 20q30 0 61.5 -6t53.5 -17l-2 -8q-2 -7 -8.5 -6t-19 4.5t-33.5 7.5t-52 4q-53 0 -98.5 -17t-79 -54t-52.5 -97t-19 -145v-143h577v153q0 172 78.5 253t248.5 81q14 0 31.5 -1t33.5 -4t29.5 -9t19.5 -15l163 -233h-14 q-11 0 -17 8l-182 225q-14 4 -32 6t-45 2q-61 0 -114 -13.5t-92 -49t-61.5 -96t-22.5 -154.5v-153h571v-961h-25v940h-546v-940h-24v940h-577v-940h-24v940l-172 4q-12 0 -13 8z" />
<glyph unicode="ff&#xee;" horiz-adv-x="1646" d="M66 0zM66 952v9h180v143q0 86 20.5 149t56 104t86 61t110.5 20q30 0 61.5 -6t53.5 -17l-2 -8q-2 -7 -8.5 -6t-19 4.5t-33.5 7.5t-52 4q-53 0 -98.5 -17t-79 -54t-52.5 -97t-19 -145v-143h580v174q0 86 17.5 147t48.5 100t75 57.5t99 18.5q17 0 30 -1.5t23 -3.5v-11 q0 -8 -12 -6t-45 2q-100 0 -156 -73t-56 -230v-174h572v-961h-25v940h-547v-940h-24v940h-580v-940h-24v940l-168 4q-12 0 -12 8zM1208 1198l217 236h17l217 -236h-19q-8 0 -16 8l-184 201l-6 6l-7 -6l-184 -201q-3 -3 -7 -5.5t-9 -2.5h-19z" />
<glyph unicode="ff&#x129;" horiz-adv-x="1647" d="M66 0zM66 952v9h180v143q0 86 20.5 149t56 104t86 61t110.5 20q30 0 61.5 -6t53.5 -17l-2 -8q-2 -7 -8.5 -6t-19 4.5t-33.5 7.5t-52 4q-53 0 -98.5 -17t-79 -54t-52.5 -97t-19 -145v-143h580v174q0 86 17.5 147t48.5 100t75 57.5t99 18.5q17 0 30 -1.5t23 -3.5v-11 q0 -8 -12 -6t-45 2q-100 0 -156 -73t-56 -230v-174h572v-961h-25v940h-547v-940h-24v940h-580v-940h-24v940l-168 4q-12 0 -12 8zM1199 1253q0 28 8 53t23 43.5t37.5 30t52.5 11.5q34 0 62.5 -18.5t55.5 -41t54 -41t57 -18.5q51 0 76 33.5t27 83.5h16q0 -28 -7 -53 t-21.5 -43.5t-37 -30t-53.5 -11.5q-33 0 -61.5 18.5t-56 41t-54.5 41t-57 18.5q-25 0 -43.5 -9t-31.5 -25t-19.5 -37.5t-7.5 -45.5h-19z" />
<glyph unicode="ff&#xef;" horiz-adv-x="1646" d="M66 952v9h180v143q0 86 20.5 149t56 104t86 61t110.5 20q30 0 61.5 -6t53.5 -17l-2 -8q-2 -7 -8.5 -6t-19 4.5t-33.5 7.5t-52 4q-53 0 -98.5 -17t-79 -54t-52.5 -97t-19 -145v-143h580v174q0 86 17.5 147t48.5 100t75 57.5t99 18.5q17 0 30 -1.5t23 -3.5v-11q0 -8 -12 -6 t-45 2q-100 0 -156 -73t-56 -230v-174h572v-961h-25v940h-547v-940h-24v940h-580v-940h-24v940l-168 4q-12 0 -12 8zM1212 1311q0 24 17 40.5t41 16.5q22 0 39.5 -16.5t17.5 -40.5q0 -22 -18 -39t-39 -17q-24 0 -41 17t-17 39zM1507 1311q0 24 17 40.5t41 16.5 q22 0 39.5 -16.5t17.5 -40.5q0 -22 -18 -39t-39 -17q-24 0 -41 17t-17 39z" />
<glyph unicode="ff&#x12b;" horiz-adv-x="1647" d="M66 0zM66 952v9h180v143q0 86 20.5 149t56 104t86 61t110.5 20q30 0 61.5 -6t53.5 -17l-2 -8q-2 -7 -8.5 -6t-19 4.5t-33.5 7.5t-52 4q-53 0 -98.5 -17t-79 -54t-52.5 -97t-19 -145v-143h580v174q0 86 17.5 147t48.5 100t75 57.5t99 18.5q17 0 30 -1.5t23 -3.5v-11 q0 -8 -12 -6t-45 2q-100 0 -156 -73t-56 -230v-174h572v-961h-25v940h-547v-940h-24v940h-580v-940h-24v940l-168 4q-12 0 -12 8zM1168 1300v21h533v-21h-533z" />
<glyph unicode="ff&#x12f;" horiz-adv-x="1646" d="M66 952v9h180v143q0 86 20.5 149t56 104t86 61t110.5 20q30 0 61.5 -6t53.5 -17l-2 -8q-2 -7 -8.5 -6t-19 4.5t-33.5 7.5t-52 4q-53 0 -98.5 -17t-79 -54t-52.5 -97t-19 -145v-143h580v112q0 93 26 165.5t73 121t112.5 73.5t144.5 25q30 0 61.5 -5.5t53.5 -16.5l-2 -9 q-2 -6 -7.5 -5t-18.5 4.5t-34 7.5t-53 4q-73 0 -133 -22t-104.5 -67t-69.5 -114t-25 -162v-112h572v-961q-20 -11 -46.5 -30t-49.5 -44.5t-38.5 -57.5t-15.5 -69q0 -57 39.5 -89t98.5 -32q33 0 55.5 7.5t38 15.5t25 15.5t14.5 7.5q4 0 8 -5l6 -6q-27 -27 -66.5 -41 t-82.5 -14q-68 0 -113 36t-45 105q0 35 14 66.5t35.5 57.5t47.5 47.5t50 36.5v933h-547v-940h-24v940h-580v-940h-24v940l-168 4q-12 0 -12 8z" />
<glyph unicode="ff&#x131;" horiz-adv-x="1646" d="M66 952v9h180v143q0 86 20.5 149t56 104t86 61t110.5 20q30 0 61.5 -6t53.5 -17l-2 -8q-2 -7 -8.5 -6t-19 4.5t-33.5 7.5t-52 4q-53 0 -98.5 -17t-79 -54t-52.5 -97t-19 -145v-143h580v174q0 86 17.5 147t48.5 100t75 57.5t99 18.5q17 0 30 -1.5t23 -3.5v-11q0 -8 -12 -6 t-45 2q-100 0 -156 -73t-56 -230v-174h572v-961h-25v940h-547v-940h-24v940h-580v-940h-24v940l-168 4q-12 0 -12 8z" />
<glyph unicode="fj" horiz-adv-x="1042" d="M66 952v9h180v112q0 93 26 165.5t73 121t112.5 73.5t144.5 25q30 0 61.5 -5.5t53.5 -16.5l-2 -9q-2 -6 -8 -5t-18.5 4.5t-33.5 7.5t-53 4q-73 0 -133 -22t-105 -67t-69.5 -114t-24.5 -162v-112h572v-1137q0 -45 -14.5 -83t-40.5 -65.5t-63 -43t-83 -15.5q-28 0 -48 5.5 t-38 17.5l4 8q4 8 9 7.5t14.5 -4.5t24 -8.5t34.5 -4.5q87 0 131.5 51.5t44.5 134.5v1116h-547v-940h-24v940l-168 4q-12 0 -12 8z" />
<glyph unicode="ffj" horiz-adv-x="1646" d="M66 952v9h180v143q0 86 20.5 149t56 104t86 61t110.5 20q30 0 61.5 -6t53.5 -17l-2 -8q-2 -7 -8.5 -6t-19 4.5t-33.5 7.5t-52 4q-53 0 -98.5 -17t-79 -54t-52.5 -97t-19 -145v-143h580v112q0 93 26 165.5t73 121t112.5 73.5t144.5 25q30 0 61.5 -5.5t53.5 -16.5l-2 -9 q-2 -6 -7.5 -5t-18.5 4.5t-34 7.5t-53 4q-73 0 -133 -22t-104.5 -67t-69.5 -114t-25 -162v-112h572v-1137q0 -45 -14.5 -83t-40.5 -65.5t-63 -43t-83 -15.5q-28 0 -47.5 5.5t-38.5 17.5l4 8q4 8 9.5 7.5t14.5 -4.5t23.5 -8.5t34.5 -4.5q87 0 131.5 51.5t44.5 134.5v1116 h-547v-940h-24v940h-580v-940h-24v940l-168 4q-12 0 -12 8z" />
<glyph unicode="fk" horiz-adv-x="1586" d="M62 952v9h181v118q0 89 21.5 165t69 130t123 85t184.5 31q58 0 114 -6.5t108 -8.5h18v-926h47q9 0 21.5 2t27.5 16l477 420q8 8 16.5 12.5t20.5 4.5h18l-508 -445q-13 -12 -25 -17q14 -4 24.5 -11t19.5 -15l530 -516h-18q-8 0 -14.5 2t-14.5 10l-504 490q-18 16 -32.5 22 t-44.5 6h-41v-530h-25v1452q-52 7 -109.5 12t-103.5 5q-105 0 -177 -29t-116 -80.5t-63.5 -123.5t-19.5 -157v-118h358v-21h-358v-940h-24v940l-168 4q-12 0 -13 8z" />
<glyph unicode="ffk" horiz-adv-x="2193" d="M66 952v9h180v143q0 86 20.5 149t56 104t86 61t110.5 20q30 0 61.5 -6t53.5 -17l-2 -8q-2 -7 -8.5 -6t-19 4.5t-33.5 7.5t-52 4q-53 0 -98.5 -17t-79 -54t-52.5 -97t-19 -145v-143h580v118q0 89 21.5 165t69 130t123.5 85t184 31q58 0 114 -6.5t108 -8.5h18v-926h47 q9 0 21.5 2t27.5 16l477 420q8 8 16.5 12.5t20.5 4.5h19l-508 -445q-13 -12 -26 -17q14 -4 24.5 -11t19.5 -15l531 -516h-19q-8 0 -14 2t-15 10l-503 490q-18 16 -32.5 22t-45.5 6h-41v-530h-25v1452q-52 7 -109.5 12t-103.5 5q-105 0 -177 -29t-116 -80.5t-63.5 -123.5 t-19.5 -157v-118h359v-21h-359v-940h-24v940h-580v-940h-24v940l-168 4q-12 0 -12 8z" />
<glyph unicode="ft" horiz-adv-x="1295" d="M62 952v9h181v153q0 86 20.5 149t56 104t86 61t110.5 20q30 0 61.5 -5.5t53.5 -17.5l-2 -8q-2 -7 -8.5 -6t-19 4.5t-33.5 7.5t-52 4q-53 0 -98.5 -16.5t-79 -54t-52.5 -97.5t-19 -145v-153h600l9 403q0 5 2.5 9.5t7.5 4.5h6v-417h342v-21h-342v-750q0 -51 13 -86 t35.5 -57t52 -32.5t63.5 -10.5q43 0 75 13.5t54.5 28.5t36.5 28.5t20 13.5q4 0 8 -4l4 -4q-15 -20 -37 -38t-48 -31t-55.5 -20t-57.5 -7q-88 0 -138.5 48t-50.5 158v750h-600v-940h-24v940l-168 4q-12 0 -13 8z" />
<glyph unicode="fft" horiz-adv-x="1902" d="M66 952v9h180v143q0 86 20.5 149t56 104t86 61t110.5 20q30 0 61.5 -6t53.5 -17l-2 -8q-2 -7 -8.5 -6t-19 4.5t-33.5 7.5t-52 4q-53 0 -98.5 -17t-79 -54t-52.5 -97t-19 -145v-143h580v153q0 86 20.5 149t56.5 104t86 61t110 20q30 0 62 -5.5t53 -17.5l-2 -8q-2 -7 -8 -6 t-19 4.5t-34 7.5t-52 4q-53 0 -98.5 -16.5t-79 -54t-52.5 -97.5t-19 -145v-153h601l8 403q0 5 2.5 9.5t7.5 4.5h6v-417h342v-21h-342v-750q0 -51 13 -86t35.5 -57t52 -32.5t63.5 -10.5q43 0 75 13.5t55 28.5t36.5 28.5t19.5 13.5q4 0 9 -4l4 -4q-15 -20 -37.5 -38t-48.5 -31 t-55 -20t-58 -7q-88 0 -138 48t-50 158v750h-601v-940h-24v940h-580v-940h-24v940l-168 4q-12 0 -12 8z" />
<glyph unicode="tf" horiz-adv-x="1336" d="M65 950v6l180 5l8 403q0 5 2.5 9.5t7.5 4.5h6v-417h630v153q0 86 20.5 149t56.5 104t86 61t110 20q30 0 62 -5.5t53 -17.5l-2 -8q-2 -7 -8 -6t-19 4.5t-34 7.5t-52 4q-53 0 -98.5 -16.5t-78.5 -54t-52 -97.5t-19 -145v-153h357v-21h-357v-940h-25v940h-630v-750 q0 -51 13 -86t35.5 -57t52 -32.5t63.5 -10.5q43 0 75.5 13.5t55 28.5t36 28.5t20.5 13.5q4 0 8 -4l4 -4q-15 -20 -37.5 -38t-48.5 -31t-55 -20t-58 -7q-88 0 -138 48t-50 158v750h-166q-14 0 -14 10z" />
<glyph unicode="t&#x12f;" horiz-adv-x="1129" d="M60 950v6l181 5l8 403q0 5 2.5 9.5t7.5 4.5h6v-417h664v-961q-20 -11 -46.5 -30t-49.5 -44.5t-38.5 -57.5t-15.5 -69q0 -57 39.5 -89t97.5 -32q33 0 56 7.5t38.5 15.5t25 15.5t14.5 7.5q4 0 8 -5l6 -6q-27 -27 -67 -41t-83 -14q-68 0 -112.5 36t-44.5 105q0 35 13.5 66.5 t35 57.5t48 47.5t50.5 36.5v933h-639v-750q0 -51 13 -86t35.5 -57t52 -32.5t63.5 -10.5q43 0 75.5 13.5t55 28.5t36 28.5t19.5 13.5q4 0 9 -4l4 -4q-15 -20 -37.5 -38t-48.5 -31t-55 -20t-58 -7q-88 0 -138 48t-50 158v750h-166q-14 0 -15 10zM859 1376q0 24 17 41t40 17 q22 0 40 -17t18 -41q0 -22 -18 -38.5t-40 -16.5q-24 0 -40.5 17t-16.5 38z" />
<glyph unicode="t&#x131;" horiz-adv-x="1133" d="M65 950v6l180 5l8 403q0 5 2.5 9.5t7.5 4.5h6v-417h664v-961h-25v940h-639v-750q0 -51 13 -86t35.5 -57t52 -32.5t63.5 -10.5q43 0 75.5 13.5t55 28.5t36 28.5t20.5 13.5q4 0 8 -4l4 -4q-15 -20 -37.5 -38t-48.5 -31t-55 -20t-58 -7q-88 0 -138 48t-50 158v750h-166 q-14 0 -14 10z" />
<glyph unicode="tt" horiz-adv-x="1306" d="M65 950v6l180 5l8 403q0 5 2.5 9.5t7.5 4.5h6v-417h610l8 403q0 5 2.5 9.5t7.5 4.5h6v-417h342v-21h-342v-750q0 -51 13 -86t35.5 -57t52 -32.5t63.5 -10.5q43 0 75.5 13.5t55 28.5t36 28.5t19.5 13.5q4 0 9 -4l4 -4q-15 -20 -37.5 -38t-48.5 -31t-55 -20t-58 -7 q-88 0 -138 48t-50 158v750h-610v-750q0 -51 13 -86t35.5 -57t52 -32.5t63.5 -10.5q43 0 75.5 13.5t55 28.5t36 28.5t20.5 13.5q4 0 8 -4l4 -4q-15 -20 -37.5 -38t-48.5 -31t-55 -20t-58 -7q-88 0 -138 48t-50 158v750h-166q-14 0 -14 10z" />
<glyph unicode="ttf" horiz-adv-x="1970" d="M65 950v6l180 5l8 403q0 5 2.5 9.5t7.5 4.5h6v-417h610l8 403q0 5 2.5 9.5t7.5 4.5h6v-417h630v153q0 86 20.5 149t56.5 104t86 61t110 20q30 0 62 -5.5t53 -17.5l-2 -8q-2 -7 -8 -6t-19 4.5t-34 7.5t-52 4q-53 0 -98.5 -16.5t-79 -54t-52 -97.5t-18.5 -145v-153h357v-21 h-357v-940h-25v940h-630v-750q0 -51 13 -86t35.5 -57t52 -32.5t63.5 -10.5q43 0 75.5 13.5t55 28.5t36 28.5t19.5 13.5q4 0 9 -4l4 -4q-15 -20 -37.5 -38t-48.5 -31t-55 -20t-58 -7q-88 0 -138 48t-50 158v750h-610v-750q0 -51 13 -86t35.5 -57t52 -32.5t63.5 -10.5 q43 0 75.5 13.5t55 28.5t36 28.5t20.5 13.5q4 0 8 -4l4 -4q-15 -20 -37.5 -38t-48.5 -31t-55 -20t-58 -7q-88 0 -138 48t-50 158v750h-166q-14 0 -14 10z" />
<glyph unicode="tt&#x12f;" horiz-adv-x="1742" d="M60 950v6l181 5l8 403q0 5 2.5 9.5t7.5 4.5h6v-417h609l9 403q0 5 2.5 9.5t7.5 4.5h6v-417h643v-961q-20 -11 -46.5 -30t-49.5 -44.5t-38 -57.5t-15 -69q0 -57 39 -89t98 -32q33 0 56 7.5t38 15.5t24.5 15.5t14.5 7.5q4 0 8 -5l6 -6q-27 -27 -66.5 -41t-82.5 -14 q-68 0 -113 36t-45 105q0 35 14 66.5t35.5 57.5t47.5 47.5t51 36.5v933h-619v-750q0 -51 13 -86t35.5 -57t52 -32.5t63.5 -10.5q43 0 75 13.5t54.5 28.5t36.5 28.5t20 13.5q4 0 8 -4l5 -4q-15 -20 -37.5 -38t-48.5 -31t-55 -20t-58 -7q-88 0 -138.5 48t-50.5 158v750h-609 v-750q0 -51 13 -86t35.5 -57t52 -32.5t63.5 -10.5q43 0 75.5 13.5t55 28.5t36 28.5t19.5 13.5q4 0 9 -4l4 -4q-15 -20 -37.5 -38t-48.5 -31t-55 -20t-58 -7q-88 0 -138 48t-50 158v750h-166q-14 0 -15 10zM1473 1376q0 24 16.5 41t40.5 17q22 0 39.5 -17t17.5 -41 q0 -22 -18 -38.5t-39 -16.5q-24 0 -40.5 17t-16.5 38z" />
<glyph unicode="tt&#x131;" horiz-adv-x="1746" d="M65 950v6l180 5l8 403q0 5 2.5 9.5t7.5 4.5h6v-417h610l8 403q0 5 2.5 9.5t7.5 4.5h6v-417h643v-961h-24v940h-619v-750q0 -51 13 -86t35.5 -57t52 -32.5t63.5 -10.5q43 0 75.5 13.5t55 28.5t36 28.5t19.5 13.5q4 0 9 -4l4 -4q-15 -20 -37.5 -38t-48.5 -31t-55 -20 t-58 -7q-88 0 -138 48t-50 158v750h-610v-750q0 -51 13 -86t35.5 -57t52 -32.5t63.5 -10.5q43 0 75.5 13.5t55 28.5t36 28.5t20.5 13.5q4 0 8 -4l4 -4q-15 -20 -37.5 -38t-48.5 -31t-55 -20t-58 -7q-88 0 -138 48t-50 158v750h-166q-14 0 -14 10z" />
<glyph unicode="f&#x237;" horiz-adv-x="1042" d="M66 952v9h180v174q0 86 17.5 147t48.5 100t75 57.5t98 18.5q17 0 30 -1.5t24 -3.5v-11q0 -8 -12 -6t-45 2q-100 0 -156 -73t-56 -230v-174h572v-1137q0 -45 -14.5 -83t-40.5 -65.5t-63 -43t-83 -15.5q-28 0 -48 5.5t-38 17.5l4 8q4 8 9 7.5t14.5 -4.5t24 -8.5t34.5 -4.5 q87 0 131.5 51.5t44.5 134.5v1116h-547v-940h-24v940l-168 4q-12 0 -12 8z" />
<glyph unicode="ff&#x237;" horiz-adv-x="1646" d="M66 952v9h180v143q0 86 20.5 149t56 104t86 61t110.5 20q30 0 61.5 -6t53.5 -17l-2 -8q-2 -7 -8.5 -6t-19 4.5t-33.5 7.5t-52 4q-53 0 -98.5 -17t-79 -54t-52.5 -97t-19 -145v-143h580v174q0 86 17.5 147t48.5 100t75 57.5t99 18.5q17 0 30 -1.5t23 -3.5v-11q0 -8 -12 -6 t-45 2q-100 0 -156 -73t-56 -230v-174h572v-1137q0 -45 -14.5 -83t-40.5 -65.5t-63 -43t-83 -15.5q-28 0 -47.5 5.5t-38.5 17.5l4 8q4 8 9.5 7.5t14.5 -4.5t23.5 -8.5t34.5 -4.5q87 0 131.5 51.5t44.5 134.5v1116h-547v-940h-24v940h-580v-940h-24v940l-168 4q-12 0 -12 8z " />
<glyph unicode="f&#x135;" horiz-adv-x="1043" d="M66 0zM66 952v9h180v174q0 86 17.5 147t48.5 100t75 57.5t98 18.5q17 0 30 -1.5t24 -3.5v-11q0 -8 -12 -6t-45 2q-100 0 -156 -73t-56 -230v-174h572v-1137q0 -45 -14.5 -83t-40.5 -65.5t-63 -43t-83 -15.5q-28 0 -48 5.5t-38 17.5l4 8q4 8 9 7.5t14.5 -4.5t24 -8.5 t34.5 -4.5q87 0 131.5 51.5t44.5 134.5v1116h-547v-940h-24v940l-168 4q-12 0 -12 8zM607 1198l217 236h17l217 -236h-19q-8 0 -16 8l-184 201l-6 6l-7 -6l-184 -201q-3 -3 -7 -5.5t-9 -2.5h-19z" />
<glyph unicode="f&#x13e;" horiz-adv-x="1103" d="M66 0zM66 952v9h180v77q0 93 26.5 170.5t76.5 132.5t123 85t165 30q68 0 134 -7t120 -7h12v-1442h-24v1425q-52 1 -117.5 6t-124.5 5q-87 0 -155 -28.5t-115.5 -80t-72 -125.5t-24.5 -164v-77h318v-21h-318v-940h-24v940l-168 4q-12 0 -12 8zM1067 1190l47 287h10 q16 0 17 -23q0 -11 -4 -30.5t-10.5 -50t-16 -71.5t-23.5 -98q-2 -6 -4 -10t-10 -4h-6z" />
<glyph unicode="f&#x13c;" horiz-adv-x="1103" d="M66 0zM66 952v9h180v77q0 93 26.5 170.5t76.5 132.5t123 85t165 30q68 0 134 -7t120 -7h12v-1442h-24v1425q-52 1 -117.5 6t-124.5 5q-87 0 -155 -28.5t-115.5 -80t-72 -125.5t-24.5 -164v-77h318v-21h-318v-940h-24v940l-168 4q-12 0 -12 8zM832 -399l47 286h10 q16 0 17 -22q0 -11 -3.5 -30.5t-10.5 -50t-16.5 -72t-22.5 -97.5q-2 -6 -4.5 -10t-10.5 -4h-6z" />
<glyph unicode="f&#x21b;" horiz-adv-x="1295" d="M62 0zM62 952v9h181v153q0 86 20.5 149t56 104t86 61t110.5 20q30 0 61.5 -5.5t53.5 -17.5l-2 -8q-2 -7 -8.5 -6t-19 4.5t-33.5 7.5t-52 4q-53 0 -98.5 -16.5t-79 -54t-52.5 -97.5t-19 -145v-153h600l9 403q0 5 2.5 9.5t7.5 4.5h6v-417h342v-21h-342v-750q0 -51 13 -86 t35.5 -57t52 -32.5t63.5 -10.5q43 0 75 13.5t54.5 28.5t36.5 28.5t20 13.5q4 0 8 -4l4 -4q-15 -20 -37 -38t-48 -31t-55.5 -20t-57.5 -7q-88 0 -138.5 48t-50.5 158v750h-600v-940h-24v940l-168 4q-12 0 -13 8zM990 -399l47 286h10q16 0 17 -22q0 -11 -3.5 -30.5t-10.5 -50 t-16.5 -72t-22.5 -97.5q-2 -6 -4.5 -10t-10.5 -4h-6z" />
<glyph unicode="f&#x165;" horiz-adv-x="1295" d="M62 0zM62 952v9h181v153q0 86 20.5 149t56 104t86 61t110.5 20q30 0 61.5 -5.5t53.5 -17.5l-2 -8q-2 -7 -8.5 -6t-19 4.5t-33.5 7.5t-52 4q-53 0 -98.5 -16.5t-79 -54t-52.5 -97.5t-19 -145v-153h600l9 403q0 5 2.5 9.5t7.5 4.5h6v-417h342v-21h-342v-750q0 -51 13 -86 t35.5 -57t52 -32.5t63.5 -10.5q43 0 75 13.5t54.5 28.5t36.5 28.5t20 13.5q4 0 8 -4l4 -4q-15 -20 -37 -38t-48 -31t-55.5 -20t-57.5 -7q-88 0 -138.5 48t-50.5 158v750h-600v-940h-24v940l-168 4q-12 0 -13 8zM1230 1190l47 287h10q16 0 17 -23q0 -11 -4 -30.5t-10.5 -50 t-16 -71.5t-23.5 -98q-2 -6 -4 -10t-10 -4h-6z" />
<glyph unicode="f&#xed;" horiz-adv-x="1042" d="M66 0zM66 952v9h180v174q0 86 17.5 147t48.5 100t75 57.5t98 18.5q17 0 30 -1.5t24 -3.5v-11q0 -8 -12 -6t-45 2q-100 0 -156 -73t-56 -230v-174h572v-961h-25v940h-547v-940h-24v940l-168 4q-12 0 -12 8zM763 1186l168 241q9 14 17.5 18.5t25.5 4.5h27l-207 -256 q-5 -8 -17 -8h-14z" />
<glyph unicode="ff&#xed;" horiz-adv-x="1646" d="M66 0zM66 952v9h180v143q0 86 20.5 149t56 104t86 61t110.5 20q30 0 61.5 -6t53.5 -17l-2 -8q-2 -7 -8.5 -6t-19 4.5t-33.5 7.5t-52 4q-53 0 -98.5 -17t-79 -54t-52.5 -97t-19 -145v-143h580v174q0 86 17.5 147t48.5 100t75 57.5t99 18.5q17 0 30 -1.5t23 -3.5v-11 q0 -8 -12 -6t-45 2q-100 0 -156 -73t-56 -230v-174h572v-961h-25v940h-547v-940h-24v940h-580v-940h-24v940l-168 4q-12 0 -12 8zM1368 1186l168 241q9 14 17.5 18.5t25.5 4.5h27l-207 -256q-5 -8 -17 -8h-14z" />
<glyph unicode="f&#x13a;" horiz-adv-x="1103" d="M66 0zM66 952v9h180v77q0 93 26.5 170.5t76.5 132.5t123 85t165 30q68 0 134 -7t120 -7h12v-1442h-24v1425q-52 1 -117.5 6t-124.5 5q-87 0 -155 -28.5t-115.5 -80t-72 -125.5t-24.5 -164v-77h318v-21h-318v-940h-24v940l-168 4q-12 0 -12 8zM817 1575l288 287 q8 8 16.5 11t26.5 3h36l-337 -295q-4 -4 -8.5 -5t-9.5 -1h-12z" />
<glyph unicode="ti" horiz-adv-x="1134" d="M65 0zM65 950v6l180 5l8 403q0 5 2.5 9.5t7.5 4.5h6v-417h664v-961h-25v940h-639v-750q0 -51 13 -86t35.5 -57t52 -32.5t63.5 -10.5q43 0 75.5 13.5t55 28.5t36 28.5t20.5 13.5q4 0 8 -4l4 -4q-15 -20 -37.5 -38t-48.5 -31t-55 -20t-58 -7q-88 0 -138 48t-50 158v750 h-166q-14 0 -14 10zM864 1393q0 24 17 40.5t41 16.5q22 0 39.5 -16.5t17.5 -40.5q0 -22 -18 -39t-39 -17q-24 0 -41 17t-17 39z" />
<glyph unicode="t&#xec;" horiz-adv-x="1134" d="M65 0zM65 950v6l180 5l8 403q0 5 2.5 9.5t7.5 4.5h6v-417h664v-961h-25v940h-639v-750q0 -51 13 -86t35.5 -57t52 -32.5t63.5 -10.5q43 0 75.5 13.5t55 28.5t36 28.5t20.5 13.5q4 0 8 -4l4 -4q-15 -20 -37.5 -38t-48.5 -31t-55 -20t-58 -7q-88 0 -138 48t-50 158v750 h-166q-14 0 -14 10zM766 1450h27q17 0 25 -4t18 -19l168 -241h-15q-11 0 -16 8z" />
<glyph unicode="t&#xed;" horiz-adv-x="1129" d="M60 0zM61 950v6l180 5l8 403q0 5 2.5 9.5t7.5 4.5h6v-417h664v-961h-25v940h-639v-750q0 -51 13 -86t35.5 -57t52 -32.5t63.5 -10.5q43 0 75.5 13.5t55 28.5t36 28.5t20.5 13.5q4 0 8 -4l4 -4q-15 -20 -37.5 -38t-48.5 -31t-55 -20t-58 -7q-88 0 -138 48t-50 158v750 h-166q-14 0 -14 10zM852 1186l168 241q9 14 17.5 18.5t25.5 4.5h27l-207 -256q-5 -8 -17 -8h-14z" />
<glyph unicode="t&#xee;" horiz-adv-x="1133" d="M65 0zM65 950v6l180 5l8 403q0 5 2.5 9.5t7.5 4.5h6v-417h664v-961h-25v940h-639v-750q0 -51 13 -86t35.5 -57t52 -32.5t63.5 -10.5q43 0 75.5 13.5t55 28.5t36 28.5t20.5 13.5q4 0 8 -4l4 -4q-15 -20 -37.5 -38t-48.5 -31t-55 -20t-58 -7q-88 0 -138 48t-50 158v750 h-166q-14 0 -14 10zM696 1198l217 236h17l217 -236h-19q-8 0 -16 8l-184 201l-6 6l-7 -6l-184 -201q-3 -3 -7 -5.5t-9 -2.5h-19z" />
<glyph unicode="t&#xef;" horiz-adv-x="1133" d="M65 0zM65 950v6l180 5l8 403q0 5 2.5 9.5t7.5 4.5h6v-417h664v-961h-25v940h-639v-750q0 -51 13 -86t35.5 -57t52 -32.5t63.5 -10.5q43 0 75.5 13.5t55 28.5t36 28.5t20.5 13.5q4 0 8 -4l4 -4q-15 -20 -37.5 -38t-48.5 -31t-55 -20t-58 -7q-88 0 -138 48t-50 158v750 h-166q-14 0 -14 10zM737 1311q0 24 17 40.5t41 16.5q22 0 39.5 -16.5t17.5 -40.5q0 -22 -18 -39t-39 -17q-24 0 -41 17t-17 39zM991 1311q0 24 17 40.5t41 16.5q22 0 39.5 -16.5t17.5 -40.5q0 -22 -18 -39t-39 -17q-24 0 -41 17t-17 39z" />
<glyph unicode="t&#x12b;" horiz-adv-x="1134" d="M65 0zM65 950v6l180 5l8 403q0 5 2.5 9.5t7.5 4.5h6v-417h664v-961h-25v940h-639v-750q0 -51 13 -86t35.5 -57t52 -32.5t63.5 -10.5q43 0 75.5 13.5t55 28.5t36 28.5t20.5 13.5q4 0 8 -4l4 -4q-15 -20 -37.5 -38t-48.5 -31t-55 -20t-58 -7q-88 0 -138 48t-50 158v750 h-166q-14 0 -14 10zM655 1300v21h533v-21h-533z" />
<glyph unicode="t&#x129;" horiz-adv-x="1130" d="M60 0zM61 950v6l180 5l8 403q0 5 2.5 9.5t7.5 4.5h6v-417h664v-961h-25v940h-639v-750q0 -51 13 -86t35.5 -57t52 -32.5t63.5 -10.5q43 0 75.5 13.5t55 28.5t36 28.5t20.5 13.5q4 0 8 -4l4 -4q-15 -20 -37.5 -38t-48.5 -31t-55 -20t-58 -7q-88 0 -138 48t-50 158v750 h-166q-14 0 -14 10zM688 1253q0 28 8 53t23 43.5t37.5 30t52.5 11.5q34 0 62.5 -18.5t55.5 -41t54 -41t57 -18.5q51 0 76 33.5t27 83.5h16q0 -28 -7 -53t-21.5 -43.5t-37 -30t-53.5 -11.5q-33 0 -61.5 18.5t-56 41t-54.5 41t-57 18.5q-25 0 -43.5 -9t-31.5 -25t-19.5 -37.5 t-7.5 -45.5h-19z" />
<glyph unicode="tti" horiz-adv-x="1746" d="M65 0zM65 950v6l180 5l8 403q0 5 2.5 9.5t7.5 4.5h6v-417h610l8 403q0 5 2.5 9.5t7.5 4.5h6v-417h643v-961h-24v940h-619v-750q0 -51 13 -86t35.5 -57t52 -32.5t63.5 -10.5q43 0 75.5 13.5t55 28.5t36 28.5t19.5 13.5q4 0 9 -4l4 -4q-15 -20 -37.5 -38t-48.5 -31t-55 -20 t-58 -7q-88 0 -138 48t-50 158v750h-610v-750q0 -51 13 -86t35.5 -57t52 -32.5t63.5 -10.5q43 0 75.5 13.5t55 28.5t36 28.5t20.5 13.5q4 0 8 -4l4 -4q-15 -20 -37.5 -38t-48.5 -31t-55 -20t-58 -7q-88 0 -138 48t-50 158v750h-166q-14 0 -14 10zM1478 1393q0 24 17 40.5 t41 16.5q22 0 39.5 -16.5t17.5 -40.5q0 -22 -18 -39t-39 -17q-24 0 -41 17t-17 39z" />
<glyph unicode="tt&#xec;" horiz-adv-x="1746" d="M65 0zM65 950v6l180 5l8 403q0 5 2.5 9.5t7.5 4.5h6v-417h610l8 403q0 5 2.5 9.5t7.5 4.5h6v-417h643v-961h-24v940h-619v-750q0 -51 13 -86t35.5 -57t52 -32.5t63.5 -10.5q43 0 75.5 13.5t55 28.5t36 28.5t19.5 13.5q4 0 9 -4l4 -4q-15 -20 -37.5 -38t-48.5 -31t-55 -20 t-58 -7q-88 0 -138 48t-50 158v750h-610v-750q0 -51 13 -86t35.5 -57t52 -32.5t63.5 -10.5q43 0 75.5 13.5t55 28.5t36 28.5t20.5 13.5q4 0 8 -4l4 -4q-15 -20 -37.5 -38t-48.5 -31t-55 -20t-58 -7q-88 0 -138 48t-50 158v750h-166q-14 0 -14 10zM1380 1450h27q17 0 25 -4 t18 -19l168 -241h-15q-11 0 -16 8z" />
<glyph unicode="tt&#xed;" horiz-adv-x="1742" d="M60 0zM61 950v6l180 5l8 403q0 5 2.5 9.5t7.5 4.5h6v-417h610l8 403q0 5 2.5 9.5t7.5 4.5h6v-417h643v-961h-24v940h-619v-750q0 -51 13 -86t35.5 -57t52 -32.5t63.5 -10.5q43 0 75.5 13.5t55 28.5t36 28.5t19.5 13.5q4 0 9 -4l4 -4q-15 -20 -37.5 -38t-48.5 -31t-55 -20 t-58 -7q-88 0 -138 48t-50 158v750h-610v-750q0 -51 13 -86t35.5 -57t52 -32.5t63.5 -10.5q43 0 75.5 13.5t55 28.5t36 28.5t20.5 13.5q4 0 8 -4l4 -4q-15 -20 -37.5 -38t-48.5 -31t-55 -20t-58 -7q-88 0 -138 48t-50 158v750h-166q-14 0 -14 10zM1466 1186l168 241 q9 14 17.5 18.5t25.5 4.5h27l-207 -256q-5 -8 -17 -8h-14z" />
<glyph unicode="tt&#xee;" horiz-adv-x="1746" d="M65 0zM65 950v6l180 5l8 403q0 5 2.5 9.5t7.5 4.5h6v-417h610l8 403q0 5 2.5 9.5t7.5 4.5h6v-417h643v-961h-24v940h-619v-750q0 -51 13 -86t35.5 -57t52 -32.5t63.5 -10.5q43 0 75.5 13.5t55 28.5t36 28.5t19.5 13.5q4 0 9 -4l4 -4q-15 -20 -37.5 -38t-48.5 -31t-55 -20 t-58 -7q-88 0 -138 48t-50 158v750h-610v-750q0 -51 13 -86t35.5 -57t52 -32.5t63.5 -10.5q43 0 75.5 13.5t55 28.5t36 28.5t20.5 13.5q4 0 8 -4l4 -4q-15 -20 -37.5 -38t-48.5 -31t-55 -20t-58 -7q-88 0 -138 48t-50 158v750h-166q-14 0 -14 10zM1310 1198l217 236h17 l217 -236h-19q-8 0 -16 8l-184 201l-6 6l-7 -6l-184 -201q-3 -3 -7 -5.5t-9 -2.5h-19z" />
<glyph unicode="tt&#xef;" horiz-adv-x="1746" d="M65 0zM65 950v6l180 5l8 403q0 5 2.5 9.5t7.5 4.5h6v-417h610l8 403q0 5 2.5 9.5t7.5 4.5h6v-417h643v-961h-24v940h-619v-750q0 -51 13 -86t35.5 -57t52 -32.5t63.5 -10.5q43 0 75.5 13.5t55 28.5t36 28.5t19.5 13.5q4 0 9 -4l4 -4q-15 -20 -37.5 -38t-48.5 -31t-55 -20 t-58 -7q-88 0 -138 48t-50 158v750h-610v-750q0 -51 13 -86t35.5 -57t52 -32.5t63.5 -10.5q43 0 75.5 13.5t55 28.5t36 28.5t20.5 13.5q4 0 8 -4l4 -4q-15 -20 -37.5 -38t-48.5 -31t-55 -20t-58 -7q-88 0 -138 48t-50 158v750h-166q-14 0 -14 10zM1351 1311q0 24 17 40.5 t41 16.5q22 0 39.5 -16.5t17.5 -40.5q0 -22 -18 -39t-39 -17q-24 0 -41 17t-17 39zM1605 1311q0 24 17 40.5t41 16.5q22 0 39.5 -16.5t17.5 -40.5q0 -22 -18 -39t-39 -17q-24 0 -41 17t-17 39z" />
<glyph unicode="tt&#x12b;" horiz-adv-x="1746" d="M65 0zM65 950v6l180 5l8 403q0 5 2.5 9.5t7.5 4.5h6v-417h610l8 403q0 5 2.5 9.5t7.5 4.5h6v-417h643v-961h-24v940h-619v-750q0 -51 13 -86t35.5 -57t52 -32.5t63.5 -10.5q43 0 75.5 13.5t55 28.5t36 28.5t19.5 13.5q4 0 9 -4l4 -4q-15 -20 -37.5 -38t-48.5 -31t-55 -20 t-58 -7q-88 0 -138 48t-50 158v750h-610v-750q0 -51 13 -86t35.5 -57t52 -32.5t63.5 -10.5q43 0 75.5 13.5t55 28.5t36 28.5t20.5 13.5q4 0 8 -4l4 -4q-15 -20 -37.5 -38t-48.5 -31t-55 -20t-58 -7q-88 0 -138 48t-50 158v750h-166q-14 0 -14 10zM1269 1300v21h533v-21h-533 z" />
<glyph unicode="tt&#x129;" horiz-adv-x="1742" d="M60 0zM61 950v6l180 5l8 403q0 5 2.5 9.5t7.5 4.5h6v-417h610l8 403q0 5 2.5 9.5t7.5 4.5h6v-417h643v-961h-24v940h-619v-750q0 -51 13 -86t35.5 -57t52 -32.5t63.5 -10.5q43 0 75.5 13.5t55 28.5t36 28.5t19.5 13.5q4 0 9 -4l4 -4q-15 -20 -37.5 -38t-48.5 -31t-55 -20 t-58 -7q-88 0 -138 48t-50 158v750h-610v-750q0 -51 13 -86t35.5 -57t52 -32.5t63.5 -10.5q43 0 75.5 13.5t55 28.5t36 28.5t20.5 13.5q4 0 8 -4l4 -4q-15 -20 -37.5 -38t-48.5 -31t-55 -20t-58 -7q-88 0 -138 48t-50 158v750h-166q-14 0 -14 10zM1302 1253q0 28 8 53 t23 43.5t37.5 30t52.5 11.5q34 0 62.5 -18.5t55.5 -41t54 -41t57 -18.5q51 0 76 33.5t27 83.5h16q0 -28 -7 -53t-21.5 -43.5t-37 -30t-53.5 -11.5q-33 0 -61.5 18.5t-56 41t-54.5 41t-57 18.5q-25 0 -43.5 -9t-31.5 -25t-19.5 -37.5t-7.5 -45.5h-19z" />
<glyph horiz-adv-x="0" />
<glyph horiz-adv-x="0" />
<glyph unicode="&#xd;" horiz-adv-x="0" />
<glyph unicode=" "  horiz-adv-x="583" />
<glyph unicode="&#x09;" horiz-adv-x="583" />
<glyph unicode="&#xa0;" horiz-adv-x="583" />
<glyph unicode="!" horiz-adv-x="495" d="M179 49q0 28 19 48t47 20t47.5 -20t19.5 -48t-20 -46.5t-47 -18.5q-28 0 -47 18.5t-19 46.5zM234 848v586h29v-586q0 -45 -0.5 -84.5t-1 -80.5t-2 -88t-2.5 -108h-16q-2 60 -3 107.5t-1.5 88.5t-1.5 80.5t-1 84.5z" />
<glyph unicode="&#x22;" horiz-adv-x="645" d="M182 969zM182 1133v301h21v-301l-2 -156q0 -8 -8 -8t-9 8zM442 1133v301h21v-301l-2 -156q0 -8 -8 -8t-9 8z" />
<glyph unicode="#" d="M105 483v6h237l100 455h-279v6q0 12 14 13h267l102 454q3 16 18 17h8l-105 -471h350l106 471h10q14 0 8 -21l-101 -450h240v-7q0 -12 -14 -12h-228l-101 -455h272q14 0 14 -12v-6h-288l-105 -471h-6q-8 0 -12 2.5t-1 13.5l102 455h-351l-101 -455q-3 -16 -16 -16h-11 l106 471h-220q-14 0 -15 12zM365 489h350l100 455h-350z" />
<glyph unicode="$" d="M171 170l4 4q3 3 5 4.5t7 1.5q6 0 18 -12.5t32 -32t48.5 -42.5t69 -42.5t93 -33t119.5 -13.5l27 744q-68 22 -131.5 47t-113 64.5t-79 97t-29.5 143.5q0 68 25 130t73 110t118 77t161 31l8 192q0 16 12 17h10l-8 -209q100 -2 177.5 -36t146.5 -105l-5 -7q-3 -6 -10 -6 q-10 0 -28.5 20t-54 44.5t-90 45.5t-136.5 23l-24 -662q73 -24 143.5 -50t126.5 -65t90.5 -97.5t34.5 -149.5q0 -86 -28.5 -160.5t-82.5 -131t-132.5 -90t-178.5 -36.5l-8 -249q0 -16 -13 -17h-10l9 265q-72 0 -128.5 12.5t-104 36.5t-87 58.5t-76.5 78.5zM263 1100 q0 -77 27.5 -130.5t74 -90t106 -61t124.5 -46.5l23 654q-86 -2 -152 -29t-111.5 -72t-68.5 -103.5t-23 -121.5zM590 4q94 3 168.5 36t125.5 86.5t77.5 123.5t26.5 149q0 84 -32 140t-84.5 93.5t-119.5 62t-137 46.5z" />
<glyph unicode="%" horiz-adv-x="1558" d="M114 1090q0 93 22.5 160.5t61.5 112t91 66t111 21.5q58 0 110.5 -21.5t91.5 -66t62 -112t23 -160.5q0 -92 -23 -160t-62 -112t-91 -65.5t-111 -21.5t-111 21.5t-91 65.5t-61.5 111.5t-22.5 160.5zM136 1090q0 -89 21 -154t57.5 -106.5t84 -60.5t101.5 -19q53 0 101.5 19 t85 60.5t57.5 106.5t21 154t-21 153.5t-57.5 106.5t-84.5 62t-102 20t-101.5 -20t-84 -62t-57.5 -106.5t-21 -153.5zM253 0l1012 1425q5 8 16 9h14l-1011 -1426q-5 -8 -17 -8h-14zM871 342q0 93 22.5 160.5t61.5 112t91.5 66t111.5 21.5q58 0 110.5 -21.5t91.5 -66t62 -112 t23 -160.5q0 -92 -23 -159.5t-62 -111.5t-91 -65.5t-111 -21.5t-111.5 21.5t-91.5 65.5t-61.5 111.5t-22.5 159.5zM894 342q0 -89 21 -153.5t57.5 -106t84 -61t101.5 -19.5q53 0 101.5 19.5t84.5 61t57 106t21 153.5t-21 153.5t-57 106.5t-84.5 62t-101.5 20 q-54 0 -101.5 -20t-84 -62t-57.5 -106.5t-21 -153.5z" />
<glyph unicode="&#x26;" horiz-adv-x="1406" d="M126 352q0 77 28.5 146.5t79.5 127t118.5 101t146.5 69.5q-42 44 -74 84.5t-53.5 80.5t-32 83t-10.5 93q0 69 25 126t70.5 98.5t108 65t138.5 23.5q59 0 115 -22t99.5 -59t70 -86t26.5 -103h-6q-5 0 -9.5 3.5t-7.5 12.5q-2 28 -20 68t-53.5 76.5t-89.5 63t-125 26.5 q-70 0 -128.5 -22t-100.5 -60t-65.5 -92t-23.5 -119q0 -95 51 -183t152 -184l487 -467q52 78 82 161t39 157q2 8 4 12t11 4h8q-3 -77 -35 -168.5t-92 -180.5l301 -288h-16q-9 0 -15.5 1t-15.5 9l-268 258q-42 -58 -96.5 -110t-120 -90.5t-142.5 -61t-164 -22.5 q-73 0 -144 24t-127 70.5t-91 115t-35 158.5zM151 352q0 -89 35 -154.5t90 -108.5t121 -64t126 -21q86 0 161 22t138.5 60t115.5 88.5t92 108.5l-488 471l-28 26q-78 -25 -144.5 -67.5t-115 -98.5t-76 -122.5t-27.5 -139.5z" />
<glyph unicode="'" horiz-adv-x="385" d="M182 1133v301h21v-301l-2 -156q0 -8 -8 -8t-9 8z" />
<glyph unicode="(" horiz-adv-x="513" d="M131 647q0 115 14.5 223.5t47 216.5t87 219.5t134.5 233.5l10 -6q3 -2 4 -6t-4 -10q-135 -203 -202.5 -418t-67.5 -453q0 -239 67.5 -453t202.5 -417q5 -6 4 -10.5t-4 -6.5l-10 -6q-80 122 -134.5 233.5t-87 219.5t-47 216t-14.5 224z" />
<glyph unicode=")" horiz-adv-x="513" d="M85 -233.5q-1 4.5 4 10.5q135 203 202.5 417t67.5 453q0 238 -67.5 453t-202.5 418q-5 6 -4 10t4 6l10 6q80 -122 134.5 -233.5t87 -219.5t47 -216.5t14.5 -223.5q0 -116 -14.5 -224t-47 -216t-87 -219.5t-134.5 -233.5l-10 6q-3 2 -4 6.5z" />
<glyph unicode="*" horiz-adv-x="870" d="M176 1370l10 19l209 -121q5 -3 9 -5.5t7 -6t7.5 -8t12.5 -11.5q-4 18 -5.5 26.5t-1.5 20.5v234h20v-234q0 -12 -0.5 -20.5t-5.5 -26.5q14 14 20 19.5t17 11.5l207 121l10 -19l-207 -121q-10 -6 -17.5 -9.5t-23.5 -7.5q17 -5 24 -7.5t17 -7.5l209 -121l-10 -19l-209 121 q-5 3 -8.5 5t-7 4.5t-9 7t-12.5 12.5q3 -18 4.5 -26t1.5 -19v-234h-20v234q0 11 1.5 18.5t5.5 25.5q-13 -13 -18.5 -17.5t-17.5 -10.5l-207 -121l-10 19l207 121q10 5 18 7.5l24 7.5q-17 7 -24.5 9t-17.5 8zM438 1227v1v-1z" />
<glyph unicode="+" d="M123 676v20h461v482h20v-482h463v-20h-463v-483h-20v483h-461z" />
<glyph unicode="," horiz-adv-x="434" d="M157 -233q0 2 3 7q7 9 24 31t34.5 53t30.5 70t14 83q-17 -19 -47 -19q-25 0 -41 16.5t-16 44.5q0 25 17 44.5t44 19.5q28 0 46 -20.5t18 -59.5q0 -79 -34.5 -152t-86.5 -129l-3 3q-3 3 -3 8z" />
<glyph unicode="-" horiz-adv-x="755" d="M153 592v20h450v-20h-450z" />
<glyph unicode="&#xad;" horiz-adv-x="755" d="M153 592v20h450v-20h-450z" />
<glyph unicode="." horiz-adv-x="475" d="M171 49q0 28 19 48t47 20t47.5 -20t19.5 -48t-20 -46.5t-47 -18.5q-28 0 -47 18.5t-19 46.5z" />
<glyph unicode="/" horiz-adv-x="860" d="M87 -80l655 1542q6 12 21 13h10l-655 -1543q-3 -8 -10 -10t-13 -2h-8z" />
<glyph unicode="0" d="M86 717q0 188 40.5 326t109.5 228.5t161.5 134.5t196.5 44q103 0 196 -44t162 -134.5t109.5 -228.5t40.5 -326t-40.5 -326t-109.5 -228t-162 -133.5t-196 -43.5t-196 43.5t-162 133.5t-109.5 227.5t-40.5 326.5zM111 717q0 -184 38 -318.5t104 -221.5t154.5 -129 t186.5 -42t185.5 42t153 129t104 221.5t38.5 318.5t-38.5 318t-104 222t-153 130.5t-185.5 42.5t-186.5 -42.5t-154.5 -130.5t-104 -222t-38 -318z" />
<glyph unicode="1" d="M245 1079l403 363h15v-1422h339v-20h-712v20h348v1328q0 14 1 29t3 29l-371 -335q-10 -10 -20 0z" />
<glyph unicode="2" d="M137 0v10q0 5 3 9t5 6l517 524q62 65 118.5 126t99 124.5t67 131t24.5 144.5q0 93 -32 160.5t-84 110.5t-118.5 63.5t-136.5 20.5q-80 0 -147 -25t-118 -69.5t-84.5 -106t-45.5 -135.5q-3 -16 -17 -17h-10q11 86 46.5 155.5t91 117.5t127.5 74t157 26q74 0 145 -21.5 t126.5 -67t89.5 -116t34 -170.5q0 -82 -26 -152.5t-70 -135t-102 -126.5t-121 -126l-506 -517q22 2 50 3.5t63 1.5h741q10 0 10 -11v-12h-897z" />
<glyph unicode="3" d="M134 344l4 2q3 2 11.5 1.5t13.5 -15.5q2 -7 8.5 -34t22.5 -63t44.5 -76.5t75 -75t113.5 -57t160 -22.5q105 0 184 35.5t131.5 90t79.5 120.5t27 129q0 74 -26 137.5t-81 110.5t-141 74t-207 28v16q94 3 171 29.5t130.5 72t83 107.5t29.5 138q0 89 -30.5 153t-81 105 t-116 60.5t-135.5 19.5q-80 0 -147.5 -25t-118.5 -69.5t-85 -106t-46 -135.5q-3 -16 -14 -17h-11q11 86 46.5 155.5t91 117.5t127.5 74t157 26q74 0 143.5 -20.5t124 -63.5t87 -111t32.5 -163q0 -73 -27.5 -134t-73 -106t-105 -74t-121.5 -39q89 -7 158 -36.5t115.5 -76.5 t70.5 -110t24 -137q0 -79 -33 -150.5t-92.5 -126t-141.5 -86.5t-179 -32q-86 0 -151 17t-113 45.5t-80 66t-53.5 77t-34.5 79.5t-21 75z" />
<glyph unicode="4" d="M57 461l742 975h14v-973h303v-8q0 -12 -16 -13h-287v-442h-22v442h-713q-11 0 -14 2.5t-5 8.5zM86 463h705v891v18.5t2 20.5z" />
<glyph unicode="5" d="M174 90l6 8q3 6 13 6q7 0 31.5 -14.5t66 -33t99 -33.5t132.5 -15q91 0 173 29.5t143.5 86t98 141t36.5 194.5q0 87 -25 160.5t-77.5 127.5t-133 84t-189.5 30q-61 0 -132.5 -9.5t-153.5 -30.5l-18 8l108 605h615v-11q0 -5 -4.5 -8.5t-10.5 -3.5h-579l-104 -568 q78 20 147.5 29.5t131.5 9.5q112 0 196 -31.5t141 -87t85.5 -134t28.5 -172.5q0 -113 -38.5 -201t-104 -148.5t-152.5 -92t-182 -31.5q-55 0 -106 9t-96 24t-81.5 34t-64.5 39z" />
<glyph unicode="6" d="M165 440q0 75 43.5 181.5t144.5 244.5l416 561q3 5 6 6t6 1h21l-428 -578q-55 -75 -92.5 -136t-60.5 -116q27 54 69.5 97t95 73.5t113 47t125.5 16.5q97 0 176 -32t134 -88t85.5 -134t30.5 -170q0 -96 -34 -175t-95 -136t-145 -88t-183 -31q-94 0 -172.5 30t-135.5 88.5 t-88.5 143.5t-31.5 194zM189 424q0 -91 29 -168t81.5 -132.5t127.5 -87.5t166 -32q101 0 181.5 31t136 85.5t85 130t29.5 163.5q0 93 -29 167.5t-82 127t-126.5 80.5t-161.5 28q-104 0 -186 -36.5t-137 -93t-84.5 -126t-29.5 -137.5z" />
<glyph unicode="7" d="M144 1423v11h936v-13q0 -6 -4 -14l-712 -1395q-6 -12 -23 -12h-12l714 1397q3 7 9 14h-895q-12 0 -13 12z" />
<glyph unicode="8" d="M143 367q0 90 29.5 157t78.5 113.5t113 73t134 38.5q-72 13 -128.5 44.5t-94.5 76.5t-58 102t-20 122q0 74 27 138.5t77.5 113t124.5 76.5t168 28q93 0 167.5 -28t125 -76.5t77.5 -113.5t27 -138q0 -65 -20.5 -122t-59 -102t-94 -76.5t-127.5 -44.5q70 -11 134 -38 t113 -73.5t78 -113.5t29 -157q0 -89 -33 -160.5t-93 -120.5t-142.5 -75.5t-181.5 -26.5t-181.5 26.5t-142.5 75.5t-93.5 120.5t-33.5 160.5zM168 367q0 -83 31.5 -150t88.5 -114.5t135 -73t171 -25.5t171 25.5t134.5 73t88.5 114.5t32 150q0 75 -20 131t-54 97.5t-77.5 68.5 t-90.5 43.5t-95 23t-89 6.5q-42 0 -89.5 -6.5t-95 -23t-91 -43.5t-77 -68.5t-53.5 -98t-20 -130.5zM221 1094q0 -66 23 -126.5t69.5 -107t116.5 -74.5t164 -28q93 0 163 28t117 74.5t70 107t23 126.5q0 72 -26 133.5t-74 106t-117 70.5t-156 26t-156 -26t-117.5 -70.5 t-74 -106.5t-25.5 -133z" />
<glyph unicode="9" d="M158 1036q0 90 33.5 166t92.5 131.5t139.5 86t174.5 30.5q88 0 163.5 -31t130.5 -88.5t86.5 -138.5t31.5 -180q0 -50 -12.5 -96.5t-35.5 -95t-57 -102t-78 -118.5l-399 -594q-3 -5 -6 -5.5t-6 -0.5h-21l414 610q51 76 90 135t63 119q-26 -54 -67.5 -97.5t-92.5 -74 t-110.5 -47t-122.5 -16.5q-94 0 -170 30.5t-130 85t-82.5 129t-28.5 162.5zM182 1036q0 -89 28.5 -160.5t79 -122t121.5 -77.5t156 -27q99 0 177 35t132 89t81.5 121t27.5 132q0 87 -29 161.5t-81 128t-122.5 84t-154.5 30.5q-91 0 -167.5 -29t-131.5 -80.5t-86 -124.5 t-31 -160z" />
<glyph unicode=":" horiz-adv-x="475" d="M171 0zM171 49q0 28 19 48t47 20t47.5 -20t19.5 -48t-20 -46.5t-47 -18.5q-28 0 -47 18.5t-19 46.5zM171 907q0 28 19 48t47 20t47.5 -20t19.5 -48t-20 -46.5t-47 -18.5q-28 0 -47 18.5t-19 46.5z" />
<glyph unicode=";" horiz-adv-x="494" d="M181 0zM181 907q0 28 19 48t47 20t47.5 -20t19.5 -48t-20 -46.5t-47 -18.5q-28 0 -47 18.5t-19 46.5zM184 -233q0 2 3 7q7 9 24 31t34.5 53t30.5 70t14 83q-17 -19 -47 -19q-25 0 -41 16.5t-16 44.5q0 25 17 44.5t44 19.5q28 0 46 -20.5t18 -59.5q0 -79 -34.5 -152 t-86.5 -129l-3 3q-3 3 -3 8z" />
<glyph unicode="&#x3c;" d="M189 680v12l748 381v-11q0 -12 -19 -22l-659 -333l-24 -12t-24 -9q12 -4 24 -9t24 -11l659 -334q19 -10 19 -22v-11z" />
<glyph unicode="=" d="M184 532v21h820v-21h-820zM184 834v20h820v-20h-820z" />
<glyph unicode="&#x3e;" d="M251 299v11q0 11 19 22l659 334q11 5 23 10.5t24 9.5q-23 5 -47 21l-659 333q-19 9 -19 22v11l747 -381v-12z" />
<glyph unicode="?" horiz-adv-x="858" d="M108 1311q25 26 56 50.5t69 44.5t83.5 32t100.5 12q62 0 121.5 -20t105 -57.5t73 -91t27.5 -122.5q0 -77 -25 -133.5t-63 -99t-82.5 -75.5t-82 -62t-64 -59t-27.5 -66l-6 -177h-16v179q0 40 25 71t63.5 60.5t82.5 61.5t82.5 74t63.5 96t25 130q0 63 -25.5 113.5 t-67.5 85.5t-97 53.5t-113 18.5q-73 0 -126 -20.5t-89.5 -45.5t-56 -45.5t-23.5 -20.5t-8 5zM321 49q0 28 18.5 48t46.5 20t48 -20t20 -48t-20 -46.5t-48 -18.5t-46.5 18.5t-18.5 46.5z" />
<glyph unicode="@" horiz-adv-x="1682" d="M137 545q0 174 59.5 320t161.5 251t237 163t288 58q89 0 173.5 -17.5t159.5 -53t138.5 -89.5t109 -126.5t71.5 -163.5t26 -201q0 -113 -29 -203.5t-78 -154.5t-114 -98.5t-138 -34.5q-53 0 -89 16.5t-56 47t-25.5 73.5t1.5 95q-52 -118 -129 -172t-169 -54q-54 0 -93 19 t-65 51t-38.5 75.5t-12.5 93.5q0 57 15 116t43.5 113t70.5 101t95.5 81.5t118 54.5t139.5 20q42 0 85.5 -8t73.5 -23l-90 -344q-29 -109 -26.5 -175t24 -101.5t56 -47.5t73.5 -12q66 0 126.5 32.5t106.5 93t73.5 148.5t27.5 197q0 161 -53.5 279.5t-144.5 197t-209 116.5 t-248 38q-95 0 -186 -25t-171.5 -73t-147.5 -116.5t-115.5 -154t-75.5 -187.5t-27 -216q0 -186 60.5 -329t163 -240t240 -146t289.5 -49q148 0 279 36.5t247 112.5q6 5 11.5 3.5t7.5 -6.5l6 -11q-118 -79 -254 -118.5t-297 -39.5t-302 51.5t-246.5 151t-166.5 246t-61 338.5 zM551 440q0 -45 11.5 -85t35 -69.5t58.5 -47t83 -17.5q42 0 87 14.5t87 52t78.5 102.5t63.5 165l86 332q-32 8 -60.5 13t-72.5 5q-71 0 -132.5 -19.5t-112 -52.5t-90 -78.5t-66.5 -97.5t-41.5 -107t-14.5 -110z" />
<glyph unicode="A" horiz-adv-x="1304" d="M44 0l598 1434h21l598 -1434h-19q-9 0 -12 10l-200 479h-756l-199 -479q-3 -10 -15 -10h-16zM283 510h739l-353 848q-5 11 -9.5 21t-7.5 21q-4 -11 -7.5 -21t-8.5 -21z" />
<glyph unicode="B" horiz-adv-x="1268" d="M238 0v1434h372q228 0 340.5 -92t112.5 -265q0 -63 -25 -122.5t-68.5 -106.5t-104 -78.5t-131.5 -38.5q91 -7 164.5 -34t125 -72.5t79 -108t27.5 -139.5q0 -91 -31 -162t-91 -118.5t-146.5 -72t-195.5 -24.5h-428zM262 20h404q103 0 185 23t139 67.5t86.5 111.5t29.5 155 q0 78 -31.5 141t-88 107.5t-138 68t-180.5 23.5h-406v-697zM262 737h359q115 0 194.5 32t129.5 81.5t72.5 109.5t22.5 117q0 160 -106 248t-324 88h-348v-676z" />
<glyph unicode="C" horiz-adv-x="1398" d="M139 717q0 164 50 299t140.5 232t217 149.5t278.5 52.5q71 0 133.5 -11t118.5 -32.5t107 -52.5t100 -72l-4 -6q-2 -4 -10 -4q-7 0 -36.5 24.5t-83.5 54t-134.5 54.5t-190.5 25q-145 0 -266.5 -50t-209 -142.5t-136.5 -224.5t-49 -296q0 -167 48.5 -299t134.5 -224.5 t203.5 -141t254.5 -48.5q87 0 155.5 12.5t125.5 36t105.5 57.5t96.5 78q5 6 8 6q4 0 8 -4l9 -8q-45 -44 -97 -80t-113.5 -62.5t-135 -41t-162.5 -14.5q-144 0 -266 50.5t-211 145.5t-139 231t-50 306z" />
<glyph unicode="D" horiz-adv-x="1555" d="M238 0v1434h512q147 0 269 -48.5t209.5 -140.5t136 -225t48.5 -303t-48.5 -303t-136 -225.5t-209.5 -140.5t-269 -48h-512zM262 20h488q141 0 258 46.5t201 135.5t130.5 218.5t46.5 296.5t-46.5 296.5t-130.5 218.5t-201 135t-258 46h-488v-1393z" />
<glyph unicode="E" horiz-adv-x="1192" d="M238 0v1434h837v-23h-813v-672h690v-22h-690v-694h815l-2 -23h-837z" />
<glyph unicode="F" horiz-adv-x="1155" d="M238 0v1434h837v-23h-813v-692h711v-23h-711v-696h-24z" />
<glyph unicode="G" horiz-adv-x="1514" d="M140 717q0 169 49.5 304.5t141.5 231t222.5 146.5t293.5 51q80 0 146.5 -9.5t124 -29.5t108 -51.5t98.5 -73.5l-4 -6q-3 -6 -10 -6q-5 0 -18 11.5t-36.5 28.5t-59.5 37.5t-86 37.5t-115 29t-148 12q-156 0 -282 -49t-215 -141t-137 -224t-48 -299q0 -165 47 -297 t136.5 -224.5t218.5 -142t292 -49.5q76 0 140 10t122 28.5t112 46t109 62.5v445h-321q-5 0 -8.5 3.5t-3.5 6.5v10h356v-475q-53 -36 -109.5 -65t-118.5 -49.5t-131 -31.5t-147 -11q-168 0 -301 50.5t-225.5 145.5t-142.5 231t-50 306z" />
<glyph unicode="H" horiz-adv-x="1531" d="M238 0v1434h24v-695h1008v695h24v-1434h-24v717h-1008v-717h-24z" />
<glyph unicode="I" horiz-adv-x="499" d="M238 0v1434h24v-1434h-24z" />
<glyph unicode="J" horiz-adv-x="834" d="M29 14q0 2 1 3t1 3q2 3 3 7t9 4q10 0 23.5 -4t32.5 -9.5t44.5 -9.5t61.5 -4q87 0 158 28.5t121 86t77 143.5t27 201v971h24v-971q0 -121 -29.5 -210.5t-83.5 -149.5t-129 -89.5t-165 -29.5q-84 0 -176 30z" />
<glyph unicode="K" horiz-adv-x="1251" d="M238 0v1434h24v-693h96q19 0 33.5 1t25 5t20.5 11t22 18l667 641q11 9 18.5 13t18.5 4h13l-697 -668q-18 -16 -30 -23.5t-31 -11.5q18 -3 31.5 -10.5t27.5 -22.5l740 -698h-11q-15 0 -21.5 3t-15.5 11l-704 666q-11 10 -20.5 18.5t-20 13t-26 7t-40.5 2.5h-96v-721h-24z " />
<glyph unicode="L" horiz-adv-x="1024" d="M238 0v1434h24v-1411h731v-23h-755z" />
<glyph unicode="M" horiz-adv-x="1824" d="M238 0v1434h8q9 0 14 -9l651 -1096l12 -22q2 7 11 22l631 1096q5 8 14 9h8v-1434h-20v1370v19l-627 -1092q-7 -10 -14 -10h-6q-7 0 -15 10l-648 1093q1 -5 1 -10v-10v-1370h-20z" />
<glyph unicode="N" horiz-adv-x="1531" d="M238 0v1434h8q9 0 14 -9l1015 -1381q-1 5 -1 10.5v11.5v1368h20v-1434h-6q-6 0 -11 7l-1020 1388q0 -6 0.5 -13t0.5 -12v-1370h-20z" />
<glyph unicode="O" horiz-adv-x="1605" d="M140 717q0 169 49 304.5t136.5 231t208.5 146.5t268 51t269 -50.5t209.5 -146t136 -231t48.5 -305.5t-48.5 -305.5t-136 -230t-209.5 -145t-269 -50.5q-146 0 -267.5 50.5t-209 145t-136.5 230t-49 305.5zM165 717q0 -167 47.5 -298.5t132 -223.5t201.5 -140.5t256 -48.5 q141 0 258.5 48.5t201.5 140.5t130.5 223.5t46.5 298.5t-46.5 299t-130.5 224t-201.5 141t-258.5 49q-139 0 -256 -49t-201.5 -141t-132 -224t-47.5 -299z" />
<glyph unicode="P" horiz-adv-x="1144" d="M238 0v1434h323q234 0 360 -101.5t126 -308.5q0 -89 -35.5 -164.5t-100 -129.5t-153.5 -85t-197 -31h-299v-614h-24zM262 635h299q105 0 190.5 30t145 83t92.5 123.5t33 152.5q0 191 -115 290t-346 99h-299v-778z" />
<glyph unicode="Q" horiz-adv-x="1605" d="M140 717q0 169 49 304.5t136.5 231t208.5 146.5t268 51t269 -50.5t209.5 -146t136 -231t48.5 -305.5q0 -116 -22.5 -216t-65 -181.5t-103.5 -145t-137 -106.5l380 -402h-23q-8 0 -12.5 2.5t-7.5 5.5l-359 382q-69 -35 -147 -52.5t-166 -17.5q-146 0 -267.5 50.5t-209 145 t-136.5 230t-49 305.5zM165 717q0 -167 47.5 -298.5t132 -223.5t201.5 -140.5t256 -48.5q141 0 258.5 48.5t201.5 140.5t130.5 223.5t46.5 298.5t-46.5 299t-130.5 224t-201.5 141t-258.5 49q-139 0 -256 -49t-201.5 -141t-132 -224t-47.5 -299z" />
<glyph unicode="R" horiz-adv-x="1209" d="M238 0v1434h331q224 0 344.5 -87t120.5 -272q0 -87 -33.5 -157t-95 -119t-147 -77t-189.5 -30q10 -4 18.5 -10.5t16.5 -15.5l559 -666h-16q-8 0 -13.5 1.5t-13.5 10.5l-536 643q-8 10 -17 17.5t-19.5 12t-25.5 6t-37 1.5h-223v-692h-24zM262 713h289q105 0 189.5 25 t144.5 71.5t92.5 113.5t32.5 152q0 175 -114 256.5t-327 81.5h-307v-700z" />
<glyph unicode="S" horiz-adv-x="1083" d="M113 170l4 4q3 3 5 4.5t7 1.5q6 0 18 -12.5t32.5 -32.5t49 -42.5t69.5 -42.5t93.5 -33t120.5 -13q99 0 176.5 32t131 85.5t82 125t28.5 152.5q0 68 -21 117t-57 84.5t-83.5 60.5t-102 45t-110.5 37t-110.5 37.5t-102 46.5t-83.5 63.5t-57 89t-21 122.5q0 69 25.5 131.5 t75 111t121.5 77t165 28.5q104 0 185 -34t151 -107l-4 -6q-3 -6 -10 -7q-7 0 -17.5 10t-27 25t-40.5 32t-57.5 32t-77.5 25t-102 10q-88 0 -156 -27.5t-114 -72.5t-70 -104.5t-24 -123.5q0 -83 32 -138.5t84.5 -93t120 -63t137 -48.5t137 -48.5t120 -65t84.5 -97.5t32 -145 q0 -88 -29.5 -164t-86 -133t-138.5 -89.5t-186 -32.5q-73 0 -130 12.5t-105 36.5t-87.5 58.5t-76.5 78.5z" />
<glyph unicode="T" horiz-adv-x="1165" d="M30 1411v23h1106v-23h-539v-1411h-25v1411h-542z" />
<glyph unicode="U" horiz-adv-x="1474" d="M219 532v902h25v-899q0 -110 33.5 -207t97 -169t155 -113.5t207.5 -41.5t207.5 41.5t155 113t97.5 168t34 205.5v902h24v-902q0 -114 -35.5 -214t-103 -174.5t-163.5 -118t-216 -43.5t-215.5 43.5t-163 118t-103.5 175t-36 213.5z" />
<glyph unicode="V" horiz-adv-x="1304" d="M44 1434h18q9 0 13 -11l561 -1347l16 -42q3 11 7.5 21t9.5 21l561 1347q3 10 14 11h17l-598 -1434h-21z" />
<glyph unicode="W" horiz-adv-x="2050" d="M63 1434h19q9 0 12 -11l419 -1338l15 -54q6 31 16 54l466 1338q3 10 14 11h4q9 0 12 -11l466 -1338l16 -54q6 31 15 54l419 1338q3 10 14 11h17l-455 -1434h-21l-477 1376q-6 19 -9 32q-3 -12 -9 -32l-477 -1376h-21z" />
<glyph unicode="X" horiz-adv-x="1229" d="M59 0l539 733l-514 701h22q8 0 12 -6t7 -9l490 -673l10 16l479 657q3 5 7.5 10t10.5 5h23l-513 -698l537 -736h-22q-8 0 -11.5 5.5t-7.5 8.5l-514 709q-1 -5 -8 -14l-506 -695q-5 -5 -8.5 -9.5t-9.5 -4.5h-23z" />
<glyph unicode="Y" horiz-adv-x="1167" d="M37 1434h20q9 0 15 -9l482 -747q8 -13 16 -25t14 -24q5 12 13 24t16 25l483 747q5 8 14 9h20l-534 -825v-609h-25v609z" />
<glyph unicode="Z" horiz-adv-x="1216" d="M85 0v4q0 6 1.5 9.5t4.5 9.5l1000 1388h-990v23h1024v-4q0 -9 -8 -21l-997 -1386h1003v-23h-1038z" />
<glyph unicode="[" horiz-adv-x="591" d="M225 -248v1786h281v-6q0 -12 -14 -12h-244v-1749h244q14 0 14 -13v-6h-281z" />
<glyph unicode="\" horiz-adv-x="860" d="M87 1475h10q14 0 21 -13l655 -1542h-8q-6 0 -13 2t-10 10z" />
<glyph unicode="]" horiz-adv-x="591" d="M86 -242q0 12 14 13h244v1749h-244q-14 0 -14 12v6h281v-1786h-281v6z" />
<glyph unicode="^" d="M213 750l375 684h12l375 -684h-14q-13 0 -21 14l-328 600l-10 20t-8 21q-7 -20 -19 -41l-327 -600q-2 -5 -7 -9.5t-14 -4.5h-14z" />
<glyph unicode="_" horiz-adv-x="907" d="M50 -246h807v-22h-807v22z" />
<glyph unicode="`" horiz-adv-x="819" d="M254 1450h27q17 0 25 -4t18 -19l168 -241h-15q-11 0 -16 8z" />
<glyph unicode="a" horiz-adv-x="968" d="M104 236q0 68 40 121.5t121.5 91t206 59.5t294.5 27v129q0 79 -17.5 141t-51 105t-85 66t-118.5 23q-53 0 -96.5 -11t-77 -27.5t-58.5 -36t-43.5 -36t-30 -27.5t-16.5 -11q-4 0 -10 6l-4 4q74 78 152.5 119t183.5 41q77 0 132.5 -24.5t92.5 -70.5t54.5 -112.5 t17.5 -148.5v-664h-5q-14 0 -14 16l-6 163q-43 -45 -86 -81.5t-91 -61.5t-103.5 -38.5t-123.5 -13.5q-45 0 -91 13.5t-82.5 44t-60.5 78t-24 116.5zM129 236q0 -60 20 -104t52.5 -72t74.5 -42t86 -14q71 0 128.5 16.5t105.5 44t89.5 64t80.5 76.5v309q-323 -10 -480 -80 t-157 -198z" />
<glyph unicode="b" horiz-adv-x="1113" d="M188 0v1475h25v-678q67 102 161.5 162.5t223.5 60.5q92 0 165 -32.5t122.5 -95t75.5 -153.5t26 -209q0 -122 -28.5 -222t-84 -171t-137.5 -110t-189 -39q-112 0 -195.5 44t-140.5 136l-3 -154q0 -5 -2 -9.5t-10 -4.5h-9zM213 200q66 -105 147.5 -148.5t186.5 -43.5 q106 0 184.5 38.5t129.5 107.5t76.5 164.5t25.5 209.5q0 230 -96 350.5t-269 120.5q-127 0 -221.5 -63t-163.5 -172v-564z" />
<glyph unicode="c" horiz-adv-x="955" d="M125 502q0 117 29.5 212.5t86 163t138 105t184.5 37.5q91 0 162.5 -29t122.5 -76l-6 -6q-4 -4 -8 -4q-6 0 -23 15t-49.5 32.5t-81 32t-117.5 14.5q-97 0 -174 -34.5t-130 -99t-81 -157t-28 -206.5q0 -119 28 -210.5t80 -154.5t125.5 -96t163.5 -33q80 0 135 18.5t91 41 t54.5 41t24.5 18.5q4 0 8 -4l4 -4q-15 -23 -44.5 -46t-70.5 -42t-92.5 -31t-109.5 -12q-97 0 -175 34.5t-133 100.5t-84.5 161.5t-29.5 217.5z" />
<glyph unicode="d" horiz-adv-x="1113" d="M126 500q0 109 27.5 204t83 165t138 110.5t191.5 40.5q111 0 194 -44t140 -136v635h25v-1475h-6q-14 0 -15 16l-4 194q-68 -102 -163.5 -162t-209.5 -60q-196 0 -298.5 125.5t-102.5 386.5zM151 500q0 -250 95.5 -371t280.5 -121q112 0 207.5 62.5t165.5 172.5v564 q-67 105 -147.5 148.5t-186.5 43.5q-105 0 -183 -38t-129.5 -106t-77 -159t-25.5 -196z" />
<glyph unicode="e" horiz-adv-x="1055" d="M125 522q0 111 29.5 202.5t86 157t138 102t184.5 36.5q79 0 148.5 -28t121.5 -83.5t81.5 -136t29.5 -184.5q0 -5 -3.5 -7.5t-8.5 -2.5h-780q-2 -14 -2 -27.5v-28.5q0 -125 29.5 -220.5t84 -160.5t132 -99t171.5 -34q84 0 145.5 18.5t102.5 41t62.5 41t25.5 18.5t8 -4 l4 -4q-17 -22 -51.5 -45t-81 -42.5t-101.5 -31.5t-114 -12q-103 0 -185 36t-139 105t-87.5 168t-30.5 225zM153 596h769q0 97 -28 172.5t-76.5 126.5t-114 77.5t-140.5 26.5q-90 0 -162 -29t-124.5 -81.5t-83.5 -127.5t-40 -165z" />
<glyph unicode="f" horiz-adv-x="679" d="M62 952v9h181v153q0 86 20.5 149t56 104t86 61t110.5 20q30 0 61.5 -5.5t53.5 -17.5l-2 -8q-2 -7 -8.5 -6t-19 4.5t-33.5 7.5t-52 4q-53 0 -98.5 -16.5t-79 -54t-52.5 -97.5t-19 -145v-153h358v-21h-358v-940h-24v940l-168 4q-12 0 -13 8z" />
<glyph unicode="g" horiz-adv-x="1028" d="M92 -115q0 86 58.5 148t157.5 96q-57 14 -91.5 45.5t-34.5 89.5q0 20 9 43t24 45t37 42t50 35q-70 41 -107 110.5t-37 160.5q0 71 23.5 130t68 101t107 65.5t141.5 23.5q67 0 121.5 -17.5t97.5 -48.5h244v-4q0 -6 -5.5 -10t-11.5 -4l-201 -4q46 -43 70.5 -101.5 t24.5 -130.5t-24 -130.5t-69 -100.5t-107.5 -65t-139.5 -23q-100 0 -176 38q-26 -14 -47.5 -32.5t-37 -39t-24 -42t-8.5 -41.5q0 -51 31.5 -78t84 -40.5t119 -17t136 -6.5t136 -10.5t119 -28.5t84 -59t31.5 -104q0 -60 -31 -115t-88 -97.5t-137.5 -67.5t-179.5 -25 q-101 0 -179 21.5t-131.5 58.5t-80.5 86t-27 104zM117 -115q0 -52 27.5 -97.5t78 -79.5t123.5 -53.5t164 -19.5q81 0 155.5 21t132 58.5t92 90t34.5 115.5q0 57 -28.5 91.5t-75.5 53.5t-107.5 26t-126 10.5t-130 7t-118.5 13.5q-48 -17 -89 -40t-70 -52.5t-45.5 -65.5 t-16.5 -79zM182 700q0 -67 22 -122t63 -94.5t99.5 -61t131.5 -21.5q75 0 133 21.5t98.5 61t62 95t21.5 121.5q0 67 -22 122.5t-63 94.5t-99.5 60.5t-130.5 21.5q-73 0 -131.5 -21.5t-99.5 -60.5t-63 -94.5t-22 -122.5z" />
<glyph unicode="h" horiz-adv-x="1113" d="M188 0v1475h25v-680q35 51 78.5 92.5t93.5 71t105.5 45.5t113.5 16q167 0 249.5 -99.5t82.5 -277.5v-643h-25v643q0 84 -18.5 150t-56.5 112t-96 70t-136 24q-118 0 -217 -63t-174 -173v-763h-25z" />
<glyph unicode="i" horiz-adv-x="425" d="M156 1376q0 24 16.5 41t40.5 17q22 0 39.5 -17t17.5 -41q0 -22 -18 -38.5t-39 -16.5q-24 0 -40.5 17t-16.5 38zM201 0v1004h24v-1004h-24z" />
<glyph unicode="j" horiz-adv-x="425" d="M-61 -360l4 8q4 8 9 7.5t14 -4.5t23.5 -8.5t35.5 -4.5q87 0 131.5 51.5t44.5 134.5v1180h24v-1180q0 -45 -14 -83t-40.5 -65.5t-63 -43t-82.5 -15.5q-28 0 -48 5.5t-38 17.5zM155 1376q0 24 16.5 41t40.5 17q22 0 39.5 -17t17.5 -41q0 -22 -18 -38.5t-39 -16.5 q-24 0 -40.5 17t-16.5 38z" />
<glyph unicode="k" horiz-adv-x="918" d="M188 0v1475h25v-926h47q9 0 21.5 2t27.5 16l477 420q8 8 16.5 12.5t20.5 4.5h19l-508 -445q-13 -12 -26 -17q14 -4 24.5 -11t19.5 -15l531 -516h-19q-8 0 -14 2t-14 10l-504 490q-18 16 -32.5 22t-45.5 6h-41v-530h-25z" />
<glyph unicode="l" horiz-adv-x="425" d="M201 0v1475h24v-1475h-24z" />
<glyph unicode="m" horiz-adv-x="1616" d="M188 0v1004h7q14 0 14 -17l3 -189q58 101 142 161.5t183 60.5q121 0 189 -75t84 -213q12 73 42.5 127t73.5 90t95.5 53.5t108.5 17.5q71 0 128.5 -24.5t97.5 -72t62 -118.5t22 -162v-643h-25v643q0 173 -74 264.5t-211 91.5q-60 0 -116 -22.5t-99 -67t-68.5 -111 t-25.5 -155.5v-643h-24v643q0 84 -17 150t-50.5 112t-82.5 70t-112 24q-97 0 -179 -61.5t-143 -171.5v-766h-25z" />
<glyph unicode="n" horiz-adv-x="1113" d="M188 0v1004h7q14 0 14 -17l3 -193q35 51 78.5 93t93.5 71.5t105.5 45.5t114.5 16q167 0 249.5 -99.5t82.5 -277.5v-643h-25v643q0 84 -18.5 150t-56.5 112t-96 70t-136 24q-118 0 -217 -63t-174 -173v-763h-25z" />
<glyph unicode="o" horiz-adv-x="1127" d="M125 502q0 117 28.5 212.5t84.5 163t137.5 105t187.5 37.5q105 0 187.5 -37.5t138 -105t84 -163.5t28.5 -212q0 -117 -28.5 -211.5t-84 -162.5t-137.5 -104t-188 -36t-187.5 36t-137.5 104t-84.5 162.5t-28.5 211.5zM150 502q0 -111 26 -202t77.5 -155.5t129 -100.5 t180.5 -36q102 0 180 36t130 100.5t78 155.5t26 202t-26 202.5t-78 157t-129.5 101.5t-180.5 36t-180.5 -36t-129 -101.5t-77.5 -157.5t-26 -202z" />
<glyph unicode="p" horiz-adv-x="1113" d="M188 -369v1373h7q14 0 14 -17l3 -190q68 103 163.5 163t210.5 60q195 0 298 -125.5t103 -386.5q0 -110 -28 -204.5t-83.5 -164.5t-138 -110.5t-190.5 -40.5q-221 0 -334 179v-536h-25zM213 200q66 -105 146.5 -148.5t187.5 -43.5q105 0 183 38.5t129.5 106t77.5 158.5 t26 197q0 250 -96 370.5t-281 120.5q-112 0 -207.5 -62.5t-165.5 -172.5v-564z" />
<glyph unicode="q" horiz-adv-x="1111" d="M126 500q0 109 27.5 204t83 165t138 110.5t191.5 40.5q111 0 194 -44t140 -136l4 147q0 16 15 17h6v-1373h-25v579q-68 -102 -163.5 -162t-209.5 -60q-196 0 -298.5 125.5t-102.5 386.5zM151 500q0 -250 95.5 -371t280.5 -121q112 0 207.5 62.5t165.5 172.5v565 q-61 101 -144 146t-190 45q-105 0 -183 -38t-129.5 -106t-77 -159t-25.5 -196z" />
<glyph unicode="r" horiz-adv-x="704" d="M188 0v1004h7q14 0 14 -17l3 -277q22 74 52 131.5t71.5 97.5t95 60.5t122.5 20.5q30 0 61 -4.5t56 -18.5l-4 -8q-2 -3 -4 -5.5t-7 -2.5t-13 2.5t-20 5.5t-28.5 5.5t-40.5 2.5q-68 0 -120 -21.5t-93 -63.5t-71.5 -105.5t-55.5 -147.5v-659h-25z" />
<glyph unicode="s" horiz-adv-x="857" d="M111 104l6 7q3 3 5 4.5t7 1.5q8 0 26.5 -17.5t52 -39t84.5 -39t125 -17.5t130.5 21.5t95.5 59t59 87t20 107.5t-25.5 96.5t-67 65t-95 44.5t-108.5 34.5t-108.5 34.5t-95 45.5t-67 67.5t-25.5 99q0 50 22.5 95.5t63.5 81t98 56.5t125 21q85 0 149.5 -23t125.5 -75l-4 -7 q-3 -6 -11 -6t-24 14t-46 31t-76 31t-114 14q-63 0 -116 -19t-90.5 -51.5t-58.5 -74.5t-21 -88q0 -54 25.5 -90.5t67 -61.5t94.5 -42.5t108.5 -34.5t108.5 -36t94.5 -47.5t67 -70t25.5 -102.5t-22 -115.5t-64 -94.5t-102.5 -63.5t-138.5 -23.5q-54 0 -97.5 8.5t-79 24 t-67.5 38t-62 49.5z" />
<glyph unicode="t" horiz-adv-x="672" d="M65 950v6l180 5l8 403q0 5 2.5 9.5t7.5 4.5h6v-417h342v-21h-342v-750q0 -51 13 -86t35.5 -57t52 -32.5t63.5 -10.5q43 0 75.5 13.5t55 28.5t36 28.5t20.5 13.5q4 0 8 -4l4 -4q-15 -20 -37.5 -38t-48.5 -31t-55 -20t-58 -7q-88 0 -138 48t-50 158v750h-166q-14 0 -14 10z " />
<glyph unicode="u" horiz-adv-x="1111" d="M177 360v644h25v-644q0 -84 18.5 -150t56.5 -112t95.5 -70t136.5 -24q118 0 216.5 62.5t174.5 173.5v764h25v-1004h-6q-14 0 -15 16l-4 193q-36 -51 -79 -93t-93 -71.5t-105.5 -45t-113.5 -15.5q-168 0 -250 99t-82 277z" />
<glyph unicode="v" horiz-adv-x="1001" d="M55 1004h15q8 0 12 -5t6 -10l399 -919q4 -9 8 -18.5t6 -19.5q5 20 13 38l399 919q7 14 19 15h14l-436 -1004h-18z" />
<glyph unicode="w" horiz-adv-x="1529" d="M67 1004h14q8 0 12 -5t6 -10l308 -919q4 -11 7.5 -21.5t5.5 -21.5q4 20 13 43l320 929q3 10 10 11h6q7 0 10 -11l318 -929q4 -11 7 -20.5t5 -20.5q2 11 6 20t8 21l308 919q7 14 18 15h14l-344 -1004h-10q-9 0 -12 10l-322 934q-6 16 -9 29q-2 -7 -4.5 -14t-4.5 -15 l-326 -934q-3 -10 -10 -10h-10z" />
<glyph unicode="x" horiz-adv-x="909" d="M62 0l375 510l-360 494h22q8 0 12 -6t7 -9l337 -466q2 4 4 7.5t5 8.5l328 450q3 5 7.5 10t10.5 5h23l-362 -491l376 -513h-23q-8 0 -11.5 5.5t-6.5 8.5l-352 486q-1 -5 -9 -15l-342 -471q-5 -5 -8.5 -9.5t-9.5 -4.5h-23z" />
<glyph unicode="y" horiz-adv-x="1002" d="M56 1004h15q8 0 13 -5t7 -10l399 -911q4 -9 8 -18.5t6 -19.5q2 10 5.5 19.5t7.5 18.5l399 911q7 14 19 15h14l-592 -1350q-3 -8 -9 -15.5t-15 -7.5h-15l172 386z" />
<glyph unicode="z" horiz-adv-x="892" d="M74 0v6q0 5 1.5 7t4.5 7l703 963h-674v21h708v-11q0 -3 -1.5 -5t-4.5 -7l-702 -961h677v-20h-712z" />
<glyph unicode="{" horiz-adv-x="593" d="M96 635v20q38 0 70.5 12t56 33.5t36.5 51t13 65.5q0 59 -10.5 115.5t-24 112t-24 112t-10.5 117.5q0 55 18 103t50 84t77.5 56.5t100.5 20.5h57v-8q0 -10 -12 -10h-45q-48 0 -89 -17.5t-71 -50t-47 -77.5t-17 -101q0 -58 11 -115t24 -114t24 -114t11 -114q0 -39 -14 -69 t-36 -51.5t-48.5 -34.5t-51.5 -17q25 -4 51.5 -17t48.5 -34.5t36 -51.5t14 -69q0 -57 -11 -114t-24 -114t-24 -113.5t-11 -115.5q0 -56 17 -101t47 -77.5t70.5 -49.5t89.5 -17h45q12 0 12 -11v-8h-57q-54 0 -100 20.5t-78 56.5t-50 84t-18 103q0 60 10.5 117t24 112.5 t24 111.5t10.5 116q0 35 -13 64.5t-36.5 51t-56 34t-70.5 12.5z" />
<glyph unicode="|" horiz-adv-x="466" d="M223 -370v1908h21v-1908h-21z" />
<glyph unicode="}" horiz-adv-x="593" d="M88 -240q0 10 12 11h45q47 0 88 17t71.5 49.5t47.5 77.5t17 101q0 58 -11 115t-24 114t-24 114t-11 114q0 39 14 68.5t35.5 51t48 34.5t50.5 18q-25 4 -51 17t-47.5 34.5t-35.5 51.5t-14 69q0 57 11 114t24 114t24 113.5t11 115.5q0 56 -17 101t-47.5 77.5t-71 50 t-88.5 17.5h-45q-12 0 -12 10v8h57q54 0 100 -20.5t78 -56.5t50 -84t18 -103q0 -60 -10.5 -117t-24 -112.5t-24 -111.5t-10.5 -116q0 -36 13 -65.5t36.5 -51t56 -33.5t70.5 -12v-20q-38 0 -70.5 -12.5t-56 -34t-36.5 -51t-13 -64.5q0 -60 10.5 -116t24 -111.5t24 -112 t10.5 -117.5q0 -55 -18 -103t-50 -84t-77.5 -56.5t-100.5 -20.5h-57v8z" />
<glyph unicode="~" d="M167 463q0 44 14 85t40.5 72t65.5 49.5t89 18.5q52 0 109.5 -23t114.5 -50.5t113 -50.5t105 -23q43 0 77.5 15.5t59 43.5t38 65t14.5 80h20q0 -45 -14 -85t-40.5 -71.5t-65.5 -50t-89 -18.5q-52 0 -109.5 23t-114.5 51t-113 51t-105 23q-43 0 -77.5 -16t-59 -43.5 t-38 -65t-14.5 -80.5h-20z" />
<glyph unicode="&#xa1;" horiz-adv-x="432" d="M147 954q0 28 19 47t47 19t48 -19t20 -47t-20 -47.5t-48 -19.5t-47 19.5t-19 47.5zM203 203q0 45 0.5 84.5t1 80.5t1.5 88t3 107h16q1 -60 2.5 -107t2 -88t1 -80.5t0.5 -84.5v-572h-28v572z" />
<glyph unicode="&#xa2;" d="M191 502q0 117 33 212.5t94.5 163t151 105t203.5 37.5l8 235q0 16 12 17h10l-9 -253q93 -3 165.5 -32t124.5 -72l-6 -6q-4 -4 -8 -4q-6 0 -23.5 14t-50.5 31t-82.5 32t-119.5 17l-34 -991q86 1 146.5 19.5t99 40.5t58.5 40.5t26 18.5q4 0 8 -4l4 -4q-16 -23 -47.5 -46 t-75.5 -41.5t-99.5 -30.5t-119.5 -13l-8 -246q0 -16 -12 -16h-10l8 263q-102 3 -184.5 38.5t-141 101.5t-90 160t-31.5 213zM216 502q0 -116 30 -206.5t85.5 -153.5t133.5 -97t174 -37l33 991q-108 0 -192.5 -34.5t-142.5 -99t-89.5 -156.5t-31.5 -207z" />
<glyph unicode="&#xa3;" d="M74 664v8q0 6 4.5 9t9.5 3h197v330q0 94 25.5 174t75.5 137.5t125 90t173 32.5q76 0 133 -18.5t99 -49t71 -72t49 -87.5l-10 -2q-10 -3 -18 10q-20 37 -45.5 72.5t-62.5 63.5t-89 45t-127 17q-92 0 -162 -30.5t-117.5 -85.5t-71.5 -131t-24 -166v-330h525v-10 q0 -5 -4 -7.5t-9 -2.5h-512v-367q0 -53 -12 -95.5t-34.5 -76.5t-54.5 -60t-72 -46q20 2 37 3t38 1h903v-11q0 -5 -4 -8.5t-10 -3.5h-1000v23q36 16 69.5 38.5t59 55.5t41 77t15.5 103v367h-211z" />
<glyph unicode="&#xa4;" d="M186 293l162 162q-43 46 -67.5 104.5t-24.5 126.5t24 127t67 106l-161 160l15 15l160 -161q46 43 105.5 68t127.5 25t127.5 -24.5t105.5 -67.5l160 160l14 -15l-159 -159q43 -46 67.5 -106t24.5 -128t-25 -127t-68 -105l160 -161l-14 -14l-161 160q-46 -43 -105 -67 t-127 -24t-126.5 24.5t-105.5 67.5l-161 -161zM276 686q0 -66 25.5 -123.5t68.5 -100.5t100.5 -68t123.5 -25t124 25t101.5 68t68.5 101t25 123q0 66 -25 124t-68.5 101.5t-102 69t-123.5 25.5q-66 0 -123.5 -25.5t-100.5 -69t-68.5 -101.5t-25.5 -124z" />
<glyph unicode="&#xa5;" d="M129 1434h21q9 0 14 -9l416 -768l14 -27q3 8 6.5 13.5t7.5 13.5l416 768q5 8 14 9h21l-446 -811h391v-21h-398v-131h398v-20h-398v-451h-24v451h-398v20h398v131h-398v21h390z" />
<glyph unicode="&#xa6;" horiz-adv-x="473" d="M226 -369v781h21v-781h-21zM226 758v780h21v-780h-21z" />
<glyph unicode="&#xa7;" horiz-adv-x="974" d="M132 745q0 37 11.5 72t36 66t64.5 58.5t98 48.5q-30 18 -54.5 39t-42 46t-27.5 55t-10 66q0 50 22.5 95.5t63.5 81t98 56.5t125 21q85 0 149.5 -23t125.5 -75l-5 -6q-3 -6 -10 -7q-8 0 -24 14t-46 31t-76 31.5t-114 14.5q-63 0 -116 -19.5t-91 -52t-59 -74.5t-21 -88 q0 -54 26.5 -94t69.5 -71.5t97 -56.5t111.5 -50t111.5 -53t97 -64.5t69.5 -84t26.5 -112.5q0 -87 -45 -148t-122 -97q55 -39 90.5 -88.5t35.5 -118.5q0 -61 -22 -115.5t-64 -94.5t-103 -63.5t-139 -23.5q-54 0 -96.5 8.5t-79 24t-67.5 38t-62 50.5l6 6q3 3 5 4.5t7 1.5 q8 0 26.5 -17.5t52 -39t84 -39t124.5 -17.5t130.5 21.5t95.5 59t59 87t20 107.5t-27.5 101t-72.5 77t-103 61t-118.5 52.5t-118 53t-103 62t-73 79t-27.5 103.5zM155 745q0 -50 23.5 -88.5t63 -69.5t91 -56.5t107 -49.5t110.5 -49t102 -55q87 40 125.5 98.5t38.5 132.5 q0 55 -21 97.5t-57 75t-82 57.5t-96.5 48t-101.5 45t-97 48q-114 -45 -160 -103t-46 -131z" />
<glyph unicode="&#xa8;" horiz-adv-x="819" d="M184 1311q0 24 17 40.5t41 16.5q22 0 39.5 -16.5t17.5 -40.5q0 -22 -18 -39t-39 -17q-24 0 -41 17t-17 39zM520 1311q0 24 17 40.5t41 16.5q22 0 39.5 -16.5t17.5 -40.5q0 -22 -18 -39t-39 -17q-24 0 -41 17t-17 39z" />
<glyph unicode="&#xa9;" horiz-adv-x="1738" d="M138 717q0 152 57.5 285t157 232t232.5 156.5t284 57.5q152 0 285 -57.5t232.5 -156.5t157 -232.5t57.5 -284.5q0 -152 -57.5 -285t-157 -232.5t-232.5 -156.5t-285 -57t-284.5 57t-232 156.5t-157 232.5t-57.5 285zM163 717q0 -146 55 -275.5t151 -225t225 -151 t275 -55.5q98 0 188.5 25t169.5 71.5t143.5 111t111 142.5t71.5 168t25 189q0 97 -25 187.5t-71.5 169.5t-111 143.5t-143.5 111t-169.5 71.5t-188.5 25q-97 0 -187.5 -25t-169 -71.5t-143 -111t-110.5 -143.5t-71 -169.5t-25 -187.5zM435 717q0 102 33.5 186t94 144 t145 93.5t186.5 33.5q52 0 94 -7t78.5 -19.5t69 -32.5t65.5 -46l-4 -6q-2 -4 -10 -4q-6 0 -23.5 15t-51.5 32t-87 32t-131 15q-96 0 -176 -30t-137.5 -87t-89 -138t-31.5 -181q0 -102 31.5 -182.5t87.5 -136.5t132.5 -85.5t168.5 -29.5q58 0 103.5 7t83 21t69 34.5 t63.5 47.5q4 2 8 2l13 -10q-31 -27 -65.5 -49.5t-76 -38.5t-90.5 -25.5t-108 -9.5q-97 0 -178.5 32t-140.5 90.5t-92.5 142.5t-33.5 190z" />
<glyph unicode="&#xaa;" horiz-adv-x="753" d="M146 993q0 39 24 71.5t74 56t126.5 37t183.5 16.5v65h23v-381h-9q-8 0 -10 10l-4 90q-53 -52 -109.5 -81t-136.5 -29q-30 0 -58.5 8t-51.5 25.5t-37.5 45t-14.5 66.5zM169 995q0 -34 12.5 -58t32 -39t44.5 -22.5t52 -7.5q42 0 76.5 9.5t63.5 25.5t54.5 37t49.5 43v170 q-197 -6 -291 -46.5t-94 -111.5zM181 1354q45 46 93.5 69t111.5 23q97 0 144 -55t47 -152h-23q0 90 -40 138t-128 48q-48 0 -82 -12.5t-56.5 -28t-35 -28.5t-18.5 -13q-4 0 -9 5z" />
<glyph unicode="&#xab;" horiz-adv-x="756" d="M126 141zM126 520v4l240 379l6 -4q5 -3 6.5 -9t-4.5 -16l-209 -329q-14 -20 -19 -23q6 -4 19 -22l209 -330q6 -9 4.5 -15.5t-6.5 -9.5l-6 -4zM351 520v4l240 379l6 -4q5 -3 6.5 -9t-4.5 -16l-209 -329q-14 -20 -19 -23q6 -4 19 -22l209 -330q6 -9 4.5 -15.5t-6.5 -9.5 l-6 -4z" />
<glyph unicode="&#xac;" d="M187 676v20h822v-327h-23v307h-799z" />
<glyph unicode="&#xae;" horiz-adv-x="1738" d="M138 717q0 152 57.5 285t157 232t232.5 156.5t284 57.5q152 0 285 -57.5t232.5 -156.5t157 -232.5t57.5 -284.5q0 -152 -57.5 -285t-157 -232.5t-232.5 -156.5t-285 -57t-284.5 57t-232 156.5t-157 232.5t-57.5 285zM163 717q0 -146 55 -275.5t151 -225t225 -151 t275 -55.5q98 0 188.5 25t169.5 71.5t143.5 111t111 142.5t71.5 168t25 189q0 97 -25 187.5t-71.5 169.5t-111 143.5t-143.5 111t-169.5 71.5t-188.5 25q-97 0 -187.5 -25t-169 -71.5t-143 -111t-110.5 -143.5t-71 -169.5t-25 -187.5zM624 266v901h217q140 0 216.5 -54.5 t76.5 -170.5q0 -54 -20.5 -97.5t-58.5 -75t-90.5 -49t-115.5 -20.5q9 -4 16.5 -10.5t16.5 -15.5l342 -408h-21q-5 0 -8 1t-8 7l-338 404q-8 9 -20 15.5t-42 6.5h-139v-434h-24zM648 721h180q133 0 207 57.5t74 163.5q0 109 -67 157t-201 48h-193v-426z" />
<glyph unicode="&#xaf;" horiz-adv-x="819" d="M143 1300v21h533v-21h-533z" />
<glyph unicode="&#xb0;" horiz-adv-x="845" d="M136 1167q0 59 22.5 110.5t61 90t90.5 60.5t113 22q59 0 112 -22t91.5 -60.5t61 -89.5t22.5 -111q0 -59 -22.5 -110.5t-61 -90t-91.5 -61t-112 -22.5q-60 0 -112.5 22.5t-91 61t-61 90t-22.5 110.5zM161 1167q0 -54 20.5 -102t55.5 -83.5t83.5 -56t102.5 -20.5t102 20.5 t83.5 56t56 83.5t20.5 102t-20.5 102.5t-56 84t-83.5 56t-102 20.5t-102.5 -20.5t-83.5 -56t-55.5 -84t-20.5 -102.5z" />
<glyph unicode="&#xb1;" d="M122 82v20h944v-20h-944zM122 676v20h461v441h20v-441h463v-20h-463v-443h-20v443h-461z" />
<glyph unicode="&#xb2;" horiz-adv-x="684" d="M112 922v8q0 6 6 12l254 259q32 32 59.5 62t48 60.5t32 64t11.5 71.5q0 44 -15 76t-40 53t-57 31t-66 10q-77 0 -126 -45t-64 -115q-3 -10 -15 -10l-10 2q6 44 24.5 78.5t46 59t64.5 37.5t80 13q38 0 74.5 -11t64.5 -34.5t45 -59t17 -85.5q0 -41 -13 -76.5t-34.5 -68 t-50 -62.5t-60.5 -62l-248 -252q24 4 64 4h352q8 0 8 -8v-12h-452zM112 922z" />
<glyph unicode="&#xb3;" horiz-adv-x="684" d="M105 913zM105 1094l9 4q3 2 9 1.5t9 -9.5q2 -6 10 -31.5t28.5 -53.5t59.5 -50.5t105 -22.5q50 0 88.5 17t63.5 43t38 58.5t13 61.5q0 36 -12.5 67.5t-38.5 54.5t-68.5 35.5t-102.5 12.5v17q96 3 149.5 48.5t53.5 119.5q0 42 -14.5 72.5t-39 50.5t-55.5 29.5t-65 9.5 q-77 0 -126 -45t-64 -115q-3 -10 -13 -10l-12 2q6 44 24.5 78.5t46 59t64.5 37.5t80 13q38 0 74 -10.5t63 -32.5t43.5 -56t16.5 -81q0 -36 -13 -65.5t-34 -52t-49 -37t-59 -20.5q85 -10 130 -59t45 -120q0 -42 -17 -78.5t-47.5 -63.5t-72 -43t-90.5 -16q-63 0 -104.5 18 t-66.5 44.5t-38 58t-21 59.5z" />
<glyph unicode="&#xb4;" horiz-adv-x="819" d="M344 1186l168 241q9 14 17.5 18.5t25.5 4.5h27l-207 -256q-5 -8 -17 -8h-14z" />
<glyph unicode="&#xb5;" horiz-adv-x="1280" d="M221 -356v1360h25v-644q0 -84 18.5 -150t56.5 -112t95.5 -70t136.5 -24q118 0 216.5 61t174.5 172v767h25v-792q0 -52 15 -90t43 -62t65.5 -36t84.5 -12h28v-10q0 -10 -45 -10q-43 0 -81.5 12t-67.5 38.5t-47 67.5t-18 99q-71 -104 -172.5 -164.5t-220.5 -60.5 q-133 0 -209 63t-101 178q1 -51 2 -110t1 -105v-379h-13q-6 0 -9 4t-3 9z" />
<glyph unicode="&#xb6;" horiz-adv-x="1267" d="M84 1102q0 77 30 138.5t87.5 104.5t140.5 66t188 23h666v-23h-235v-1595h-25v1595h-381v-1595h-25v934q-105 0 -188 26.5t-140.5 73.5t-87.5 111.5t-30 140.5z" />
<glyph unicode="&#xb7;" horiz-adv-x="464" d="M171 604q0 27 18 45.5t41 18.5q27 0 45.5 -18.5t18.5 -45.5q0 -24 -18.5 -41.5t-45.5 -17.5q-24 0 -41.5 17.5t-17.5 41.5z" />
<glyph unicode="&#xb8;" horiz-adv-x="819" d="M279 -313l4 4q6 6 10 6t13 -7t25.5 -15.5t40.5 -15.5t60 -7q61 0 96 27t35 75q0 32 -15.5 52.5t-42 33.5t-62 19.5t-76.5 11.5l41 129h18l-36 -112q44 -7 80 -16t61.5 -24.5t40 -37.5t14.5 -54q0 -30 -12 -52t-33.5 -38t-50.5 -24.5t-64 -8.5q-42 0 -83 15t-64 39z" />
<glyph unicode="&#xb9;" horiz-adv-x="684" d="M164 922zM164 1463l205 182h16v-705h166v-18h-363v18h172v641l5 34l-181 -163q-7 -7 -14 0z" />
<glyph unicode="&#xba;" horiz-adv-x="831" d="M142 1145q0 69 18 124t53.5 94.5t86 61t117.5 21.5q66 0 116.5 -21.5t85 -61t52.5 -95t18 -123.5q0 -69 -18 -124t-52.5 -94t-85.5 -60t-116 -21q-67 0 -117.5 21t-86 60t-53.5 94t-18 124zM163 1145q0 -63 16 -115.5t48 -89.5t79.5 -57.5t110.5 -20.5q62 0 109 20.5 t79 57.5t48 89t16 116q0 63 -16 116t-48 90.5t-79 58t-109 20.5q-63 0 -110.5 -20.5t-79.5 -58t-48 -90.5t-16 -116z" />
<glyph unicode="&#xbb;" horiz-adv-x="758" d="M154 141zM155.5 154.5q-1.5 6.5 4.5 15.5l209 330q6 10 10.5 15t7.5 7q-6 3 -18 23l-209 329q-6 9 -4.5 15.5t6.5 9.5l6 4l240 -379v-4l-240 -379l-6 4q-5 3 -6.5 9.5zM380.5 154.5q-1.5 6.5 4.5 15.5l209 330q6 10 10.5 15t7.5 7q-6 3 -18 23l-209 329q-6 9 -4.5 15.5 t6.5 9.5l6 4l240 -379v-4l-240 -379l-6 4q-5 3 -6.5 9.5z" />
<glyph unicode="&#xbc;" horiz-adv-x="1460" d="M121 0zM121 1256l205 182h16v-705h166v-18h-363v18h172v641l5 34l-181 -163q-7 -7 -14 0zM318 0l802 1421q6 12 21 13h12l-803 -1422q-5 -8 -10.5 -10t-11.5 -2h-10zM840 233l368 486h19v-483h145v-11q0 -8 -10 -8h-135v-217h-21v217h-352q-12 0 -12 6zM866 236h340v426 v12.5t2 13.5z" />
<glyph unicode="&#xbd;" horiz-adv-x="1439" d="M125 0zM125 1256l205 182h16v-705h166v-18h-363v18h172v641l5 34l-181 -163q-7 -7 -14 0zM271 0l802 1421q6 12 21 13h12l-803 -1422q-5 -8 -10.5 -10t-11.5 -2h-10zM879 0v8q0 6 6 12l254 259q32 32 59.5 62t48 60.5t32 64t11.5 71.5q0 44 -15 76t-40 53t-57 31t-66 10 q-77 0 -126 -45t-64 -115q-3 -10 -15 -10l-10 2q6 44 24.5 78.5t46 59t64.5 37.5t80 13q38 0 74.5 -11t64.5 -34.5t45 -59t17 -85.5q0 -41 -13 -76.5t-34.5 -68t-50 -62.5t-60.5 -62l-248 -252q24 4 64 4h352q8 0 8 -8v-12h-452z" />
<glyph unicode="&#xbe;" horiz-adv-x="1483" d="M115 887l9 4q3 2 9 1.5t9 -9.5q2 -6 10 -31.5t28.5 -53.5t59.5 -50.5t105 -22.5q50 0 88.5 17t63.5 43t38 58.5t13 61.5q0 36 -12.5 67.5t-38.5 54.5t-68.5 35.5t-102.5 12.5v17q96 3 149.5 48.5t53.5 119.5q0 42 -14.5 72.5t-39 50.5t-55.5 29.5t-65 9.5q-77 0 -126 -45 t-64 -115q-3 -10 -13 -10l-12 2q6 44 24.5 78.5t46 59t64.5 37.5t80 13q38 0 74 -10.5t63 -32.5t43.5 -56t16.5 -81q0 -36 -13 -65.5t-34 -52t-49 -37t-59 -20.5q85 -10 130 -59t45 -120q0 -42 -17 -78.5t-47.5 -63.5t-72 -43t-90.5 -16q-63 0 -104.5 18t-66.5 44.5t-38 58 t-21 59.5zM116 0zM350 0l802 1421q6 12 21 13h12l-803 -1422q-5 -8 -10.5 -10t-11.5 -2h-10zM862 233l368 486h19v-483h145v-11q0 -8 -10 -8h-135v-217h-21v217h-352q-12 0 -12 6zM888 236h340v426v12.5t2 13.5z" />
<glyph unicode="&#xbf;" horiz-adv-x="832" d="M101 -88q0 77 25.5 132t63 95.5t82 70.5t82.5 57t64 55t27 65l7 176h16v-178q0 -40 -25 -69.5t-63.5 -57.5t-82.5 -57t-82.5 -68.5t-63.5 -92.5t-25 -128q0 -63 25.5 -113.5t67.5 -85.5t97 -53t113 -18q72 0 125.5 20.5t90 45t56 45t23.5 20.5t8 -4l6 -9q-25 -27 -56 -51 t-69.5 -44t-84.5 -32t-99 -12q-63 0 -122 20t-104.5 57.5t-73.5 91t-28 122.5zM394 952q0 28 19 48t47 20t47.5 -20t19.5 -48t-20 -46.5t-47 -18.5q-28 0 -47 18.5t-19 46.5z" />
<glyph unicode="&#xc0;" horiz-adv-x="1304" d="M44 0l598 1434h21l598 -1434h-19q-9 0 -12 10l-200 479h-756l-199 -479q-3 -10 -15 -10h-16zM44 0zM283 510h739l-353 848q-5 11 -9.5 21t-7.5 21q-4 -11 -7.5 -21t-8.5 -21zM404 1876h37q17 0 25.5 -2.5t17.5 -11.5l255 -287h-13q-5 0 -9.5 1t-8.5 5z" />
<glyph unicode="&#xc1;" horiz-adv-x="1304" d="M44 0l598 1434h21l598 -1434h-19q-9 0 -12 10l-200 479h-756l-199 -479q-3 -10 -15 -10h-16zM44 0zM283 510h739l-353 848q-5 11 -9.5 21t-7.5 21q-4 -11 -7.5 -21t-8.5 -21zM575 1575l288 287q8 8 16.5 11t26.5 3h36l-337 -295q-4 -4 -8.5 -5t-9.5 -1h-12z" />
<glyph unicode="&#xc2;" horiz-adv-x="1304" d="M44 0l598 1434h21l598 -1434h-19q-9 0 -12 10l-200 479h-756l-199 -479q-3 -10 -15 -10h-16zM44 0zM283 510h739l-353 848q-5 11 -9.5 21t-7.5 21q-4 -11 -7.5 -21t-8.5 -21zM407 1575l237 270h17l237 -270h-20q-5 0 -10 1.5t-11 6.5l-200 229q-2 1 -4 6l-4 -6l-201 -229 q-5 -5 -10.5 -6.5t-10.5 -1.5h-20z" />
<glyph unicode="&#xc3;" horiz-adv-x="1304" d="M44 0l598 1434h21l598 -1434h-19q-9 0 -12 10l-200 479h-756l-199 -479q-3 -10 -15 -10h-16zM44 0zM283 510h739l-353 848q-5 11 -9.5 21t-7.5 21q-4 -11 -7.5 -21t-8.5 -21zM403 1595q0 28 9 53t26 43.5t41.5 30t54.5 11.5q34 0 66 -18.5t63 -41t61 -41t60 -18.5 q51 0 80.5 33.5t31.5 83.5h17q0 -28 -9 -53t-25 -43.5t-40.5 -30t-54.5 -11.5q-33 0 -65.5 18.5t-63 41t-61 41t-60.5 18.5q-25 0 -45.5 -9t-35 -25t-23 -37.5t-9.5 -45.5h-18z" />
<glyph unicode="&#xc4;" horiz-adv-x="1304" d="M44 0l598 1434h21l598 -1434h-19q-9 0 -12 10l-200 479h-756l-199 -479q-3 -10 -15 -10h-16zM44 0zM283 510h739l-353 848q-5 11 -9.5 21t-7.5 21q-4 -11 -7.5 -21t-8.5 -21zM407 1704q0 24 17 40.5t40 16.5q22 0 40 -16.5t18 -40.5q0 -22 -18 -38.5t-40 -16.5 q-24 0 -40.5 16.5t-16.5 38.5zM784 1704q0 24 16.5 40.5t40.5 16.5q22 0 39.5 -16.5t17.5 -40.5q0 -22 -17.5 -38.5t-39.5 -16.5q-24 0 -40.5 16.5t-16.5 38.5z" />
<glyph unicode="&#xc5;" horiz-adv-x="1304" d="M44 0l598 1434h21l598 -1434h-19q-9 0 -12 10l-200 479h-756l-199 -479q-3 -10 -15 -10h-16zM44 0zM283 510h739l-353 848q-5 11 -9.5 21t-7.5 21q-4 -11 -7.5 -21t-8.5 -21zM501 1714q0 32 12 58.5t32.5 46.5t48 31.5t59.5 11.5t59.5 -11.5t48 -31.5t32 -46.5 t11.5 -58.5t-11.5 -58.5t-32 -46.5t-48.5 -31t-59 -11q-32 0 -59.5 11t-48 31t-32.5 46.5t-12 58.5zM524 1714q0 -28 9.5 -51.5t27 -40.5t41 -27t51.5 -10t51 10t40.5 27t27.5 41t10 51q0 28 -10 51.5t-27.5 41t-41 27t-50.5 9.5q-28 0 -51.5 -9.5t-41 -27t-27 -41 t-9.5 -51.5z" />
<glyph unicode="&#xc6;" horiz-adv-x="1894" d="M26 0l823 1434h928v-23h-894l87 -672h684v-22h-681l90 -694h716l-2 -23h-734l-63 489h-644l-277 -481q-4 -8 -13 -8h-20zM347 510h630l-117 901q-5 -14 -10.5 -26t-14.5 -27z" />
<glyph unicode="&#xc7;" horiz-adv-x="1398" d="M139 717q0 164 50 299t140.5 232t217 149.5t278.5 52.5q71 0 133.5 -11t118.5 -32.5t107 -52.5t100 -72l-4 -6q-2 -4 -10 -4q-7 0 -36.5 24.5t-83.5 54t-134.5 54.5t-190.5 25q-145 0 -266.5 -50t-209 -142.5t-136.5 -224.5t-49 -296q0 -167 48.5 -299t134.5 -224.5 t203.5 -141t254.5 -48.5q87 0 155.5 12.5t125.5 36t105.5 57.5t96.5 78q5 5 8 6q4 0 8 -4l9 -8q-45 -43 -95.5 -78.5t-110.5 -62t-131.5 -41.5t-157.5 -16l-31 -96q44 -7 80 -16t61.5 -24.5t40 -37.5t14.5 -54q0 -30 -12 -52t-33.5 -38t-50.5 -24.5t-64 -8.5q-42 0 -83 15 t-64 39l4 4q6 6 10 6t13.5 -7t25.5 -15.5t40.5 -15.5t59.5 -7q61 0 96.5 27t35.5 75q0 32 -15.5 52.5t-42 33.5t-62.5 19.5t-77 11.5l36 113q-143 1 -264.5 52t-209.5 146.5t-137.5 230.5t-49.5 304z" />
<glyph unicode="&#xc8;" horiz-adv-x="1192" d="M238 0v1434h837v-23h-813v-672h690v-22h-690v-694h815l-2 -23h-837zM238 0zM415 1876h37q17 0 25.5 -2.5t17.5 -11.5l255 -287h-13q-5 0 -9.5 1t-8.5 5z" />
<glyph unicode="&#xc9;" horiz-adv-x="1192" d="M238 0v1434h837v-23h-813v-672h690v-22h-690v-694h815l-2 -23h-837zM238 0zM586 1575l288 287q8 8 16.5 11t26.5 3h36l-337 -295q-4 -4 -8.5 -5t-9.5 -1h-12z" />
<glyph unicode="&#xca;" horiz-adv-x="1192" d="M238 0v1434h837v-23h-813v-672h690v-22h-690v-694h815l-2 -23h-837zM238 0zM418 1575l237 270h17l237 -270h-20q-5 0 -10 1.5t-11 6.5l-200 229q-2 1 -4 6l-4 -6l-201 -229q-5 -5 -10.5 -6.5t-10.5 -1.5h-20z" />
<glyph unicode="&#xcb;" horiz-adv-x="1192" d="M238 0v1434h837v-23h-813v-672h690v-22h-690v-694h815l-2 -23h-837zM238 0zM418 1704q0 24 17 40.5t40 16.5q22 0 40 -16.5t18 -40.5q0 -22 -18 -38.5t-40 -16.5q-24 0 -40.5 16.5t-16.5 38.5zM795 1704q0 24 16.5 40.5t40.5 16.5q22 0 39.5 -16.5t17.5 -40.5 q0 -22 -17.5 -38.5t-39.5 -16.5q-24 0 -40.5 16.5t-16.5 38.5z" />
<glyph unicode="&#xcc;" horiz-adv-x="499" d="M3 0zM3 1876h37q17 0 25.5 -2.5t17.5 -11.5l255 -287h-13q-5 0 -9.5 1t-8.5 5zM238 0v1434h24v-1434h-24z" />
<glyph unicode="&#xcd;" horiz-adv-x="499" d="M174 0zM174 1575l288 287q8 8 16.5 11t26.5 3h36l-337 -295q-4 -4 -8.5 -5t-9.5 -1h-12zM238 0v1434h24v-1434h-24z" />
<glyph unicode="&#xce;" horiz-adv-x="499" d="M6 0zM6 1575l237 270h17l237 -270h-20q-5 0 -10 1.5t-11 6.5l-200 229q-2 1 -4 6l-4 -6l-201 -229q-5 -5 -10.5 -6.5t-10.5 -1.5h-20zM238 0v1434h24v-1434h-24z" />
<glyph unicode="&#xcf;" horiz-adv-x="499" d="M6 0zM6 1704q0 24 17 40.5t40 16.5q22 0 40 -16.5t18 -40.5q0 -22 -18 -38.5t-40 -16.5q-24 0 -40.5 16.5t-16.5 38.5zM238 0v1434h24v-1434h-24zM383 1704q0 24 16.5 40.5t40.5 16.5q22 0 39.5 -16.5t17.5 -40.5q0 -22 -17.5 -38.5t-39.5 -16.5q-24 0 -40.5 16.5 t-16.5 38.5z" />
<glyph unicode="&#xd0;" horiz-adv-x="1566" d="M11 719v20h238v695h512q147 0 269 -48.5t209.5 -140.5t136 -225t48.5 -303t-48.5 -303t-136 -225.5t-209.5 -140.5t-269 -48h-512v719h-238zM273 20h488q141 0 258.5 46.5t201.5 135.5t130.5 218.5t46.5 296.5t-46.5 296.5t-130.5 218.5t-201.5 135t-258.5 46h-488v-674 h353v-20h-353v-699z" />
<glyph unicode="&#xd1;" horiz-adv-x="1531" d="M238 0v1434h8q9 0 14 -9l1015 -1381q-1 5 -1 10.5v11.5v1368h20v-1434h-6q-6 0 -11 7l-1020 1388q0 -6 0.5 -13t0.5 -12v-1370h-20zM546 1593q0 28 9 53t26 43.5t41.5 30t54.5 11.5q34 0 66 -18.5t63 -41t61 -41t60 -18.5q51 0 80.5 33.5t31.5 83.5h17q0 -28 -9 -53 t-25 -43.5t-40.5 -30t-54.5 -11.5q-33 0 -65.5 18.5t-63 41t-61 41t-60.5 18.5q-25 0 -45.5 -9t-35 -25t-23 -37.5t-9.5 -45.5h-18z" />
<glyph unicode="&#xd2;" horiz-adv-x="1605" d="M140 0zM140 717q0 169 49 304.5t136.5 231t208.5 146.5t268 51t269 -50.5t209.5 -146t136 -231t48.5 -305.5t-48.5 -305.5t-136 -230t-209.5 -145t-269 -50.5q-146 0 -267.5 50.5t-209 145t-136.5 230t-49 305.5zM165 717q0 -167 47.5 -298.5t132 -223.5t201.5 -140.5 t256 -48.5q141 0 258.5 48.5t201.5 140.5t130.5 223.5t46.5 298.5t-46.5 299t-130.5 224t-201.5 141t-258.5 49q-139 0 -256 -49t-201.5 -141t-132 -224t-47.5 -299zM555 1876h37q17 0 25.5 -2.5t17.5 -11.5l255 -287h-13q-5 0 -9.5 1t-8.5 5z" />
<glyph unicode="&#xd3;" horiz-adv-x="1605" d="M140 0zM140 717q0 169 49 304.5t136.5 231t208.5 146.5t268 51t269 -50.5t209.5 -146t136 -231t48.5 -305.5t-48.5 -305.5t-136 -230t-209.5 -145t-269 -50.5q-146 0 -267.5 50.5t-209 145t-136.5 230t-49 305.5zM165 717q0 -167 47.5 -298.5t132 -223.5t201.5 -140.5 t256 -48.5q141 0 258.5 48.5t201.5 140.5t130.5 223.5t46.5 298.5t-46.5 299t-130.5 224t-201.5 141t-258.5 49q-139 0 -256 -49t-201.5 -141t-132 -224t-47.5 -299zM726 1575l288 287q8 8 16.5 11t26.5 3h36l-337 -295q-4 -4 -8.5 -5t-9.5 -1h-12z" />
<glyph unicode="&#xd4;" horiz-adv-x="1605" d="M140 0zM140 717q0 169 49 304.5t136.5 231t208.5 146.5t268 51t269 -50.5t209.5 -146t136 -231t48.5 -305.5t-48.5 -305.5t-136 -230t-209.5 -145t-269 -50.5q-146 0 -267.5 50.5t-209 145t-136.5 230t-49 305.5zM165 717q0 -167 47.5 -298.5t132 -223.5t201.5 -140.5 t256 -48.5q141 0 258.5 48.5t201.5 140.5t130.5 223.5t46.5 298.5t-46.5 299t-130.5 224t-201.5 141t-258.5 49q-139 0 -256 -49t-201.5 -141t-132 -224t-47.5 -299zM558 1575l237 270h17l237 -270h-20q-5 0 -10 1.5t-11 6.5l-200 229q-2 1 -4 6l-4 -6l-201 -229 q-5 -5 -10.5 -6.5t-10.5 -1.5h-20z" />
<glyph unicode="&#xd5;" horiz-adv-x="1605" d="M140 0zM140 717q0 169 49 304.5t136.5 231t208.5 146.5t268 51t269 -50.5t209.5 -146t136 -231t48.5 -305.5t-48.5 -305.5t-136 -230t-209.5 -145t-269 -50.5q-146 0 -267.5 50.5t-209 145t-136.5 230t-49 305.5zM165 717q0 -167 47.5 -298.5t132 -223.5t201.5 -140.5 t256 -48.5q141 0 258.5 48.5t201.5 140.5t130.5 223.5t46.5 298.5t-46.5 299t-130.5 224t-201.5 141t-258.5 49q-139 0 -256 -49t-201.5 -141t-132 -224t-47.5 -299zM554 1595q0 28 9 53t26 43.5t41.5 30t54.5 11.5q34 0 66 -18.5t63 -41t61 -41t60 -18.5q51 0 80.5 33.5 t31.5 83.5h17q0 -28 -9 -53t-25 -43.5t-40.5 -30t-54.5 -11.5q-33 0 -65.5 18.5t-63 41t-61 41t-60.5 18.5q-25 0 -45.5 -9t-35 -25t-23 -37.5t-9.5 -45.5h-18z" />
<glyph unicode="&#xd6;" horiz-adv-x="1605" d="M140 0zM140 717q0 169 49 304.5t136.5 231t208.5 146.5t268 51t269 -50.5t209.5 -146t136 -231t48.5 -305.5t-48.5 -305.5t-136 -230t-209.5 -145t-269 -50.5q-146 0 -267.5 50.5t-209 145t-136.5 230t-49 305.5zM165 717q0 -167 47.5 -298.5t132 -223.5t201.5 -140.5 t256 -48.5q141 0 258.5 48.5t201.5 140.5t130.5 223.5t46.5 298.5t-46.5 299t-130.5 224t-201.5 141t-258.5 49q-139 0 -256 -49t-201.5 -141t-132 -224t-47.5 -299zM558 1704q0 24 17 40.5t40 16.5q22 0 40 -16.5t18 -40.5q0 -22 -18 -38.5t-40 -16.5q-24 0 -40.5 16.5 t-16.5 38.5zM935 1704q0 24 16.5 40.5t40.5 16.5q22 0 39.5 -16.5t17.5 -40.5q0 -22 -17.5 -38.5t-39.5 -16.5q-24 0 -40.5 16.5t-16.5 38.5z" />
<glyph unicode="&#xd7;" d="M181 287l399 399l-399 397l17 17l397 -399l395 397l17 -17l-397 -395l397 -397l-15 -15l-397 397l-399 -399z" />
<glyph unicode="&#xd8;" horiz-adv-x="1605" d="M140 717q0 169 49 304.5t136.5 231t208.5 146.5t268 51q129 0 238 -39t194 -113l141 189q5 6 9 9t12 3h16l-162 -216q102 -96 158.5 -239t56.5 -327q0 -170 -48.5 -305.5t-136 -230t-209.5 -145t-269 -50.5q-124 0 -230 35.5t-190 105.5l-164 -219q-9 -12 -22 -12h-15 l185 245q-106 95 -166 240t-60 336zM165 717q0 -184 56.5 -324.5t157.5 -232.5l841 1120q-82 74 -187.5 112t-230.5 38q-139 0 -256 -49t-201.5 -141t-132 -224t-47.5 -299zM396 145q81 -69 183.5 -104t222.5 -35q141 0 258.5 48.5t201.5 140.5t130.5 223.5t46.5 298.5 q0 179 -53.5 316.5t-149.5 231.5z" />
<glyph unicode="&#xd9;" horiz-adv-x="1474" d="M219 0zM219 532v902h25v-899q0 -110 33.5 -207t97 -169t155 -113.5t207.5 -41.5t207.5 41.5t155 113t97.5 168t34 205.5v902h24v-902q0 -114 -35.5 -214t-103 -174.5t-163.5 -118t-216 -43.5t-215.5 43.5t-163 118t-103.5 175t-36 213.5zM489 1876h37q17 0 25.5 -2.5 t17.5 -11.5l255 -287h-13q-5 0 -9.5 1t-8.5 5z" />
<glyph unicode="&#xda;" horiz-adv-x="1474" d="M219 0zM219 532v902h25v-899q0 -110 33.5 -207t97 -169t155 -113.5t207.5 -41.5t207.5 41.5t155 113t97.5 168t34 205.5v902h24v-902q0 -114 -35.5 -214t-103 -174.5t-163.5 -118t-216 -43.5t-215.5 43.5t-163 118t-103.5 175t-36 213.5zM660 1575l288 287q8 8 16.5 11 t26.5 3h36l-337 -295q-4 -4 -8.5 -5t-9.5 -1h-12z" />
<glyph unicode="&#xdb;" horiz-adv-x="1474" d="M219 0zM219 532v902h25v-899q0 -110 33.5 -207t97 -169t155 -113.5t207.5 -41.5t207.5 41.5t155 113t97.5 168t34 205.5v902h24v-902q0 -114 -35.5 -214t-103 -174.5t-163.5 -118t-216 -43.5t-215.5 43.5t-163 118t-103.5 175t-36 213.5zM492 1575l237 270h17l237 -270 h-20q-5 0 -10 1.5t-11 6.5l-200 229q-2 1 -4 6l-4 -6l-201 -229q-5 -5 -10.5 -6.5t-10.5 -1.5h-20z" />
<glyph unicode="&#xdc;" horiz-adv-x="1474" d="M219 0zM219 532v902h25v-899q0 -110 33.5 -207t97 -169t155 -113.5t207.5 -41.5t207.5 41.5t155 113t97.5 168t34 205.5v902h24v-902q0 -114 -35.5 -214t-103 -174.5t-163.5 -118t-216 -43.5t-215.5 43.5t-163 118t-103.5 175t-36 213.5zM492 1704q0 24 17 40.5t40 16.5 q22 0 40 -16.5t18 -40.5q0 -22 -18 -38.5t-40 -16.5q-24 0 -40.5 16.5t-16.5 38.5zM869 1704q0 24 16.5 40.5t40.5 16.5q22 0 39.5 -16.5t17.5 -40.5q0 -22 -17.5 -38.5t-39.5 -16.5q-24 0 -40.5 16.5t-16.5 38.5z" />
<glyph unicode="&#xdd;" horiz-adv-x="1167" d="M37 0zM37 1434h20q9 0 15 -9l482 -747q8 -13 16 -25t14 -24q5 12 13 24t16 25l483 747q5 8 14 9h20l-534 -825v-609h-25v609zM506 1575l288 287q8 8 16.5 11t26.5 3h36l-337 -295q-4 -4 -8.5 -5t-9.5 -1h-12z" />
<glyph unicode="&#xde;" horiz-adv-x="1145" d="M238 0v1434h24v-310h299q234 0 360 -101t126 -308q0 -89 -35.5 -164.5t-100 -129.5t-153.5 -85t-197 -31h-299v-305h-24zM262 326h299q105 0 190.5 30t145 83t92.5 123.5t33 152.5q0 191 -115 290t-346 99h-299v-778z" />
<glyph unicode="&#xdf;" horiz-adv-x="1085" d="M188 0v1034q0 101 32.5 178.5t88.5 130t131 79t162 26.5q72 0 131.5 -21.5t102 -58t65.5 -83.5t23 -97q0 -67 -26.5 -115.5t-65 -87.5t-85 -70t-85 -62t-65 -64.5t-26.5 -75.5t18 -69.5t48 -46.5t67.5 -33t77.5 -29t78 -33.5t67.5 -47.5t47.5 -70.5t18 -102.5t-22 -115.5 t-64 -94.5t-103 -63.5t-138 -23.5q-54 0 -97 8.5t-79 24t-67.5 38t-62.5 49.5l7 7q3 3 5 4.5t7 1.5q8 0 26.5 -17.5t51.5 -39t84 -39t125 -17.5t130.5 21.5t95.5 59t59 87t20 107.5q0 59 -18 99t-47.5 67t-67.5 44.5t-78 32.5t-78 29t-67.5 34.5t-47.5 51t-18 76.5 q0 45 26 80t65.5 67t85.5 63t85.5 69t65.5 85.5t26 112.5q0 31 -15.5 72t-50.5 77.5t-93 62t-142 25.5q-76 0 -146 -22t-123.5 -69.5t-86.5 -121.5t-33 -180v-1034h-25z" />
<glyph unicode="&#xe0;" horiz-adv-x="968" d="M104 0zM104 236q0 68 40 121.5t121.5 91t206 59.5t294.5 27v129q0 79 -17.5 141t-51 105t-85 66t-118.5 23q-53 0 -96.5 -11t-77 -27.5t-58.5 -36t-43.5 -36t-30 -27.5t-16.5 -11q-4 0 -10 6l-4 4q74 78 152.5 119t183.5 41q77 0 132.5 -24.5t92.5 -70.5t54.5 -112.5 t17.5 -148.5v-664h-5q-14 0 -14 16l-6 163q-43 -45 -86 -81.5t-91 -61.5t-103.5 -38.5t-123.5 -13.5q-45 0 -91 13.5t-82.5 44t-60.5 78t-24 116.5zM129 236q0 -60 20 -104t52.5 -72t74.5 -42t86 -14q71 0 128.5 16.5t105.5 44t89.5 64t80.5 76.5v309q-323 -10 -480 -80 t-157 -198zM320 1450h27q17 0 25 -4t18 -19l168 -241h-15q-11 0 -16 8z" />
<glyph unicode="&#xe1;" horiz-adv-x="968" d="M104 0zM104 236q0 68 40 121.5t121.5 91t206 59.5t294.5 27v129q0 79 -17.5 141t-51 105t-85 66t-118.5 23q-53 0 -96.5 -11t-77 -27.5t-58.5 -36t-43.5 -36t-30 -27.5t-16.5 -11q-4 0 -10 6l-4 4q74 78 152.5 119t183.5 41q77 0 132.5 -24.5t92.5 -70.5t54.5 -112.5 t17.5 -148.5v-664h-5q-14 0 -14 16l-6 163q-43 -45 -86 -81.5t-91 -61.5t-103.5 -38.5t-123.5 -13.5q-45 0 -91 13.5t-82.5 44t-60.5 78t-24 116.5zM129 236q0 -60 20 -104t52.5 -72t74.5 -42t86 -14q71 0 128.5 16.5t105.5 44t89.5 64t80.5 76.5v309q-323 -10 -480 -80 t-157 -198zM410 1186l168 241q9 14 17.5 18.5t25.5 4.5h27l-207 -256q-5 -8 -17 -8h-14z" />
<glyph unicode="&#xe2;" horiz-adv-x="968" d="M104 0zM104 236q0 68 40 121.5t121.5 91t206 59.5t294.5 27v129q0 79 -17.5 141t-51 105t-85 66t-118.5 23q-53 0 -96.5 -11t-77 -27.5t-58.5 -36t-43.5 -36t-30 -27.5t-16.5 -11q-4 0 -10 6l-4 4q74 78 152.5 119t183.5 41q77 0 132.5 -24.5t92.5 -70.5t54.5 -112.5 t17.5 -148.5v-664h-5q-14 0 -14 16l-6 163q-43 -45 -86 -81.5t-91 -61.5t-103.5 -38.5t-123.5 -13.5q-45 0 -91 13.5t-82.5 44t-60.5 78t-24 116.5zM129 236q0 -60 20 -104t52.5 -72t74.5 -42t86 -14q71 0 128.5 16.5t105.5 44t89.5 64t80.5 76.5v309q-323 -10 -480 -80 t-157 -198zM250 1198l217 236h17l217 -236h-19q-8 0 -16 8l-184 201l-6 6l-7 -6l-184 -201q-3 -3 -7 -5.5t-9 -2.5h-19z" />
<glyph unicode="&#xe3;" horiz-adv-x="968" d="M104 0zM104 236q0 68 40 121.5t121.5 91t206 59.5t294.5 27v129q0 79 -17.5 141t-51 105t-85 66t-118.5 23q-53 0 -96.5 -11t-77 -27.5t-58.5 -36t-43.5 -36t-30 -27.5t-16.5 -11q-4 0 -10 6l-4 4q74 78 152.5 119t183.5 41q77 0 132.5 -24.5t92.5 -70.5t54.5 -112.5 t17.5 -148.5v-664h-5q-14 0 -14 16l-6 163q-43 -45 -86 -81.5t-91 -61.5t-103.5 -38.5t-123.5 -13.5q-45 0 -91 13.5t-82.5 44t-60.5 78t-24 116.5zM129 236q0 -60 20 -104t52.5 -72t74.5 -42t86 -14q71 0 128.5 16.5t105.5 44t89.5 64t80.5 76.5v309q-323 -10 -480 -80 t-157 -198zM246 1253q0 28 8 53t23 43.5t37.5 30t52.5 11.5q34 0 62.5 -18.5t55.5 -41t54 -41t57 -18.5q51 0 76 33.5t27 83.5h16q0 -28 -7 -53t-21.5 -43.5t-37 -30t-53.5 -11.5q-33 0 -61.5 18.5t-56 41t-54.5 41t-57 18.5q-25 0 -43.5 -9t-31.5 -25t-19.5 -37.5 t-7.5 -45.5h-19z" />
<glyph unicode="&#xe4;" horiz-adv-x="968" d="M104 0zM104 236q0 68 40 121.5t121.5 91t206 59.5t294.5 27v129q0 79 -17.5 141t-51 105t-85 66t-118.5 23q-53 0 -96.5 -11t-77 -27.5t-58.5 -36t-43.5 -36t-30 -27.5t-16.5 -11q-4 0 -10 6l-4 4q74 78 152.5 119t183.5 41q77 0 132.5 -24.5t92.5 -70.5t54.5 -112.5 t17.5 -148.5v-664h-5q-14 0 -14 16l-6 163q-43 -45 -86 -81.5t-91 -61.5t-103.5 -38.5t-123.5 -13.5q-45 0 -91 13.5t-82.5 44t-60.5 78t-24 116.5zM129 236q0 -60 20 -104t52.5 -72t74.5 -42t86 -14q71 0 128.5 16.5t105.5 44t89.5 64t80.5 76.5v309q-323 -10 -480 -80 t-157 -198zM250 1311q0 24 17 40.5t41 16.5q22 0 39.5 -16.5t17.5 -40.5q0 -22 -18 -39t-39 -17q-24 0 -41 17t-17 39zM586 1311q0 24 17 40.5t41 16.5q22 0 39.5 -16.5t17.5 -40.5q0 -22 -18 -39t-39 -17q-24 0 -41 17t-17 39z" />
<glyph unicode="&#xe5;" horiz-adv-x="968" d="M104 0zM104 236q0 68 40 121.5t121.5 91t206 59.5t294.5 27v129q0 79 -17.5 141t-51 105t-85 66t-118.5 23q-53 0 -96.5 -11t-77 -27.5t-58.5 -36t-43.5 -36t-30 -27.5t-16.5 -11q-4 0 -10 6l-4 4q74 78 152.5 119t183.5 41q77 0 132.5 -24.5t92.5 -70.5t54.5 -112.5 t17.5 -148.5v-664h-5q-14 0 -14 16l-6 163q-43 -45 -86 -81.5t-91 -61.5t-103.5 -38.5t-123.5 -13.5q-45 0 -91 13.5t-82.5 44t-60.5 78t-24 116.5zM129 236q0 -60 20 -104t52.5 -72t74.5 -42t86 -14q71 0 128.5 16.5t105.5 44t89.5 64t80.5 76.5v309q-323 -10 -480 -80 t-157 -198zM324 1321q0 32 12 58.5t32.5 46.5t48 31t59.5 11t59.5 -11t48 -31t32 -46.5t11.5 -58.5t-11.5 -58.5t-32 -46.5t-48.5 -31t-59 -11q-32 0 -59.5 11t-48 31t-32.5 46.5t-12 58.5zM347 1321q0 -28 9.5 -51.5t27 -41t41 -27t51.5 -9.5t51 9.5t40.5 27t27.5 41 t10 51.5t-10 51.5t-27.5 41t-41 27t-50.5 9.5q-28 0 -51.5 -9.5t-41 -27t-27 -41t-9.5 -51.5z" />
<glyph unicode="&#xe6;" horiz-adv-x="1627" d="M109 256q0 68 39 124.5t120.5 98.5t205.5 67t294 29v89q0 79 -17.5 141t-51 105t-85 66t-118.5 23q-53 0 -96.5 -11t-77 -27.5t-58.5 -36t-43.5 -36t-30 -27.5t-16.5 -11q-4 0 -10 6l-4 4q74 78 152.5 119t183.5 41q72 0 126 -24t90.5 -68.5t54.5 -108.5t19 -144 q15 79 48 142.5t81.5 108.5t110.5 69.5t139 24.5q72 0 135 -28.5t110 -85.5t74 -142t27 -197q0 -10 -10 -10h-709q-1 -8 -1 -17.5v-17.5q0 -125 27 -220.5t76.5 -160.5t119.5 -99t155 -34q75 0 130 18.5t91.5 41t56.5 41t26 18.5q4 0 8 -4l4 -4q-15 -22 -46.5 -45 t-73.5 -42.5t-92 -31.5t-104 -12q-156 0 -254 95.5t-130 272.5q-3 -71 -22.5 -126t-50 -96.5t-69.5 -70t-81 -46.5t-84 -25.5t-79 -7.5q-58 0 -110.5 13.5t-92.5 46t-63.5 84.5t-23.5 128zM133 256q0 -68 20.5 -115.5t56 -78t84 -44.5t105.5 -14q76 0 143 26t117.5 75.5 t79.5 118.5t29 155v176q-162 -5 -281 -28t-197.5 -62t-117.5 -91.5t-39 -117.5zM792 575h699q0 105 -25.5 185t-69.5 133t-103 79.5t-126 26.5q-84 0 -151 -30.5t-114.5 -86.5t-75.5 -133.5t-34 -173.5z" />
<glyph unicode="&#xe7;" horiz-adv-x="955" d="M125 502q0 117 29.5 212.5t86 163t138 105t184.5 37.5q91 0 162.5 -29t122.5 -76l-6 -6q-4 -4 -8 -4q-6 0 -23 15t-49.5 32.5t-81 32t-117.5 14.5q-97 0 -174 -34.5t-130 -99t-81 -157t-28 -206.5q0 -119 28 -210.5t80 -154.5t125.5 -96t163.5 -33q80 0 135 18.5t91 41 t54.5 41t24.5 18.5q4 0 8 -4l4 -4q-14 -22 -41.5 -44t-66 -40.5t-85.5 -31t-102 -14.5l-31 -101q44 -7 79.5 -16t61.5 -24.5t40 -37.5t14 -54q0 -30 -11.5 -52t-33 -38t-51 -24.5t-64.5 -8.5q-42 0 -82.5 15t-64.5 39l4 4q6 6 10 6t13.5 -7t26 -15.5t40.5 -15.5t60 -7 q61 0 96 27t35 75q0 32 -15.5 52.5t-42 33.5t-62.5 19.5t-77 11.5l37 117h-4q-97 0 -175 34.5t-133 100.5t-84.5 161.5t-29.5 217.5z" />
<glyph unicode="&#xe8;" horiz-adv-x="1055" d="M125 0zM125 522q0 111 29.5 202.5t86 157t138 102t184.5 36.5q79 0 148.5 -28t121.5 -83.5t81.5 -136t29.5 -184.5q0 -5 -3.5 -7.5t-8.5 -2.5h-780q-2 -14 -2 -27.5v-28.5q0 -125 29.5 -220.5t84 -160.5t132 -99t171.5 -34q84 0 145.5 18.5t102.5 41t62.5 41t25.5 18.5 t8 -4l4 -4q-17 -22 -51.5 -45t-81 -42.5t-101.5 -31.5t-114 -12q-103 0 -185 36t-139 105t-87.5 168t-30.5 225zM153 596h769q0 97 -28 172.5t-76.5 126.5t-114 77.5t-140.5 26.5q-90 0 -162 -29t-124.5 -81.5t-83.5 -127.5t-40 -165zM406 1450h27q17 0 25 -4t18 -19 l168 -241h-15q-11 0 -16 8z" />
<glyph unicode="&#xe9;" horiz-adv-x="1055" d="M125 0zM125 522q0 111 29.5 202.5t86 157t138 102t184.5 36.5q79 0 148.5 -28t121.5 -83.5t81.5 -136t29.5 -184.5q0 -5 -3.5 -7.5t-8.5 -2.5h-780q-2 -14 -2 -27.5v-28.5q0 -125 29.5 -220.5t84 -160.5t132 -99t171.5 -34q84 0 145.5 18.5t102.5 41t62.5 41t25.5 18.5 t8 -4l4 -4q-17 -22 -51.5 -45t-81 -42.5t-101.5 -31.5t-114 -12q-103 0 -185 36t-139 105t-87.5 168t-30.5 225zM153 596h769q0 97 -28 172.5t-76.5 126.5t-114 77.5t-140.5 26.5q-90 0 -162 -29t-124.5 -81.5t-83.5 -127.5t-40 -165zM496 1186l168 241q9 14 17.5 18.5 t25.5 4.5h27l-207 -256q-5 -8 -17 -8h-14z" />
<glyph unicode="&#xea;" horiz-adv-x="1055" d="M125 0zM125 522q0 111 29.5 202.5t86 157t138 102t184.5 36.5q79 0 148.5 -28t121.5 -83.5t81.5 -136t29.5 -184.5q0 -5 -3.5 -7.5t-8.5 -2.5h-780q-2 -14 -2 -27.5v-28.5q0 -125 29.5 -220.5t84 -160.5t132 -99t171.5 -34q84 0 145.5 18.5t102.5 41t62.5 41t25.5 18.5 t8 -4l4 -4q-17 -22 -51.5 -45t-81 -42.5t-101.5 -31.5t-114 -12q-103 0 -185 36t-139 105t-87.5 168t-30.5 225zM153 596h769q0 97 -28 172.5t-76.5 126.5t-114 77.5t-140.5 26.5q-90 0 -162 -29t-124.5 -81.5t-83.5 -127.5t-40 -165zM336 1198l217 236h17l217 -236h-19 q-8 0 -16 8l-184 201l-6 6l-7 -6l-184 -201q-3 -3 -7 -5.5t-9 -2.5h-19z" />
<glyph unicode="&#xeb;" horiz-adv-x="1055" d="M125 0zM125 522q0 111 29.5 202.5t86 157t138 102t184.5 36.5q79 0 148.5 -28t121.5 -83.5t81.5 -136t29.5 -184.5q0 -5 -3.5 -7.5t-8.5 -2.5h-780q-2 -14 -2 -27.5v-28.5q0 -125 29.5 -220.5t84 -160.5t132 -99t171.5 -34q84 0 145.5 18.5t102.5 41t62.5 41t25.5 18.5 t8 -4l4 -4q-17 -22 -51.5 -45t-81 -42.5t-101.5 -31.5t-114 -12q-103 0 -185 36t-139 105t-87.5 168t-30.5 225zM153 596h769q0 97 -28 172.5t-76.5 126.5t-114 77.5t-140.5 26.5q-90 0 -162 -29t-124.5 -81.5t-83.5 -127.5t-40 -165zM336 1311q0 24 17 40.5t41 16.5 q22 0 39.5 -16.5t17.5 -40.5q0 -22 -18 -39t-39 -17q-24 0 -41 17t-17 39zM672 1311q0 24 17 40.5t41 16.5q22 0 39.5 -16.5t17.5 -40.5q0 -22 -18 -39t-39 -17q-24 0 -41 17t-17 39z" />
<glyph unicode="&#xec;" horiz-adv-x="425" d="M57 0zM57 1450h27q17 0 25 -4t18 -19l168 -241h-15q-11 0 -16 8zM201 0v1004h24v-1004h-24z" />
<glyph unicode="&#xed;" horiz-adv-x="425" d="M147 0zM147 1186l168 241q9 14 17.5 18.5t25.5 4.5h27l-207 -256q-5 -8 -17 -8h-14zM201 0v1004h24v-1004h-24z" />
<glyph unicode="&#xee;" horiz-adv-x="425" d="M-13 1198l217 236h17l217 -236h-19q-8 0 -16 8l-184 201l-6 6l-7 -6l-184 -201q-3 -3 -7 -5.5t-9 -2.5h-19zM0 0zM201 0v1004h24v-1004h-24z" />
<glyph unicode="&#xef;" horiz-adv-x="425" d="M28 1311q0 24 17 40.5t41 16.5q22 0 39.5 -16.5t17.5 -40.5q0 -22 -18 -39t-39 -17q-24 0 -41 17t-17 39zM29 0zM201 0v1004h24v-1004h-24zM282 1311q0 24 17 40.5t41 16.5q22 0 39.5 -16.5t17.5 -40.5q0 -22 -18 -39t-39 -17q-24 0 -41 17t-17 39z" />
<glyph unicode="&#xf0;" horiz-adv-x="1138" d="M127 457q0 100 28 188t83.5 153t136.5 102.5t186 37.5q56 0 117.5 -17.5t118.5 -55t104 -97t74 -145.5q-2 119 -24.5 216t-62 175.5t-94 137.5t-118.5 103l-150 -159l-4 4q-5 3 -6 8t4 10l140 149q-74 46 -154.5 74.5t-165.5 42.5q-3 0 -8.5 3.5t-3.5 9.5l2 8 q88 -14 175.5 -43.5t167.5 -81.5l140 152l4 -5q3 -5 3 -9.5t-6 -11.5l-125 -137q66 -45 121 -106t96 -142.5t64 -184t23 -228.5q0 -137 -26.5 -250.5t-81 -195t-137.5 -127t-197 -45.5q-87 0 -164 32.5t-134.5 93t-91.5 147t-34 194.5zM152 457q0 -105 32 -188.5 t87.5 -140.5t127.5 -87.5t152 -30.5q103 0 180.5 42t129.5 116.5t80 178t31 225.5q-14 59 -46.5 120.5t-83 111.5t-121 82t-160.5 32q-101 0 -178 -35.5t-128 -97.5t-77 -146.5t-26 -181.5z" />
<glyph unicode="&#xf1;" horiz-adv-x="1113" d="M188 0v1004h7q14 0 14 -17l3 -193q35 51 78.5 93t93.5 71.5t105.5 45.5t114.5 16q167 0 249.5 -99.5t82.5 -277.5v-643h-25v643q0 84 -18.5 150t-56.5 112t-96 70t-136 24q-118 0 -217 -63t-174 -173v-763h-25zM188 0zM325 1253q0 28 8 53t23 43.5t37.5 30t52.5 11.5 q34 0 62.5 -18.5t55.5 -41t54 -41t57 -18.5q51 0 76 33.5t27 83.5h16q0 -28 -7 -53t-21.5 -43.5t-37 -30t-53.5 -11.5q-33 0 -61.5 18.5t-56 41t-54.5 41t-57 18.5q-25 0 -43.5 -9t-31.5 -25t-19.5 -37.5t-7.5 -45.5h-19z" />
<glyph unicode="&#xf2;" horiz-adv-x="1127" d="M125 0zM125 502q0 117 28.5 212.5t84.5 163t137.5 105t187.5 37.5q105 0 187.5 -37.5t138 -105t84 -163.5t28.5 -212q0 -117 -28.5 -211.5t-84 -162.5t-137.5 -104t-188 -36t-187.5 36t-137.5 104t-84.5 162.5t-28.5 211.5zM150 502q0 -111 26 -202t77.5 -155.5 t129 -100.5t180.5 -36q102 0 180 36t130 100.5t78 155.5t26 202t-26 202.5t-78 157t-129.5 101.5t-180.5 36t-180.5 -36t-129 -101.5t-77.5 -157.5t-26 -202zM410 1450h27q17 0 25 -4t18 -19l168 -241h-15q-11 0 -16 8z" />
<glyph unicode="&#xf3;" horiz-adv-x="1127" d="M125 0zM125 502q0 117 28.5 212.5t84.5 163t137.5 105t187.5 37.5q105 0 187.5 -37.5t138 -105t84 -163.5t28.5 -212q0 -117 -28.5 -211.5t-84 -162.5t-137.5 -104t-188 -36t-187.5 36t-137.5 104t-84.5 162.5t-28.5 211.5zM150 502q0 -111 26 -202t77.5 -155.5 t129 -100.5t180.5 -36q102 0 180 36t130 100.5t78 155.5t26 202t-26 202.5t-78 157t-129.5 101.5t-180.5 36t-180.5 -36t-129 -101.5t-77.5 -157.5t-26 -202zM500 1186l168 241q9 14 17.5 18.5t25.5 4.5h27l-207 -256q-5 -8 -17 -8h-14z" />
<glyph unicode="&#xf4;" horiz-adv-x="1127" d="M125 0zM125 502q0 117 28.5 212.5t84.5 163t137.5 105t187.5 37.5q105 0 187.5 -37.5t138 -105t84 -163.5t28.5 -212q0 -117 -28.5 -211.5t-84 -162.5t-137.5 -104t-188 -36t-187.5 36t-137.5 104t-84.5 162.5t-28.5 211.5zM150 502q0 -111 26 -202t77.5 -155.5 t129 -100.5t180.5 -36q102 0 180 36t130 100.5t78 155.5t26 202t-26 202.5t-78 157t-129.5 101.5t-180.5 36t-180.5 -36t-129 -101.5t-77.5 -157.5t-26 -202zM340 1198l217 236h17l217 -236h-19q-8 0 -16 8l-184 201l-6 6l-7 -6l-184 -201q-3 -3 -7 -5.5t-9 -2.5h-19z" />
<glyph unicode="&#xf5;" horiz-adv-x="1127" d="M125 0zM125 502q0 117 28.5 212.5t84.5 163t137.5 105t187.5 37.5q105 0 187.5 -37.5t138 -105t84 -163.5t28.5 -212q0 -117 -28.5 -211.5t-84 -162.5t-137.5 -104t-188 -36t-187.5 36t-137.5 104t-84.5 162.5t-28.5 211.5zM150 502q0 -111 26 -202t77.5 -155.5 t129 -100.5t180.5 -36q102 0 180 36t130 100.5t78 155.5t26 202t-26 202.5t-78 157t-129.5 101.5t-180.5 36t-180.5 -36t-129 -101.5t-77.5 -157.5t-26 -202zM336 1253q0 28 8 53t23 43.5t37.5 30t52.5 11.5q34 0 62.5 -18.5t55.5 -41t54 -41t57 -18.5q51 0 76 33.5t27 83.5 h16q0 -28 -7 -53t-21.5 -43.5t-37 -30t-53.5 -11.5q-33 0 -61.5 18.5t-56 41t-54.5 41t-57 18.5q-25 0 -43.5 -9t-31.5 -25t-19.5 -37.5t-7.5 -45.5h-19z" />
<glyph unicode="&#xf6;" horiz-adv-x="1127" d="M125 0zM125 502q0 117 28.5 212.5t84.5 163t137.5 105t187.5 37.5q105 0 187.5 -37.5t138 -105t84 -163.5t28.5 -212q0 -117 -28.5 -211.5t-84 -162.5t-137.5 -104t-188 -36t-187.5 36t-137.5 104t-84.5 162.5t-28.5 211.5zM150 502q0 -111 26 -202t77.5 -155.5 t129 -100.5t180.5 -36q102 0 180 36t130 100.5t78 155.5t26 202t-26 202.5t-78 157t-129.5 101.5t-180.5 36t-180.5 -36t-129 -101.5t-77.5 -157.5t-26 -202zM340 1311q0 24 17 40.5t41 16.5q22 0 39.5 -16.5t17.5 -40.5q0 -22 -18 -39t-39 -17q-24 0 -41 17t-17 39z M676 1311q0 24 17 40.5t41 16.5q22 0 39.5 -16.5t17.5 -40.5q0 -22 -18 -39t-39 -17q-24 0 -41 17t-17 39z" />
<glyph unicode="&#xf7;" d="M121 676v20h944v-20h-944zM526 319q0 28 19 48t47 20t47.5 -20t19.5 -48t-19.5 -46.5t-47.5 -18.5t-47 18.5t-19 46.5zM526 1049q0 28 19 47.5t47 19.5t47.5 -20t19.5 -47q0 -28 -19.5 -47t-47.5 -19t-47 19t-19 47z" />
<glyph unicode="&#xf8;" horiz-adv-x="1124" d="M125 502q0 117 28.5 212.5t84.5 163t137.5 105t187.5 37.5q97 0 173 -31t131 -89l108 144q5 6 8.5 9.5t11.5 3.5h17l-129 -173q58 -69 88 -165t30 -217q0 -117 -28.5 -211.5t-84 -162.5t-137.5 -104t-188 -36q-171 0 -280 94l-109 -145q-9 -12 -22 -13h-15l129 173 q-70 68 -105.5 170.5t-35.5 234.5zM150 502q0 -125 32.5 -223.5t97.5 -163.5l574 768q-52 55 -124.5 85.5t-166.5 30.5q-103 0 -180.5 -36t-129 -101.5t-77.5 -157t-26 -202.5zM296 99q50 -45 116.5 -68t150.5 -23q102 0 180 36t130 100.5t78 155.5t26 202q0 113 -27 205.5 t-82 157.5z" />
<glyph unicode="&#xf9;" horiz-adv-x="1111" d="M177 0zM177 360v644h25v-644q0 -84 18.5 -150t56.5 -112t95.5 -70t136.5 -24q118 0 216.5 62.5t174.5 173.5v764h25v-1004h-6q-14 0 -15 16l-4 193q-36 -51 -79 -93t-93 -71.5t-105.5 -45t-113.5 -15.5q-168 0 -250 99t-82 277zM402 1450h27q17 0 25 -4t18 -19l168 -241 h-15q-11 0 -16 8z" />
<glyph unicode="&#xfa;" horiz-adv-x="1111" d="M177 0zM177 360v644h25v-644q0 -84 18.5 -150t56.5 -112t95.5 -70t136.5 -24q118 0 216.5 62.5t174.5 173.5v764h25v-1004h-6q-14 0 -15 16l-4 193q-36 -51 -79 -93t-93 -71.5t-105.5 -45t-113.5 -15.5q-168 0 -250 99t-82 277zM492 1186l168 241q9 14 17.5 18.5 t25.5 4.5h27l-207 -256q-5 -8 -17 -8h-14z" />
<glyph unicode="&#xfb;" horiz-adv-x="1111" d="M177 0zM177 360v644h25v-644q0 -84 18.5 -150t56.5 -112t95.5 -70t136.5 -24q118 0 216.5 62.5t174.5 173.5v764h25v-1004h-6q-14 0 -15 16l-4 193q-36 -51 -79 -93t-93 -71.5t-105.5 -45t-113.5 -15.5q-168 0 -250 99t-82 277zM332 1198l217 236h17l217 -236h-19 q-8 0 -16 8l-184 201l-6 6l-7 -6l-184 -201q-3 -3 -7 -5.5t-9 -2.5h-19z" />
<glyph unicode="&#xfc;" horiz-adv-x="1111" d="M177 0zM177 360v644h25v-644q0 -84 18.5 -150t56.5 -112t95.5 -70t136.5 -24q118 0 216.5 62.5t174.5 173.5v764h25v-1004h-6q-14 0 -15 16l-4 193q-36 -51 -79 -93t-93 -71.5t-105.5 -45t-113.5 -15.5q-168 0 -250 99t-82 277zM332 1311q0 24 17 40.5t41 16.5 q22 0 39.5 -16.5t17.5 -40.5q0 -22 -18 -39t-39 -17q-24 0 -41 17t-17 39zM668 1311q0 24 17 40.5t41 16.5q22 0 39.5 -16.5t17.5 -40.5q0 -22 -18 -39t-39 -17q-24 0 -41 17t-17 39z" />
<glyph unicode="&#xfd;" horiz-adv-x="1002" d="M56 0zM56 1004h15q8 0 13 -5t7 -10l399 -911q4 -9 8 -18.5t6 -19.5q2 10 5.5 19.5t7.5 18.5l399 911q7 14 19 15h14l-592 -1350q-3 -8 -9 -15.5t-15 -7.5h-15l172 386zM466 1186l168 241q9 14 17.5 18.5t25.5 4.5h27l-207 -256q-5 -8 -17 -8h-14z" />
<glyph unicode="&#xfe;" horiz-adv-x="1113" d="M188 -369v1844h25v-678q68 102 163.5 162.5t209.5 60.5q195 0 298 -125.5t103 -386.5q0 -110 -28 -204.5t-83.5 -164.5t-138 -110.5t-190.5 -40.5q-221 0 -334 179v-536h-25zM213 200q66 -105 146.5 -148.5t187.5 -43.5q105 0 183 38.5t129.5 106t77.5 158.5t26 197 q0 250 -96 370.5t-281 120.5q-112 0 -207.5 -62.5t-165.5 -172.5v-564z" />
<glyph unicode="&#xff;" horiz-adv-x="1002" d="M56 0zM56 1004h15q8 0 13 -5t7 -10l399 -911q4 -9 8 -18.5t6 -19.5q2 10 5.5 19.5t7.5 18.5l399 911q7 14 19 15h14l-592 -1350q-3 -8 -9 -15.5t-15 -7.5h-15l172 386zM306 1311q0 24 17 40.5t41 16.5q22 0 39.5 -16.5t17.5 -40.5q0 -22 -18 -39t-39 -17q-24 0 -41 17 t-17 39zM642 1311q0 24 17 40.5t41 16.5q22 0 39.5 -16.5t17.5 -40.5q0 -22 -18 -39t-39 -17q-24 0 -41 17t-17 39z" />
<glyph unicode="&#x100;" horiz-adv-x="1304" d="M44 0l598 1434h21l598 -1434h-19q-9 0 -12 10l-200 479h-756l-199 -479q-3 -10 -15 -10h-16zM44 0zM283 510h739l-353 848q-5 11 -9.5 21t-7.5 21q-4 -11 -7.5 -21t-8.5 -21zM417 1671v21h471v-21h-471z" />
<glyph unicode="&#x101;" horiz-adv-x="968" d="M104 0zM104 236q0 68 40 121.5t121.5 91t206 59.5t294.5 27v129q0 79 -17.5 141t-51 105t-85 66t-118.5 23q-53 0 -96.5 -11t-77 -27.5t-58.5 -36t-43.5 -36t-30 -27.5t-16.5 -11q-4 0 -10 6l-4 4q74 78 152.5 119t183.5 41q77 0 132.5 -24.5t92.5 -70.5t54.5 -112.5 t17.5 -148.5v-664h-5q-14 0 -14 16l-6 163q-43 -45 -86 -81.5t-91 -61.5t-103.5 -38.5t-123.5 -13.5q-45 0 -91 13.5t-82.5 44t-60.5 78t-24 116.5zM129 236q0 -60 20 -104t52.5 -72t74.5 -42t86 -14q71 0 128.5 16.5t105.5 44t89.5 64t80.5 76.5v309q-323 -10 -480 -80 t-157 -198zM209 1300v21h533v-21h-533z" />
<glyph unicode="&#x102;" horiz-adv-x="1304" d="M44 0l598 1434h21l598 -1434h-19q-9 0 -12 10l-200 479h-756l-199 -479q-3 -10 -15 -10h-16zM44 0zM283 510h739l-353 848q-5 11 -9.5 21t-7.5 21q-4 -11 -7.5 -21t-8.5 -21zM416 1826h23q0 -54 11 -96t36 -71.5t66 -45t100 -15.5q58 0 99 15.5t66 45t36.5 71.5t11.5 96 h22q0 -125 -54.5 -186.5t-180.5 -61.5t-181 61.5t-55 186.5z" />
<glyph unicode="&#x103;" horiz-adv-x="968" d="M104 0zM104 236q0 68 40 121.5t121.5 91t206 59.5t294.5 27v129q0 79 -17.5 141t-51 105t-85 66t-118.5 23q-53 0 -96.5 -11t-77 -27.5t-58.5 -36t-43.5 -36t-30 -27.5t-16.5 -11q-4 0 -10 6l-4 4q74 78 152.5 119t183.5 41q77 0 132.5 -24.5t92.5 -70.5t54.5 -112.5 t17.5 -148.5v-664h-5q-14 0 -14 16l-6 163q-43 -45 -86 -81.5t-91 -61.5t-103.5 -38.5t-123.5 -13.5q-45 0 -91 13.5t-82.5 44t-60.5 78t-24 116.5zM129 236q0 -60 20 -104t52.5 -72t74.5 -42t86 -14q71 0 128.5 16.5t105.5 44t89.5 64t80.5 76.5v309q-323 -10 -480 -80 t-157 -198zM261 1434h20q0 -42 10.5 -80.5t33.5 -68t59.5 -47t91.5 -17.5q53 0 90.5 17.5t60.5 47t33 68t10 80.5h21q0 -48 -12 -90t-38 -74.5t-67 -51t-98 -18.5t-98.5 18.5t-67.5 51t-37.5 74t-11.5 90.5z" />
<glyph unicode="&#x104;" horiz-adv-x="1304" d="M44 0l598 1434h21l598 -1434q-20 -11 -46.5 -30t-49.5 -44.5t-38.5 -57.5t-15.5 -69q0 -57 39.5 -89t97.5 -32q33 0 56 7.5t38.5 15.5t24.5 15.5t14 7.5q4 0 9 -5l6 -6q-27 -27 -67 -41t-83 -14q-68 0 -112.5 36t-44.5 105q0 34 13 65t34 57t46.5 47t49.5 36q-2 4 -2 6 l-200 479h-756l-199 -479q-3 -10 -15 -10h-16zM283 510h739l-353 848q-5 11 -9.5 21t-7.5 21q-4 -11 -7.5 -21t-8.5 -21z" />
<glyph unicode="&#x105;" horiz-adv-x="968" d="M104 236q0 68 40 121.5t121.5 91t206 59.5t294.5 27v129q0 79 -17.5 141t-51 105t-85 66t-118.5 23q-53 0 -96.5 -11t-77 -27.5t-58.5 -36t-43.5 -36t-30 -27.5t-16.5 -11q-4 0 -10 6l-4 4q74 78 152.5 119t183.5 41q77 0 132.5 -24.5t92.5 -70.5t54.5 -112.5 t17.5 -148.5v-664q-20 -11 -46.5 -30t-49.5 -44.5t-38.5 -57.5t-15.5 -69q0 -57 39.5 -89t97.5 -32q33 0 56 7.5t38.5 15.5t24.5 15.5t14 7.5q4 0 9 -5l6 -6q-27 -27 -67 -41t-83 -14q-68 0 -113 36t-45 105q0 36 15 68.5t38 59t50 48t51 35.5v6l-6 163q-43 -45 -86 -81.5 t-91 -61.5t-103.5 -38.5t-123.5 -13.5q-45 0 -91 13.5t-82.5 44t-60.5 78t-24 116.5zM129 236q0 -60 20 -104t52.5 -72t74.5 -42t86 -14q71 0 128.5 16.5t105.5 44t89.5 64t80.5 76.5v309q-323 -10 -480 -80t-157 -198z" />
<glyph unicode="&#x106;" horiz-adv-x="1398" d="M139 0zM139 717q0 164 50 299t140.5 232t217 149.5t278.5 52.5q71 0 133.5 -11t118.5 -32.5t107 -52.5t100 -72l-4 -6q-2 -4 -10 -4q-7 0 -36.5 24.5t-83.5 54t-134.5 54.5t-190.5 25q-145 0 -266.5 -50t-209 -142.5t-136.5 -224.5t-49 -296q0 -167 48.5 -299 t134.5 -224.5t203.5 -141t254.5 -48.5q87 0 155.5 12.5t125.5 36t105.5 57.5t96.5 78q5 6 8 6q4 0 8 -4l9 -8q-45 -44 -97 -80t-113.5 -62.5t-135 -41t-162.5 -14.5q-144 0 -266 50.5t-211 145.5t-139 231t-50 306zM756 1575l288 287q8 8 16.5 11t26.5 3h36l-337 -295 q-4 -4 -8.5 -5t-9.5 -1h-12z" />
<glyph unicode="&#x107;" horiz-adv-x="955" d="M125 0zM125 502q0 117 29.5 212.5t86 163t138 105t184.5 37.5q91 0 162.5 -29t122.5 -76l-6 -6q-4 -4 -8 -4q-6 0 -23 15t-49.5 32.5t-81 32t-117.5 14.5q-97 0 -174 -34.5t-130 -99t-81 -157t-28 -206.5q0 -119 28 -210.5t80 -154.5t125.5 -96t163.5 -33q80 0 135 18.5 t91 41t54.5 41t24.5 18.5q4 0 8 -4l4 -4q-15 -23 -44.5 -46t-70.5 -42t-92.5 -31t-109.5 -12q-97 0 -175 34.5t-133 100.5t-84.5 161.5t-29.5 217.5zM498 1186l168 241q9 14 17.5 18.5t25.5 4.5h27l-207 -256q-5 -8 -17 -8h-14z" />
<glyph unicode="&#x108;" horiz-adv-x="1398" d="M139 0zM139 717q0 164 50 299t140.5 232t217 149.5t278.5 52.5q71 0 133.5 -11t118.5 -32.5t107 -52.5t100 -72l-4 -6q-2 -4 -10 -4q-7 0 -36.5 24.5t-83.5 54t-134.5 54.5t-190.5 25q-145 0 -266.5 -50t-209 -142.5t-136.5 -224.5t-49 -296q0 -167 48.5 -299 t134.5 -224.5t203.5 -141t254.5 -48.5q87 0 155.5 12.5t125.5 36t105.5 57.5t96.5 78q5 6 8 6q4 0 8 -4l9 -8q-45 -44 -97 -80t-113.5 -62.5t-135 -41t-162.5 -14.5q-144 0 -266 50.5t-211 145.5t-139 231t-50 306zM588 1575l237 270h17l237 -270h-20q-5 0 -10 1.5t-11 6.5 l-200 229q-2 1 -4 6l-4 -6l-201 -229q-5 -5 -10.5 -6.5t-10.5 -1.5h-20z" />
<glyph unicode="&#x109;" horiz-adv-x="955" d="M125 0zM125 502q0 117 29.5 212.5t86 163t138 105t184.5 37.5q91 0 162.5 -29t122.5 -76l-6 -6q-4 -4 -8 -4q-6 0 -23 15t-49.5 32.5t-81 32t-117.5 14.5q-97 0 -174 -34.5t-130 -99t-81 -157t-28 -206.5q0 -119 28 -210.5t80 -154.5t125.5 -96t163.5 -33q80 0 135 18.5 t91 41t54.5 41t24.5 18.5q4 0 8 -4l4 -4q-15 -23 -44.5 -46t-70.5 -42t-92.5 -31t-109.5 -12q-97 0 -175 34.5t-133 100.5t-84.5 161.5t-29.5 217.5zM338 1198l217 236h17l217 -236h-19q-8 0 -16 8l-184 201l-6 6l-7 -6l-184 -201q-3 -3 -7 -5.5t-9 -2.5h-19z" />
<glyph unicode="&#x10a;" horiz-adv-x="1398" d="M139 0zM139 717q0 164 50 299t140.5 232t217 149.5t278.5 52.5q71 0 133.5 -11t118.5 -32.5t107 -52.5t100 -72l-4 -6q-2 -4 -10 -4q-7 0 -36.5 24.5t-83.5 54t-134.5 54.5t-190.5 25q-145 0 -266.5 -50t-209 -142.5t-136.5 -224.5t-49 -296q0 -167 48.5 -299 t134.5 -224.5t203.5 -141t254.5 -48.5q87 0 155.5 12.5t125.5 36t105.5 57.5t96.5 78q5 6 8 6q4 0 8 -4l9 -8q-45 -44 -97 -80t-113.5 -62.5t-135 -41t-162.5 -14.5q-144 0 -266 50.5t-211 145.5t-139 231t-50 306zM774 1708q0 24 17 40.5t41 16.5q22 0 39.5 -16.5 t17.5 -40.5q0 -22 -18 -38.5t-39 -16.5q-24 0 -41 17t-17 38z" />
<glyph unicode="&#x10b;" horiz-adv-x="955" d="M125 0zM125 502q0 117 29.5 212.5t86 163t138 105t184.5 37.5q91 0 162.5 -29t122.5 -76l-6 -6q-4 -4 -8 -4q-6 0 -23 15t-49.5 32.5t-81 32t-117.5 14.5q-97 0 -174 -34.5t-130 -99t-81 -157t-28 -206.5q0 -119 28 -210.5t80 -154.5t125.5 -96t163.5 -33q80 0 135 18.5 t91 41t54.5 41t24.5 18.5q4 0 8 -4l4 -4q-15 -23 -44.5 -46t-70.5 -42t-92.5 -31t-109.5 -12q-97 0 -175 34.5t-133 100.5t-84.5 161.5t-29.5 217.5zM506 1393q0 24 17 40.5t41 16.5q22 0 39.5 -16.5t17.5 -40.5q0 -22 -18 -39t-39 -17q-24 0 -41 17t-17 39z" />
<glyph unicode="&#x10c;" horiz-adv-x="1398" d="M139 0zM139 717q0 164 50 299t140.5 232t217 149.5t278.5 52.5q71 0 133.5 -11t118.5 -32.5t107 -52.5t100 -72l-4 -6q-2 -4 -10 -4q-7 0 -36.5 24.5t-83.5 54t-134.5 54.5t-190.5 25q-145 0 -266.5 -50t-209 -142.5t-136.5 -224.5t-49 -296q0 -167 48.5 -299 t134.5 -224.5t203.5 -141t254.5 -48.5q87 0 155.5 12.5t125.5 36t105.5 57.5t96.5 78q5 6 8 6q4 0 8 -4l9 -8q-45 -44 -97 -80t-113.5 -62.5t-135 -41t-162.5 -14.5q-144 0 -266 50.5t-211 145.5t-139 231t-50 306zM588 1845h20q5 0 10.5 -1.5t10.5 -6.5l201 -240l4 -5l4 5 l200 240q5 5 10.5 6.5t10.5 1.5h20l-237 -270h-17z" />
<glyph unicode="&#x10d;" horiz-adv-x="955" d="M125 0zM125 502q0 117 29.5 212.5t86 163t138 105t184.5 37.5q91 0 162.5 -29t122.5 -76l-6 -6q-4 -4 -8 -4q-6 0 -23 15t-49.5 32.5t-81 32t-117.5 14.5q-97 0 -174 -34.5t-130 -99t-81 -157t-28 -206.5q0 -119 28 -210.5t80 -154.5t125.5 -96t163.5 -33q80 0 135 18.5 t91 41t54.5 41t24.5 18.5q4 0 8 -4l4 -4q-15 -23 -44.5 -46t-70.5 -42t-92.5 -31t-109.5 -12q-97 0 -175 34.5t-133 100.5t-84.5 161.5t-29.5 217.5zM338 1434h19q8 0 16 -9l184 -200l7 -7l6 7l184 200q8 8 16 9h19l-217 -236h-17z" />
<glyph unicode="&#x10e;" horiz-adv-x="1555" d="M238 0v1434h512q147 0 269 -48.5t209.5 -140.5t136 -225t48.5 -303t-48.5 -303t-136 -225.5t-209.5 -140.5t-269 -48h-512zM238 0zM262 20h488q141 0 258 46.5t201 135.5t130.5 218.5t46.5 296.5t-46.5 296.5t-130.5 218.5t-201 135t-258 46h-488v-1393zM467 1845h20 q5 0 10.5 -1.5t10.5 -6.5l201 -240l4 -5l4 5l200 240q5 5 10.5 6.5t10.5 1.5h20l-237 -270h-17z" />
<glyph unicode="&#x10f;" horiz-adv-x="1113" d="M126 0zM126 500q0 109 27.5 204t83 165t138 110.5t191.5 40.5q111 0 194 -44t140 -136v635h25v-1475h-6q-14 0 -15 16l-4 194q-68 -102 -163.5 -162t-209.5 -60q-196 0 -298.5 125.5t-102.5 386.5zM151 500q0 -250 95.5 -371t280.5 -121q112 0 207.5 62.5t165.5 172.5 v564q-67 105 -147.5 148.5t-186.5 43.5q-105 0 -183 -38t-129.5 -106t-77 -159t-25.5 -196zM1089 1190l47 287h10q16 0 17 -23q0 -11 -4 -30.5t-10.5 -50t-16 -71.5t-23.5 -98q-2 -6 -4 -10t-10 -4h-6z" />
<glyph unicode="&#x110;" horiz-adv-x="1566" d="M11 719v20h238v695h512q147 0 269 -48.5t209.5 -140.5t136 -225t48.5 -303t-48.5 -303t-136 -225.5t-209.5 -140.5t-269 -48h-512v719h-238zM273 20h488q141 0 258.5 46.5t201.5 135.5t130.5 218.5t46.5 296.5t-46.5 296.5t-130.5 218.5t-201.5 135t-258.5 46h-488v-674 h353v-20h-353v-699z" />
<glyph unicode="&#x111;" horiz-adv-x="1113" d="M126 500q0 109 27.5 204t83 165t138 110.5t191.5 40.5q111 0 194 -44t140 -136v358h-264v21h264v256h25v-256h161v-21h-161v-1198h-6q-14 0 -15 16l-4 195q-68 -103 -163.5 -163t-209.5 -60q-196 0 -298.5 125.5t-102.5 386.5zM151 500q0 -250 95.5 -371t280.5 -121 q112 0 207.5 62.5t165.5 172.5v564q-67 105 -147.5 148.5t-186.5 43.5q-105 0 -183 -38t-129.5 -106t-77 -159t-25.5 -196z" />
<glyph unicode="&#x112;" horiz-adv-x="1192" d="M238 0v1434h837v-23h-813v-672h690v-22h-690v-694h815l-2 -23h-837zM238 0zM428 1671v21h471v-21h-471z" />
<glyph unicode="&#x113;" horiz-adv-x="1055" d="M125 0zM125 522q0 111 29.5 202.5t86 157t138 102t184.5 36.5q79 0 148.5 -28t121.5 -83.5t81.5 -136t29.5 -184.5q0 -5 -3.5 -7.5t-8.5 -2.5h-780q-2 -14 -2 -27.5v-28.5q0 -125 29.5 -220.5t84 -160.5t132 -99t171.5 -34q84 0 145.5 18.5t102.5 41t62.5 41t25.5 18.5 t8 -4l4 -4q-17 -22 -51.5 -45t-81 -42.5t-101.5 -31.5t-114 -12q-103 0 -185 36t-139 105t-87.5 168t-30.5 225zM153 596h769q0 97 -28 172.5t-76.5 126.5t-114 77.5t-140.5 26.5q-90 0 -162 -29t-124.5 -81.5t-83.5 -127.5t-40 -165zM295 1300v21h533v-21h-533z" />
<glyph unicode="&#x114;" horiz-adv-x="1192" d="M238 0v1434h837v-23h-813v-672h690v-22h-690v-694h815l-2 -23h-837zM238 0zM427 1826h23q0 -54 11 -96t36 -71.5t66 -45t100 -15.5q58 0 99 15.5t66 45t36.5 71.5t11.5 96h22q0 -125 -54.5 -186.5t-180.5 -61.5t-181 61.5t-55 186.5z" />
<glyph unicode="&#x115;" horiz-adv-x="1055" d="M125 0zM125 522q0 111 29.5 202.5t86 157t138 102t184.5 36.5q79 0 148.5 -28t121.5 -83.5t81.5 -136t29.5 -184.5q0 -5 -3.5 -7.5t-8.5 -2.5h-780q-2 -14 -2 -27.5v-28.5q0 -125 29.5 -220.5t84 -160.5t132 -99t171.5 -34q84 0 145.5 18.5t102.5 41t62.5 41t25.5 18.5 t8 -4l4 -4q-17 -22 -51.5 -45t-81 -42.5t-101.5 -31.5t-114 -12q-103 0 -185 36t-139 105t-87.5 168t-30.5 225zM153 596h769q0 97 -28 172.5t-76.5 126.5t-114 77.5t-140.5 26.5q-90 0 -162 -29t-124.5 -81.5t-83.5 -127.5t-40 -165zM347 1434h20q0 -42 10.5 -80.5 t33.5 -68t59.5 -47t91.5 -17.5q53 0 90.5 17.5t60.5 47t33 68t10 80.5h21q0 -48 -12 -90t-38 -74.5t-67 -51t-98 -18.5t-98.5 18.5t-67.5 51t-37.5 74t-11.5 90.5z" />
<glyph unicode="&#x116;" horiz-adv-x="1192" d="M238 0v1434h837v-23h-813v-672h690v-22h-690v-694h815l-2 -23h-837zM238 0zM604 1708q0 24 17 40.5t41 16.5q22 0 39.5 -16.5t17.5 -40.5q0 -22 -18 -38.5t-39 -16.5q-24 0 -41 17t-17 38z" />
<glyph unicode="&#x117;" horiz-adv-x="1055" d="M125 0zM125 522q0 111 29.5 202.5t86 157t138 102t184.5 36.5q79 0 148.5 -28t121.5 -83.5t81.5 -136t29.5 -184.5q0 -5 -3.5 -7.5t-8.5 -2.5h-780q-2 -14 -2 -27.5v-28.5q0 -125 29.5 -220.5t84 -160.5t132 -99t171.5 -34q84 0 145.5 18.5t102.5 41t62.5 41t25.5 18.5 t8 -4l4 -4q-17 -22 -51.5 -45t-81 -42.5t-101.5 -31.5t-114 -12q-103 0 -185 36t-139 105t-87.5 168t-30.5 225zM153 596h769q0 97 -28 172.5t-76.5 126.5t-114 77.5t-140.5 26.5q-90 0 -162 -29t-124.5 -81.5t-83.5 -127.5t-40 -165zM504 1393q0 24 17 40.5t41 16.5 q22 0 39.5 -16.5t17.5 -40.5q0 -22 -18 -39t-39 -17q-24 0 -41 17t-17 39z" />
<glyph unicode="&#x118;" horiz-adv-x="1192" d="M238 0v1434h837v-23h-813v-672h690v-22h-690v-694h815l-2 -23h-92q-20 -11 -46.5 -30t-49.5 -44.5t-38 -57.5t-15 -69q0 -57 39 -89t98 -32q33 0 56 7.5t38 15.5t24.5 15.5t14.5 7.5q4 0 8 -5l6 -6q-27 -27 -66.5 -41t-82.5 -14q-68 0 -113 36t-45 105q0 33 12.5 62.5 t32.5 55.5t44 47t47 36h-709z" />
<glyph unicode="&#x119;" horiz-adv-x="1055" d="M125 522q0 111 29.5 202.5t86 157t138 102t184.5 36.5q79 0 148.5 -28t121.5 -83.5t81.5 -136t29.5 -184.5q0 -5 -3.5 -7.5t-8.5 -2.5h-780q-2 -14 -2 -27.5v-28.5q0 -125 29.5 -220.5t84 -160.5t132 -99t171.5 -34q84 0 145.5 18.5t102.5 41t62.5 41t25.5 18.5t8 -4 l4 -4q-13 -17 -38 -35.5t-59 -35.5t-75 -31t-85 -21q-22 -12 -46 -31t-45.5 -44t-36 -56t-14.5 -66q0 -57 39.5 -89t97.5 -32q33 0 56 7.5t38.5 15.5t24.5 15.5t14 7.5q4 0 9 -5l6 -6q-27 -27 -67 -41t-83 -14q-68 0 -112.5 36t-44.5 105q0 31 10.5 58t28 51t39.5 44.5 t43 37.5q-11 -1 -23 -1.5t-25 -0.5q-103 0 -185 36t-139 105t-87.5 168t-30.5 225zM153 596h769q0 97 -28 172.5t-76.5 126.5t-114 77.5t-140.5 26.5q-90 0 -162 -29t-124.5 -81.5t-83.5 -127.5t-40 -165z" />
<glyph unicode="&#x11a;" horiz-adv-x="1192" d="M238 0v1434h837v-23h-813v-672h690v-22h-690v-694h815l-2 -23h-837zM238 0zM418 1845h20q5 0 10.5 -1.5t10.5 -6.5l201 -240l4 -5l4 5l200 240q5 5 10.5 6.5t10.5 1.5h20l-237 -270h-17z" />
<glyph unicode="&#x11b;" horiz-adv-x="1055" d="M125 0zM125 522q0 111 29.5 202.5t86 157t138 102t184.5 36.5q79 0 148.5 -28t121.5 -83.5t81.5 -136t29.5 -184.5q0 -5 -3.5 -7.5t-8.5 -2.5h-780q-2 -14 -2 -27.5v-28.5q0 -125 29.5 -220.5t84 -160.5t132 -99t171.5 -34q84 0 145.5 18.5t102.5 41t62.5 41t25.5 18.5 t8 -4l4 -4q-17 -22 -51.5 -45t-81 -42.5t-101.5 -31.5t-114 -12q-103 0 -185 36t-139 105t-87.5 168t-30.5 225zM153 596h769q0 97 -28 172.5t-76.5 126.5t-114 77.5t-140.5 26.5q-90 0 -162 -29t-124.5 -81.5t-83.5 -127.5t-40 -165zM336 1434h19q8 0 16 -9l184 -200l7 -7 l6 7l184 200q8 8 16 9h19l-217 -236h-17z" />
<glyph unicode="&#x11c;" horiz-adv-x="1514" d="M140 717q0 169 49.5 304.5t141.5 231t222.5 146.5t293.5 51q80 0 146.5 -9.5t124 -29.5t108 -51.5t98.5 -73.5l-4 -6q-3 -6 -10 -6q-5 0 -18 11.5t-36.5 28.5t-59.5 37.5t-86 37.5t-115 29t-148 12q-156 0 -282 -49t-215 -141t-137 -224t-48 -299q0 -165 47 -297 t136.5 -224.5t218.5 -142t292 -49.5q76 0 140 10t122 28.5t112 46t109 62.5v445h-321q-5 0 -8.5 3.5t-3.5 6.5v10h356v-475q-53 -36 -109.5 -65t-118.5 -49.5t-131 -31.5t-147 -11q-168 0 -301 50.5t-225.5 145.5t-142.5 231t-50 306zM613 1575l238 270h16l238 -270h-21 q-5 0 -10 1.5t-10 6.5l-201 229q-2 1 -4 6l-4 -6l-201 -229q-5 -5 -10 -6.5t-10 -1.5h-21z" />
<glyph unicode="&#x11d;" horiz-adv-x="1028" d="M92 0zM92 -115q0 86 58.5 148t157.5 96q-57 14 -91.5 45.5t-34.5 89.5q0 20 9 43t24 45t37 42t50 35q-70 41 -107 110.5t-37 160.5q0 71 23.5 130t68 101t107 65.5t141.5 23.5q67 0 121.5 -17.5t97.5 -48.5h244v-4q0 -6 -5.5 -10t-11.5 -4l-201 -4q46 -43 70.5 -101.5 t24.5 -130.5t-24 -130.5t-69 -100.5t-107.5 -65t-139.5 -23q-100 0 -176 38q-26 -14 -47.5 -32.5t-37 -39t-24 -42t-8.5 -41.5q0 -51 31.5 -78t84 -40.5t119 -17t136 -6.5t136 -10.5t119 -28.5t84 -59t31.5 -104q0 -60 -31 -115t-88 -97.5t-137.5 -67.5t-179.5 -25 q-101 0 -179 21.5t-131.5 58.5t-80.5 86t-27 104zM117 -115q0 -52 27.5 -97.5t78 -79.5t123.5 -53.5t164 -19.5q81 0 155.5 21t132 58.5t92 90t34.5 115.5q0 57 -28.5 91.5t-75.5 53.5t-107.5 26t-126 10.5t-130 7t-118.5 13.5q-48 -17 -89 -40t-70 -52.5t-45.5 -65.5 t-16.5 -79zM182 700q0 -67 22 -122t63 -94.5t99.5 -61t131.5 -21.5q75 0 133 21.5t98.5 61t62 95t21.5 121.5q0 67 -22 122.5t-63 94.5t-99.5 60.5t-130.5 21.5q-73 0 -131.5 -21.5t-99.5 -60.5t-63 -94.5t-22 -122.5zM296 1198l217 236h17l217 -236h-19q-8 0 -16 8 l-184 201l-6 6l-7 -6l-184 -201q-3 -3 -7 -5.5t-9 -2.5h-19z" />
<glyph unicode="&#x11e;" horiz-adv-x="1514" d="M140 717q0 169 49.5 304.5t141.5 231t222.5 146.5t293.5 51q80 0 146.5 -9.5t124 -29.5t108 -51.5t98.5 -73.5l-4 -6q-3 -6 -10 -6q-5 0 -18 11.5t-36.5 28.5t-59.5 37.5t-86 37.5t-115 29t-148 12q-156 0 -282 -49t-215 -141t-137 -224t-48 -299q0 -165 47 -297 t136.5 -224.5t218.5 -142t292 -49.5q76 0 140 10t122 28.5t112 46t109 62.5v445h-321q-5 0 -8.5 3.5t-3.5 6.5v10h356v-475q-53 -36 -109.5 -65t-118.5 -49.5t-131 -31.5t-147 -11q-168 0 -301 50.5t-225.5 145.5t-142.5 231t-50 306zM623 1826h22q0 -54 11.5 -96 t36.5 -71.5t66 -45t99 -15.5t99 15.5t66.5 45t36.5 71.5t11 96h23q0 -125 -55 -186.5t-181 -61.5t-180.5 61.5t-54.5 186.5z" />
<glyph unicode="&#x11f;" horiz-adv-x="1028" d="M92 0zM92 -115q0 86 58.5 148t157.5 96q-57 14 -91.5 45.5t-34.5 89.5q0 20 9 43t24 45t37 42t50 35q-70 41 -107 110.5t-37 160.5q0 71 23.5 130t68 101t107 65.5t141.5 23.5q67 0 121.5 -17.5t97.5 -48.5h244v-4q0 -6 -5.5 -10t-11.5 -4l-201 -4q46 -43 70.5 -101.5 t24.5 -130.5t-24 -130.5t-69 -100.5t-107.5 -65t-139.5 -23q-100 0 -176 38q-26 -14 -47.5 -32.5t-37 -39t-24 -42t-8.5 -41.5q0 -51 31.5 -78t84 -40.5t119 -17t136 -6.5t136 -10.5t119 -28.5t84 -59t31.5 -104q0 -60 -31 -115t-88 -97.5t-137.5 -67.5t-179.5 -25 q-101 0 -179 21.5t-131.5 58.5t-80.5 86t-27 104zM117 -115q0 -52 27.5 -97.5t78 -79.5t123.5 -53.5t164 -19.5q81 0 155.5 21t132 58.5t92 90t34.5 115.5q0 57 -28.5 91.5t-75.5 53.5t-107.5 26t-126 10.5t-130 7t-118.5 13.5q-48 -17 -89 -40t-70 -52.5t-45.5 -65.5 t-16.5 -79zM182 700q0 -67 22 -122t63 -94.5t99.5 -61t131.5 -21.5q75 0 133 21.5t98.5 61t62 95t21.5 121.5q0 67 -22 122.5t-63 94.5t-99.5 60.5t-130.5 21.5q-73 0 -131.5 -21.5t-99.5 -60.5t-63 -94.5t-22 -122.5zM307 1434h20q0 -42 10.5 -80.5t33.5 -68t59.5 -47 t91.5 -17.5q53 0 90.5 17.5t60.5 47t33 68t10 80.5h21q0 -48 -12 -90t-38 -74.5t-67 -51t-98 -18.5t-98.5 18.5t-67.5 51t-37.5 74t-11.5 90.5z" />
<glyph unicode="&#x120;" horiz-adv-x="1514" d="M140 717q0 169 49.5 304.5t141.5 231t222.5 146.5t293.5 51q80 0 146.5 -9.5t124 -29.5t108 -51.5t98.5 -73.5l-4 -6q-3 -6 -10 -6q-5 0 -18 11.5t-36.5 28.5t-59.5 37.5t-86 37.5t-115 29t-148 12q-156 0 -282 -49t-215 -141t-137 -224t-48 -299q0 -165 47 -297 t136.5 -224.5t218.5 -142t292 -49.5q76 0 140 10t122 28.5t112 46t109 62.5v445h-321q-5 0 -8.5 3.5t-3.5 6.5v10h356v-475q-53 -36 -109.5 -65t-118.5 -49.5t-131 -31.5t-147 -11q-168 0 -301 50.5t-225.5 145.5t-142.5 231t-50 306zM800 1708q0 24 17 40.5t40 16.5 q22 0 39.5 -16.5t17.5 -40.5q0 -22 -17.5 -38.5t-39.5 -16.5q-24 0 -40.5 17t-16.5 38z" />
<glyph unicode="&#x121;" horiz-adv-x="1028" d="M92 0zM92 -115q0 86 58.5 148t157.5 96q-57 14 -91.5 45.5t-34.5 89.5q0 20 9 43t24 45t37 42t50 35q-70 41 -107 110.5t-37 160.5q0 71 23.5 130t68 101t107 65.5t141.5 23.5q67 0 121.5 -17.5t97.5 -48.5h244v-4q0 -6 -5.5 -10t-11.5 -4l-201 -4q46 -43 70.5 -101.5 t24.5 -130.5t-24 -130.5t-69 -100.5t-107.5 -65t-139.5 -23q-100 0 -176 38q-26 -14 -47.5 -32.5t-37 -39t-24 -42t-8.5 -41.5q0 -51 31.5 -78t84 -40.5t119 -17t136 -6.5t136 -10.5t119 -28.5t84 -59t31.5 -104q0 -60 -31 -115t-88 -97.5t-137.5 -67.5t-179.5 -25 q-101 0 -179 21.5t-131.5 58.5t-80.5 86t-27 104zM117 -115q0 -52 27.5 -97.5t78 -79.5t123.5 -53.5t164 -19.5q81 0 155.5 21t132 58.5t92 90t34.5 115.5q0 57 -28.5 91.5t-75.5 53.5t-107.5 26t-126 10.5t-130 7t-118.5 13.5q-48 -17 -89 -40t-70 -52.5t-45.5 -65.5 t-16.5 -79zM182 700q0 -67 22 -122t63 -94.5t99.5 -61t131.5 -21.5q75 0 133 21.5t98.5 61t62 95t21.5 121.5q0 67 -22 122.5t-63 94.5t-99.5 60.5t-130.5 21.5q-73 0 -131.5 -21.5t-99.5 -60.5t-63 -94.5t-22 -122.5zM464 1393q0 24 17 40.5t41 16.5q22 0 39.5 -16.5 t17.5 -40.5q0 -22 -18 -39t-39 -17q-24 0 -41 17t-17 39z" />
<glyph unicode="&#x122;" horiz-adv-x="1514" d="M140 717q0 169 49.5 304.5t141.5 231t222.5 146.5t293.5 51q80 0 146.5 -9.5t124 -29.5t108 -51.5t98.5 -73.5l-4 -6q-3 -6 -10 -6q-5 0 -18 11.5t-36.5 28.5t-59.5 37.5t-86 37.5t-115 29t-148 12q-156 0 -282 -49t-215 -141t-137 -224t-48 -299q0 -165 47 -297 t136.5 -224.5t218.5 -142t292 -49.5q76 0 140 10t122 28.5t112 46t109 62.5v445h-321q-5 0 -8.5 3.5t-3.5 6.5v10h356v-475q-53 -36 -109.5 -65t-118.5 -49.5t-131 -31.5t-147 -11q-168 0 -301 50.5t-225.5 145.5t-142.5 231t-50 306zM727 -399l47 286h10q16 0 17 -22 q0 -11 -3.5 -30.5t-10.5 -50t-16.5 -72t-22.5 -97.5q-2 -6 -4.5 -10t-10.5 -4h-6z" />
<glyph unicode="&#x123;" horiz-adv-x="1028" d="M92 0zM92 -115q0 86 58.5 148t157.5 96q-57 14 -91.5 45.5t-34.5 89.5q0 20 9 43t24 45t37 42t50 35q-70 41 -107 110.5t-37 160.5q0 71 23.5 130t68 101t107 65.5t141.5 23.5q67 0 121.5 -17.5t97.5 -48.5h244v-4q0 -6 -5.5 -10t-11.5 -4l-201 -4q46 -43 70.5 -101.5 t24.5 -130.5t-24 -130.5t-69 -100.5t-107.5 -65t-139.5 -23q-100 0 -176 38q-26 -14 -47.5 -32.5t-37 -39t-24 -42t-8.5 -41.5q0 -51 31.5 -78t84 -40.5t119 -17t136 -6.5t136 -10.5t119 -28.5t84 -59t31.5 -104q0 -60 -31 -115t-88 -97.5t-137.5 -67.5t-179.5 -25 q-101 0 -179 21.5t-131.5 58.5t-80.5 86t-27 104zM117 -115q0 -52 27.5 -97.5t78 -79.5t123.5 -53.5t164 -19.5q81 0 155.5 21t132 58.5t92 90t34.5 115.5q0 57 -28.5 91.5t-75.5 53.5t-107.5 26t-126 10.5t-130 7t-118.5 13.5q-48 -17 -89 -40t-70 -52.5t-45.5 -65.5 t-16.5 -79zM182 700q0 -67 22 -122t63 -94.5t99.5 -61t131.5 -21.5q75 0 133 21.5t98.5 61t62 95t21.5 121.5q0 67 -22 122.5t-63 94.5t-99.5 60.5t-130.5 21.5q-73 0 -131.5 -21.5t-99.5 -60.5t-63 -94.5t-22 -122.5zM498 1163l66 287h16l-47 -287h-35z" />
<glyph unicode="&#x124;" horiz-adv-x="1531" d="M238 0v1434h24v-695h1008v695h24v-1434h-24v717h-1008v-717h-24zM238 0zM531 1575l237 270h17l237 -270h-20q-5 0 -10 1.5t-11 6.5l-200 229q-2 1 -4 6l-4 -6l-201 -229q-5 -5 -10.5 -6.5t-10.5 -1.5h-20z" />
<glyph unicode="&#x125;" horiz-adv-x="1113" d="M-45 1575l237 270h17l237 -270h-20q-5 0 -10 1.5t-11 6.5l-200 229q-2 1 -4 6l-4 -6l-201 -229q-5 -5 -10.5 -6.5t-10.5 -1.5h-20zM0 0zM188 0v1475h25v-680q35 51 78.5 92.5t93.5 71t105.5 45.5t113.5 16q167 0 249.5 -99.5t82.5 -277.5v-643h-25v643q0 84 -18.5 150 t-56.5 112t-96 70t-136 24q-118 0 -217 -63t-174 -173v-763h-25z" />
<glyph unicode="&#x126;" horiz-adv-x="1536" d="M45 1067v18h195v349h24v-349h1008v349h24v-349h195v-18h-195v-1067h-24v717h-1008v-717h-24v1067h-195zM264 739h1008v328h-1008v-328z" />
<glyph unicode="&#x127;" horiz-adv-x="1113" d="M8 1229v20h180v226h25v-226h328v-20h-328v-434q35 51 78.5 92.5t93.5 71t105.5 45.5t113.5 16q167 0 249.5 -99.5t82.5 -277.5v-643h-25v643q0 84 -18.5 150t-56.5 112t-96 70t-136 24q-118 0 -217 -63t-174 -173v-763h-25v1229h-180z" />
<glyph unicode="&#x128;" horiz-adv-x="499" d="M2 0zM2 1595q0 28 9 53t26 43.5t41.5 30t54.5 11.5q34 0 66 -18.5t63 -41t61 -41t60 -18.5q51 0 80.5 33.5t31.5 83.5h17q0 -28 -9 -53t-25 -43.5t-40.5 -30t-54.5 -11.5q-33 0 -65.5 18.5t-63 41t-61 41t-60.5 18.5q-25 0 -45.5 -9t-35 -25t-23 -37.5t-9.5 -45.5h-18z M238 0v1434h24v-1434h-24z" />
<glyph unicode="&#x129;" horiz-adv-x="425" d="M-17 1253q0 28 8 53t23 43.5t37.5 30t52.5 11.5q34 0 62.5 -18.5t55.5 -41t54 -41t57 -18.5q51 0 76 33.5t27 83.5h16q0 -28 -7 -53t-21.5 -43.5t-37 -30t-53.5 -11.5q-33 0 -61.5 18.5t-56 41t-54.5 41t-57 18.5q-25 0 -43.5 -9t-31.5 -25t-19.5 -37.5t-7.5 -45.5h-19z M0 0zM201 0v1004h24v-1004h-24z" />
<glyph unicode="&#x12a;" horiz-adv-x="499" d="M16 0zM16 1671v21h471v-21h-471zM238 0v1434h24v-1434h-24z" />
<glyph unicode="&#x12b;" horiz-adv-x="425" d="M-54 1300v21h533v-21h-533zM0 0zM201 0v1004h24v-1004h-24z" />
<glyph unicode="&#x12e;" horiz-adv-x="501" d="M92 -201q0 35 14 66.5t35.5 57.5t47.5 47.5t51 36.5v1427h24v-1434q-20 -11 -46.5 -30t-49.5 -44.5t-38 -57.5t-15 -69q0 -57 39.5 -89t97.5 -32q33 0 56 7.5t38 15.5t24.5 15.5t14.5 7.5q4 0 8 -5l6 -6q-27 -27 -66.5 -41t-82.5 -14q-68 0 -113 36t-45 105z" />
<glyph unicode="&#x12f;" horiz-adv-x="425" d="M53 0zM53 -201q0 37 16 70t39.5 60.5t51.5 49t53 35.5l12 -14q-20 -11 -46 -30t-49 -44.5t-38.5 -57.5t-15.5 -69q0 -57 39.5 -89t97.5 -32q33 0 56 7.5t38.5 15.5t24.5 15.5t14 7.5q4 0 8 -5l6 -6q-27 -27 -66.5 -41t-82.5 -14q-68 0 -113 36t-45 105zM156 1376 q0 24 16.5 41t40.5 17q22 0 39.5 -17t17.5 -41q0 -22 -18 -38.5t-39 -16.5q-24 0 -40.5 17t-16.5 38zM201 0v1004h24v-1004h-24z" />
<glyph unicode="&#x130;" horiz-adv-x="499" d="M193 1708q0 24 16.5 40.5t40.5 16.5q22 0 39.5 -16.5t17.5 -40.5q0 -22 -18 -38.5t-39 -16.5q-24 0 -40.5 17t-16.5 38zM238 0v1434h24v-1434h-24z" />
<glyph unicode="&#x131;" horiz-adv-x="425" d="M201 0v1004h24v-1004h-24z" />
<glyph unicode="&#x132;" horiz-adv-x="1471" d="M238 0v1434h24v-1434h-24zM238 0zM666 14q0 2 1 3t1 3q2 3 3 7t9 4q10 0 23.5 -4t32.5 -9.5t44.5 -9.5t61.5 -4q87 0 158 28.5t121 86t77 143.5t27 201v971h24v-971q0 -121 -29.5 -210.5t-83.5 -149.5t-129 -89.5t-165 -29.5q-84 0 -176 30z" />
<glyph unicode="&#x133;" horiz-adv-x="901" d="M156 0zM156 1376q0 24 16.5 41t40.5 17q22 0 39.5 -17t17.5 -41q0 -22 -18 -38.5t-39 -16.5q-24 0 -40.5 17t-16.5 38zM201 0v1004h24v-1004h-24zM414 -360l4 8q4 8 9 7.5t14 -4.5t23.5 -8.5t35.5 -4.5q87 0 131.5 51.5t44.5 134.5v1180h24v-1180q0 -45 -14 -83 t-40.5 -65.5t-63 -43t-82.5 -15.5q-28 0 -48 5.5t-38 17.5zM630 1376q0 24 16.5 41t40.5 17q22 0 39.5 -17t17.5 -41q0 -22 -18 -38.5t-39 -16.5q-24 0 -40.5 17t-16.5 38z" />
<glyph unicode="&#x134;" horiz-adv-x="834" d="M29 0zM29 14q0 2 1 3t1 3q2 3 3 7t9 4q10 0 23.5 -4t32.5 -9.5t44.5 -9.5t61.5 -4q87 0 158 28.5t121 86t77 143.5t27 201v971h24v-971q0 -121 -29.5 -210.5t-83.5 -149.5t-129 -89.5t-165 -29.5q-84 0 -176 30zM354 1575l237 270h17l237 -270h-20q-5 0 -10 1.5t-11 6.5 l-200 229q-2 1 -4 6l-4 -6l-201 -229q-5 -5 -10.5 -6.5t-10.5 -1.5h-20z" />
<glyph unicode="&#x135;" horiz-adv-x="425" d="M-61 -360l4 8q4 8 9 7.5t14 -4.5t23.5 -8.5t35.5 -4.5q87 0 131.5 51.5t44.5 134.5v1180h24v-1180q0 -45 -14 -83t-40.5 -65.5t-63 -43t-82.5 -15.5q-28 0 -48 5.5t-38 17.5zM-13 1198l217 236h17l217 -236h-19q-8 0 -16 8l-184 201l-6 6l-7 -6l-184 -201q-3 -3 -7 -5.5 t-9 -2.5h-19zM0 0z" />
<glyph unicode="&#x136;" horiz-adv-x="1251" d="M238 0v1434h24v-693h96q19 0 33.5 1t25 5t20.5 11t22 18l667 641q11 9 18.5 13t18.5 4h13l-697 -668q-18 -16 -30 -23.5t-31 -11.5q18 -3 31.5 -10.5t27.5 -22.5l740 -698h-11q-15 0 -21.5 3t-15.5 11l-704 666q-11 10 -20.5 18.5t-20 13t-26 7t-40.5 2.5h-96v-721h-24z M238 0zM552 -399l47 286h10q16 0 17 -22q0 -11 -3.5 -30.5t-10.5 -50t-16.5 -72t-22.5 -97.5q-2 -6 -4.5 -10t-10.5 -4h-6z" />
<glyph unicode="&#x137;" horiz-adv-x="918" d="M188 0v1475h25v-926h47q9 0 21.5 2t27.5 16l477 420q8 8 16.5 12.5t20.5 4.5h19l-508 -445q-13 -12 -26 -17q14 -4 24.5 -11t19.5 -15l531 -516h-19q-8 0 -14 2t-14 10l-504 490q-18 16 -32.5 22t-45.5 6h-41v-530h-25zM188 0zM432 -399l47 286h10q16 0 17 -22 q0 -11 -3.5 -30.5t-10.5 -50t-16.5 -72t-22.5 -97.5q-2 -6 -4.5 -10t-10.5 -4h-6z" />
<glyph unicode="&#x138;" horiz-adv-x="918" d="M188 0v1004h25v-455h47q9 0 21.5 2t27.5 16l477 420q8 8 16.5 12.5t20.5 4.5h19l-508 -445q-13 -12 -26 -17q14 -4 24.5 -11t19.5 -15l531 -516h-19q-8 0 -14 2t-14 10l-504 490q-18 16 -32.5 22t-45.5 6h-41v-530h-25z" />
<glyph unicode="&#x139;" horiz-adv-x="1024" d="M172 0zM172 1575l288 287q8 8 16.5 11t26.5 3h36l-337 -295q-4 -4 -8.5 -5t-9.5 -1h-12zM238 0v1434h24v-1411h731v-23h-755z" />
<glyph unicode="&#x13a;" horiz-adv-x="425" d="M134 0zM134 1575l288 287q8 8 16.5 11t26.5 3h36l-337 -295q-4 -4 -8.5 -5t-9.5 -1h-12zM201 0v1475h24v-1475h-24z" />
<glyph unicode="&#x13b;" horiz-adv-x="1024" d="M238 0v1434h24v-1411h731v-23h-755zM238 0zM530 -399l47 286h10q16 0 17 -22q0 -11 -3.5 -30.5t-10.5 -50t-16.5 -72t-22.5 -97.5q-2 -6 -4.5 -10t-10.5 -4h-6z" />
<glyph unicode="&#x13c;" horiz-adv-x="425" d="M150 -399l47 286h10q16 0 17 -22q0 -11 -3.5 -30.5t-10.5 -50t-16.5 -72t-22.5 -97.5q-2 -6 -4.5 -10t-10.5 -4h-6zM151 0zM201 0v1475h24v-1475h-24z" />
<glyph unicode="&#x13d;" horiz-adv-x="1024" d="M238 0v1434h24v-1411h731v-23h-755zM238 0zM534 1190l47 287h10q16 0 17 -23q0 -11 -4 -30.5t-10.5 -50t-16 -71.5t-23.5 -98q-2 -6 -4 -10t-10 -4h-6z" />
<glyph unicode="&#x13e;" horiz-adv-x="425" d="M201 0v1475h24v-1475h-24zM201 0zM389 1190l47 287h10q16 0 17 -23q0 -11 -4 -30.5t-10.5 -50t-16 -71.5t-23.5 -98q-2 -6 -4 -10t-10 -4h-6z" />
<glyph unicode="&#x13f;" horiz-adv-x="1057" d="M238 0v1434h24v-1411h731v-23h-755zM238 0zM712 759q0 24 17 40.5t41 16.5q22 0 39.5 -16.5t17.5 -40.5q0 -22 -18 -39t-39 -17q-24 0 -41 17t-17 39z" />
<glyph unicode="&#x140;" horiz-adv-x="671" d="M201 0v1475h24v-1475h-24zM201 0zM487 747q0 28 19 48t47 20t47.5 -20t19.5 -48t-20 -46.5t-47 -18.5q-28 0 -47 18.5t-19 46.5z" />
<glyph unicode="&#x141;" horiz-adv-x="1045" d="M52 520v10q0 8 2 12t11 9l194 103v780h25v-768l454 241v-11q0 -6 -1.5 -10.5t-10.5 -9.5l-442 -235v-618h731v-23h-756v630z" />
<glyph unicode="&#x142;" horiz-adv-x="533" d="M53 731v6q0 8 2 12t11 9l202 101v616h25v-606l215 104v-6q0 -6 -1.5 -11t-10.5 -10l-203 -99v-847h-25v837z" />
<glyph unicode="&#x143;" horiz-adv-x="1531" d="M238 0v1434h8q9 0 14 -9l1015 -1381q-1 5 -1 10.5v11.5v1368h20v-1434h-6q-6 0 -11 7l-1020 1388q0 -6 0.5 -13t0.5 -12v-1370h-20zM718 1573l288 287q8 8 16.5 11t26.5 3h36l-336 -295q-4 -4 -9 -5t-10 -1h-12z" />
<glyph unicode="&#x144;" horiz-adv-x="1113" d="M188 0v1004h7q14 0 14 -17l3 -193q35 51 78.5 93t93.5 71.5t105.5 45.5t114.5 16q167 0 249.5 -99.5t82.5 -277.5v-643h-25v643q0 84 -18.5 150t-56.5 112t-96 70t-136 24q-118 0 -217 -63t-174 -173v-763h-25zM188 0zM489 1186l168 241q9 14 17.5 18.5t25.5 4.5h27 l-207 -256q-5 -8 -17 -8h-14z" />
<glyph unicode="&#x145;" horiz-adv-x="1531" d="M238 0v1434h8q9 0 14 -9l1015 -1381q-1 5 -1 10.5v11.5v1368h20v-1434h-6q-6 0 -11 7l-1020 1388q0 -6 0.5 -13t0.5 -12v-1370h-20zM729 -399l47 286h10q16 0 17 -22q0 -11 -3.5 -30.5t-10.5 -50t-16.5 -72t-22.5 -97.5q-2 -6 -4.5 -10t-10.5 -4h-6z" />
<glyph unicode="&#x146;" horiz-adv-x="1113" d="M188 0v1004h7q14 0 14 -17l3 -193q35 51 78.5 93t93.5 71.5t105.5 45.5t114.5 16q167 0 249.5 -99.5t82.5 -277.5v-643h-25v643q0 84 -18.5 150t-56.5 112t-96 70t-136 24q-118 0 -217 -63t-174 -173v-763h-25zM188 0zM520 -399l47 286h10q16 0 17 -22q0 -11 -3.5 -30.5 t-10.5 -50t-16.5 -72t-22.5 -97.5q-2 -6 -4.5 -10t-10.5 -4h-6z" />
<glyph unicode="&#x147;" horiz-adv-x="1531" d="M238 0v1434h8q9 0 14 -9l1015 -1381q-1 5 -1 10.5v11.5v1368h20v-1434h-6q-6 0 -11 7l-1020 1388q0 -6 0.5 -13t0.5 -12v-1370h-20zM550 1843h20q5 0 10.5 -1.5t10.5 -6.5l201 -240l4 -5l4 5l200 240q5 5 10.5 6.5t10.5 1.5h20l-237 -270h-17z" />
<glyph unicode="&#x148;" horiz-adv-x="1113" d="M188 0v1004h7q14 0 14 -17l3 -193q35 51 78.5 93t93.5 71.5t105.5 45.5t114.5 16q167 0 249.5 -99.5t82.5 -277.5v-643h-25v643q0 84 -18.5 150t-56.5 112t-96 70t-136 24q-118 0 -217 -63t-174 -173v-763h-25zM188 0zM329 1434h19q8 0 16 -9l184 -200l7 -7l6 7l184 200 q8 8 16 9h19l-217 -236h-17z" />
<glyph unicode="&#x149;" horiz-adv-x="1112" d="M110 0zM114 1069q-4 4 0 10q38 51 54.5 109.5t18.5 115.5t-10.5 108.5t-34.5 90.5q-3 5 -3.5 10.5t6.5 8.5l20 10q29 -54 39.5 -117.5t4 -126.5t-29.5 -121.5t-61 -101.5zM189 0v1004h7q14 0 14 -17l3 -193q35 51 78.5 93t93.5 71.5t105.5 45.5t114.5 16 q167 0 249.5 -99.5t82.5 -277.5v-643h-25v643q0 84 -18.5 150t-56.5 112t-96 70t-136 24q-118 0 -217 -63t-174 -173v-763h-25z" />
<glyph unicode="&#x14c;" horiz-adv-x="1605" d="M140 0zM140 717q0 169 49 304.5t136.5 231t208.5 146.5t268 51t269 -50.5t209.5 -146t136 -231t48.5 -305.5t-48.5 -305.5t-136 -230t-209.5 -145t-269 -50.5q-146 0 -267.5 50.5t-209 145t-136.5 230t-49 305.5zM165 717q0 -167 47.5 -298.5t132 -223.5t201.5 -140.5 t256 -48.5q141 0 258.5 48.5t201.5 140.5t130.5 223.5t46.5 298.5t-46.5 299t-130.5 224t-201.5 141t-258.5 49q-139 0 -256 -49t-201.5 -141t-132 -224t-47.5 -299zM568 1671v21h471v-21h-471z" />
<glyph unicode="&#x14d;" horiz-adv-x="1127" d="M125 0zM125 502q0 117 28.5 212.5t84.5 163t137.5 105t187.5 37.5q105 0 187.5 -37.5t138 -105t84 -163.5t28.5 -212q0 -117 -28.5 -211.5t-84 -162.5t-137.5 -104t-188 -36t-187.5 36t-137.5 104t-84.5 162.5t-28.5 211.5zM150 502q0 -111 26 -202t77.5 -155.5 t129 -100.5t180.5 -36q102 0 180 36t130 100.5t78 155.5t26 202t-26 202.5t-78 157t-129.5 101.5t-180.5 36t-180.5 -36t-129 -101.5t-77.5 -157.5t-26 -202zM299 1300v21h533v-21h-533z" />
<glyph unicode="&#x14e;" horiz-adv-x="1605" d="M140 0zM140 717q0 169 49 304.5t136.5 231t208.5 146.5t268 51t269 -50.5t209.5 -146t136 -231t48.5 -305.5t-48.5 -305.5t-136 -230t-209.5 -145t-269 -50.5q-146 0 -267.5 50.5t-209 145t-136.5 230t-49 305.5zM165 717q0 -167 47.5 -298.5t132 -223.5t201.5 -140.5 t256 -48.5q141 0 258.5 48.5t201.5 140.5t130.5 223.5t46.5 298.5t-46.5 299t-130.5 224t-201.5 141t-258.5 49q-139 0 -256 -49t-201.5 -141t-132 -224t-47.5 -299zM567 1826h23q0 -54 11 -96t36 -71.5t66 -45t100 -15.5q58 0 99 15.5t66 45t36.5 71.5t11.5 96h22 q0 -125 -54.5 -186.5t-180.5 -61.5t-181 61.5t-55 186.5z" />
<glyph unicode="&#x14f;" horiz-adv-x="1127" d="M125 0zM125 502q0 117 28.5 212.5t84.5 163t137.5 105t187.5 37.5q105 0 187.5 -37.5t138 -105t84 -163.5t28.5 -212q0 -117 -28.5 -211.5t-84 -162.5t-137.5 -104t-188 -36t-187.5 36t-137.5 104t-84.5 162.5t-28.5 211.5zM150 502q0 -111 26 -202t77.5 -155.5 t129 -100.5t180.5 -36q102 0 180 36t130 100.5t78 155.5t26 202t-26 202.5t-78 157t-129.5 101.5t-180.5 36t-180.5 -36t-129 -101.5t-77.5 -157.5t-26 -202zM351 1434h20q0 -42 10.5 -80.5t33.5 -68t59.5 -47t91.5 -17.5q53 0 90.5 17.5t60.5 47t33 68t10 80.5h21 q0 -48 -12 -90t-38 -74.5t-67 -51t-98 -18.5t-98.5 18.5t-67.5 51t-37.5 74t-11.5 90.5z" />
<glyph unicode="&#x150;" horiz-adv-x="1605" d="M140 0zM140 717q0 169 49 304.5t136.5 231t208.5 146.5t268 51t269 -50.5t209.5 -146t136 -231t48.5 -305.5t-48.5 -305.5t-136 -230t-209.5 -145t-269 -50.5q-146 0 -267.5 50.5t-209 145t-136.5 230t-49 305.5zM165 717q0 -167 47.5 -298.5t132 -223.5t201.5 -140.5 t256 -48.5q141 0 258.5 48.5t201.5 140.5t130.5 223.5t46.5 298.5t-46.5 299t-130.5 224t-201.5 141t-258.5 49q-139 0 -256 -49t-201.5 -141t-132 -224t-47.5 -299zM630 1575l174 249q9 13 18 17.5t27 4.5h20l-209 -263q-5 -8 -16 -8h-14zM929 1575l194 249q11 14 19.5 18 t25.5 4h25l-234 -263q-8 -8 -16 -8h-14z" />
<glyph unicode="&#x151;" horiz-adv-x="1127" d="M125 0zM125 502q0 117 28.5 212.5t84.5 163t137.5 105t187.5 37.5q105 0 187.5 -37.5t138 -105t84 -163.5t28.5 -212q0 -117 -28.5 -211.5t-84 -162.5t-137.5 -104t-188 -36t-187.5 36t-137.5 104t-84.5 162.5t-28.5 211.5zM150 502q0 -111 26 -202t77.5 -155.5 t129 -100.5t180.5 -36q102 0 180 36t130 100.5t78 155.5t26 202t-26 202.5t-78 157t-129.5 101.5t-180.5 36t-180.5 -36t-129 -101.5t-77.5 -157.5t-26 -202zM432 1186l168 241q9 14 17.5 18.5t25.5 4.5h23l-203 -256q-5 -8 -16 -8h-15zM650 1186l188 241q11 14 18.5 18.5 t24.5 4.5h27l-228 -256q-5 -8 -16 -8h-14z" />
<glyph unicode="&#x152;" horiz-adv-x="2273" d="M142 717q0 169 44 304.5t123 231t188.5 146.5t240.5 51q114 0 210 -36t171 -104t126 -165.5t75 -221.5v511h836v-23h-814v-672h691v-22h-691v-694h816l-2 -23h-836v511q-24 -124 -75 -221t-126 -164.5t-171 -102.5t-210 -35q-131 0 -240.5 50t-188.5 144t-123 229.5 t-44 305.5zM167 717q0 -167 42.5 -298.5t119.5 -223t182 -139.5t231 -48q127 0 233 48t182.5 139.5t118.5 223t42 298.5t-42 299t-118.5 224t-182.5 141t-233 49q-126 0 -231 -49t-182 -141t-119.5 -224t-42.5 -299z" />
<glyph unicode="&#x153;" horiz-adv-x="1775" d="M126 502q0 117 26.5 212.5t79 163t128.5 105t176 37.5q86 0 153.5 -28t117 -81t80.5 -127.5t43 -167.5q10 91 40.5 165.5t80 128t117 82t150.5 28.5q72 0 133.5 -28.5t108 -85.5t72.5 -142t26 -197q0 -10 -10 -10h-704q-1 -8 -1 -17.5v-17.5q0 -125 27 -220.5t77 -160.5 t120 -99t155 -34q75 0 129.5 18.5t91.5 41t57 41t25 18.5q4 0 8 -4l4 -4q-15 -22 -46 -45t-73 -42.5t-92.5 -31.5t-103.5 -12q-82 0 -148.5 27.5t-116 81t-81.5 129.5t-44 174q-10 -95 -41 -171t-80.5 -130t-118.5 -82.5t-156 -28.5q-99 0 -175.5 36t-129 104t-79 162.5 t-26.5 211.5zM151 502q0 -111 24 -202t72 -155.5t120.5 -100.5t168.5 -36q95 0 166.5 36t119.5 100.5t72.5 155.5t24.5 202t-24.5 202.5t-72.5 157t-119.5 101.5t-166.5 36q-96 0 -168.5 -36t-120.5 -101.5t-72 -157.5t-24 -202zM944 575h693q0 105 -24.5 185t-67.5 133 t-100.5 79.5t-124.5 26.5q-84 0 -151 -30.5t-114.5 -86.5t-76 -133.5t-34.5 -173.5z" />
<glyph unicode="&#x154;" horiz-adv-x="1209" d="M238 0v1434h331q224 0 344.5 -87t120.5 -272q0 -87 -33.5 -157t-95 -119t-147 -77t-189.5 -30q10 -4 18.5 -10.5t16.5 -15.5l559 -666h-16q-8 0 -13.5 1.5t-13.5 10.5l-536 643q-8 10 -17 17.5t-19.5 12t-25.5 6t-37 1.5h-223v-692h-24zM238 0zM262 713h289 q105 0 189.5 25t144.5 71.5t92.5 113.5t32.5 152q0 175 -114 256.5t-327 81.5h-307v-700zM486 1575l288 287q8 8 16.5 11t26.5 3h36l-337 -295q-4 -4 -8.5 -5t-9.5 -1h-12z" />
<glyph unicode="&#x155;" horiz-adv-x="704" d="M188 0v1004h7q14 0 14 -17l3 -277q22 74 52 131.5t71.5 97.5t95 60.5t122.5 20.5q30 0 61 -4.5t56 -18.5l-4 -8q-2 -3 -4 -5.5t-7 -2.5t-13 2.5t-20 5.5t-28.5 5.5t-40.5 2.5q-68 0 -120 -21.5t-93 -63.5t-71.5 -105.5t-55.5 -147.5v-659h-25zM188 0zM362 1186l168 241 q9 14 17.5 18.5t25.5 4.5h27l-207 -256q-5 -8 -17 -8h-14z" />
<glyph unicode="&#x156;" horiz-adv-x="1209" d="M238 0v1434h331q224 0 344.5 -87t120.5 -272q0 -87 -33.5 -157t-95 -119t-147 -77t-189.5 -30q10 -4 18.5 -10.5t16.5 -15.5l559 -666h-16q-8 0 -13.5 1.5t-13.5 10.5l-536 643q-8 10 -17 17.5t-19.5 12t-25.5 6t-37 1.5h-223v-692h-24zM238 0zM262 713h289 q105 0 189.5 25t144.5 71.5t92.5 113.5t32.5 152q0 175 -114 256.5t-327 81.5h-307v-700zM569 -399l47 286h10q16 0 17 -22q0 -11 -3.5 -30.5t-10.5 -50t-16.5 -72t-22.5 -97.5q-2 -6 -4.5 -10t-10.5 -4h-6z" />
<glyph unicode="&#x157;" horiz-adv-x="704" d="M137 0zM137 -399l47 286h10q16 0 17 -22q0 -11 -3.5 -30.5t-10.5 -50t-16.5 -72t-22.5 -97.5q-2 -6 -4.5 -10t-10.5 -4h-6zM188 0v1004h7q14 0 14 -17l3 -277q22 74 52 131.5t71.5 97.5t95 60.5t122.5 20.5q30 0 61 -4.5t56 -18.5l-4 -8q-2 -3 -4 -5.5t-7 -2.5t-13 2.5 t-20 5.5t-28.5 5.5t-40.5 2.5q-68 0 -120 -21.5t-93 -63.5t-71.5 -105.5t-55.5 -147.5v-659h-25z" />
<glyph unicode="&#x158;" horiz-adv-x="1209" d="M238 0v1434h331q224 0 344.5 -87t120.5 -272q0 -87 -33.5 -157t-95 -119t-147 -77t-189.5 -30q10 -4 18.5 -10.5t16.5 -15.5l559 -666h-16q-8 0 -13.5 1.5t-13.5 10.5l-536 643q-8 10 -17 17.5t-19.5 12t-25.5 6t-37 1.5h-223v-692h-24zM238 0zM262 713h289 q105 0 189.5 25t144.5 71.5t92.5 113.5t32.5 152q0 175 -114 256.5t-327 81.5h-307v-700zM318 1845h20q5 0 10.5 -1.5t10.5 -6.5l201 -240l4 -5l4 5l200 240q5 5 10.5 6.5t10.5 1.5h20l-237 -270h-17z" />
<glyph unicode="&#x159;" horiz-adv-x="704" d="M188 0v1004h7q14 0 14 -17l3 -277q22 74 52 131.5t71.5 97.5t95 60.5t122.5 20.5q30 0 61 -4.5t56 -18.5l-4 -8q-2 -3 -4 -5.5t-7 -2.5t-13 2.5t-20 5.5t-28.5 5.5t-40.5 2.5q-68 0 -120 -21.5t-93 -63.5t-71.5 -105.5t-55.5 -147.5v-659h-25zM188 0zM202 1434h19 q8 0 16 -9l184 -200l7 -7l6 7l184 200q8 8 16 9h19l-217 -236h-17z" />
<glyph unicode="&#x15a;" horiz-adv-x="1083" d="M113 0zM113 170l4 4q3 3 5 4.5t7 1.5q6 0 18 -12.5t32.5 -32.5t49 -42.5t69.5 -42.5t93.5 -33t120.5 -13q99 0 176.5 32t131 85.5t82 125t28.5 152.5q0 68 -21 117t-57 84.5t-83.5 60.5t-102 45t-110.5 37t-110.5 37.5t-102 46.5t-83.5 63.5t-57 89t-21 122.5 q0 69 25.5 131.5t75 111t121.5 77t165 28.5q104 0 185 -34t151 -107l-4 -6q-3 -6 -10 -7q-7 0 -17.5 10t-27 25t-40.5 32t-57.5 32t-77.5 25t-102 10q-88 0 -156 -27.5t-114 -72.5t-70 -104.5t-24 -123.5q0 -83 32 -138.5t84.5 -93t120 -63t137 -48.5t137 -48.5t120 -65 t84.5 -97.5t32 -145q0 -88 -29.5 -164t-86 -133t-138.5 -89.5t-186 -32.5q-73 0 -130 12.5t-105 36.5t-87.5 58.5t-76.5 78.5zM513 1575l288 287q8 8 16.5 11t26.5 3h36l-337 -295q-4 -4 -8.5 -5t-9.5 -1h-12z" />
<glyph unicode="&#x15b;" horiz-adv-x="857" d="M111 0zM111 104l6 7q3 3 5 4.5t7 1.5q8 0 26.5 -17.5t52 -39t84.5 -39t125 -17.5t130.5 21.5t95.5 59t59 87t20 107.5t-25.5 96.5t-67 65t-95 44.5t-108.5 34.5t-108.5 34.5t-95 45.5t-67 67.5t-25.5 99q0 50 22.5 95.5t63.5 81t98 56.5t125 21q85 0 149.5 -23t125.5 -75 l-4 -7q-3 -6 -11 -6t-24 14t-46 31t-76 31t-114 14q-63 0 -116 -19t-90.5 -51.5t-58.5 -74.5t-21 -88q0 -54 25.5 -90.5t67 -61.5t94.5 -42.5t108.5 -34.5t108.5 -36t94.5 -47.5t67 -70t25.5 -102.5t-22 -115.5t-64 -94.5t-102.5 -63.5t-138.5 -23.5q-54 0 -97.5 8.5t-79 24 t-67.5 38t-62 49.5zM377 1186l168 241q9 14 17.5 18.5t25.5 4.5h27l-207 -256q-5 -8 -17 -8h-14z" />
<glyph unicode="&#x15c;" horiz-adv-x="1083" d="M113 0zM113 170l4 4q3 3 5 4.5t7 1.5q6 0 18 -12.5t32.5 -32.5t49 -42.5t69.5 -42.5t93.5 -33t120.5 -13q99 0 176.5 32t131 85.5t82 125t28.5 152.5q0 68 -21 117t-57 84.5t-83.5 60.5t-102 45t-110.5 37t-110.5 37.5t-102 46.5t-83.5 63.5t-57 89t-21 122.5 q0 69 25.5 131.5t75 111t121.5 77t165 28.5q104 0 185 -34t151 -107l-4 -6q-3 -6 -10 -7q-7 0 -17.5 10t-27 25t-40.5 32t-57.5 32t-77.5 25t-102 10q-88 0 -156 -27.5t-114 -72.5t-70 -104.5t-24 -123.5q0 -83 32 -138.5t84.5 -93t120 -63t137 -48.5t137 -48.5t120 -65 t84.5 -97.5t32 -145q0 -88 -29.5 -164t-86 -133t-138.5 -89.5t-186 -32.5q-73 0 -130 12.5t-105 36.5t-87.5 58.5t-76.5 78.5zM345 1575l237 270h17l237 -270h-20q-5 0 -10 1.5t-11 6.5l-200 229q-2 1 -4 6l-4 -6l-201 -229q-5 -5 -10.5 -6.5t-10.5 -1.5h-20z" />
<glyph unicode="&#x15d;" horiz-adv-x="857" d="M111 0zM111 104l6 7q3 3 5 4.5t7 1.5q8 0 26.5 -17.5t52 -39t84.5 -39t125 -17.5t130.5 21.5t95.5 59t59 87t20 107.5t-25.5 96.5t-67 65t-95 44.5t-108.5 34.5t-108.5 34.5t-95 45.5t-67 67.5t-25.5 99q0 50 22.5 95.5t63.5 81t98 56.5t125 21q85 0 149.5 -23t125.5 -75 l-4 -7q-3 -6 -11 -6t-24 14t-46 31t-76 31t-114 14q-63 0 -116 -19t-90.5 -51.5t-58.5 -74.5t-21 -88q0 -54 25.5 -90.5t67 -61.5t94.5 -42.5t108.5 -34.5t108.5 -36t94.5 -47.5t67 -70t25.5 -102.5t-22 -115.5t-64 -94.5t-102.5 -63.5t-138.5 -23.5q-54 0 -97.5 8.5t-79 24 t-67.5 38t-62 49.5zM217 1198l217 236h17l217 -236h-19q-8 0 -16 8l-184 201l-6 6l-7 -6l-184 -201q-3 -3 -7 -5.5t-9 -2.5h-19z" />
<glyph unicode="&#x15e;" horiz-adv-x="1083" d="M113 170l4 4q3 3 5 4.5t7 1.5q6 0 18 -12.5t32.5 -32.5t49 -42.5t69.5 -42.5t93.5 -33t120.5 -13q99 0 176.5 32t131 85.5t82 125t28.5 152.5q0 68 -21 117t-57 84.5t-83.5 60.5t-102 45t-110.5 37t-110.5 37.5t-102 46.5t-83.5 63.5t-57 89t-21 122.5q0 69 25.5 131.5 t75 111t121.5 77t165 28.5q104 0 185 -34t151 -107l-4 -6q-3 -6 -10 -7q-7 0 -17.5 10t-27 25t-40.5 32t-57.5 32t-77.5 25t-102 10q-88 0 -156 -27.5t-114 -72.5t-70 -104.5t-24 -123.5q0 -83 32 -138.5t84.5 -93t120 -63t137 -48.5t137 -48.5t120 -65t84.5 -97.5t32 -145 q0 -82 -26 -154t-75 -127.5t-121.5 -91t-164.5 -43.5l-30 -99q44 -7 79.5 -16t61 -24.5t40 -37.5t14.5 -54q0 -30 -11.5 -52t-33 -38t-51 -24.5t-64.5 -8.5q-42 0 -83 15t-64 39l4 4q6 6 10 6t13.5 -7t26 -15.5t40.5 -15.5t60 -7q61 0 96 27t35 75q0 32 -15.5 52.5t-42 33.5 t-62.5 19.5t-77 11.5l36 114q-8 0 -17.5 -0.5t-17.5 -0.5q-73 0 -130 12.5t-105 36.5t-87.5 58.5t-76.5 78.5z" />
<glyph unicode="&#x15f;" horiz-adv-x="857" d="M111 104l6 7q3 3 5 4.5t7 1.5q8 0 26.5 -17.5t52 -39t84.5 -39t125 -17.5t130.5 21.5t95.5 59t59 87t20 107.5t-25.5 96.5t-67 65t-95 44.5t-108.5 34.5t-108.5 34.5t-95 45.5t-67 67.5t-25.5 99q0 50 22.5 95.5t63.5 81t98 56.5t125 21q85 0 149.5 -23t125.5 -75l-4 -7 q-3 -6 -11 -6t-24 14t-46 31t-76 31t-114 14q-63 0 -116 -19t-90.5 -51.5t-58.5 -74.5t-21 -88q0 -54 25.5 -90.5t67 -61.5t94.5 -42.5t108.5 -34.5t108.5 -36t94.5 -47.5t67 -70t25.5 -102.5t-22 -115.5t-64 -94.5t-102.5 -63.5t-138.5 -23.5h-2l-31 -96q44 -7 80 -16 t61.5 -24.5t40 -37.5t14.5 -54q0 -30 -12 -52t-33.5 -38t-50.5 -24.5t-64 -8.5q-42 0 -83 15t-65 39l4 4q7 6 11 6t13 -7t25.5 -15.5t40.5 -15.5t60 -7q61 0 96 27t35 75q0 32 -15.5 52.5t-42 33.5t-62.5 19.5t-77 11.5l36 114q-49 1 -89 10t-73.5 24.5t-64 37t-58.5 47.5z " />
<glyph unicode="&#x160;" horiz-adv-x="1083" d="M113 0zM113 170l4 4q3 3 5 4.5t7 1.5q6 0 18 -12.5t32.5 -32.5t49 -42.5t69.5 -42.5t93.5 -33t120.5 -13q99 0 176.5 32t131 85.5t82 125t28.5 152.5q0 68 -21 117t-57 84.5t-83.5 60.5t-102 45t-110.5 37t-110.5 37.5t-102 46.5t-83.5 63.5t-57 89t-21 122.5 q0 69 25.5 131.5t75 111t121.5 77t165 28.5q104 0 185 -34t151 -107l-4 -6q-3 -6 -10 -7q-7 0 -17.5 10t-27 25t-40.5 32t-57.5 32t-77.5 25t-102 10q-88 0 -156 -27.5t-114 -72.5t-70 -104.5t-24 -123.5q0 -83 32 -138.5t84.5 -93t120 -63t137 -48.5t137 -48.5t120 -65 t84.5 -97.5t32 -145q0 -88 -29.5 -164t-86 -133t-138.5 -89.5t-186 -32.5q-73 0 -130 12.5t-105 36.5t-87.5 58.5t-76.5 78.5zM345 1845h20q5 0 10.5 -1.5t10.5 -6.5l201 -240l4 -5l4 5l200 240q5 5 10.5 6.5t10.5 1.5h20l-237 -270h-17z" />
<glyph unicode="&#x161;" horiz-adv-x="857" d="M111 0zM111 104l6 7q3 3 5 4.5t7 1.5q8 0 26.5 -17.5t52 -39t84.5 -39t125 -17.5t130.5 21.5t95.5 59t59 87t20 107.5t-25.5 96.5t-67 65t-95 44.5t-108.5 34.5t-108.5 34.5t-95 45.5t-67 67.5t-25.5 99q0 50 22.5 95.5t63.5 81t98 56.5t125 21q85 0 149.5 -23t125.5 -75 l-4 -7q-3 -6 -11 -6t-24 14t-46 31t-76 31t-114 14q-63 0 -116 -19t-90.5 -51.5t-58.5 -74.5t-21 -88q0 -54 25.5 -90.5t67 -61.5t94.5 -42.5t108.5 -34.5t108.5 -36t94.5 -47.5t67 -70t25.5 -102.5t-22 -115.5t-64 -94.5t-102.5 -63.5t-138.5 -23.5q-54 0 -97.5 8.5t-79 24 t-67.5 38t-62 49.5zM217 1434h19q8 0 16 -9l184 -200l7 -7l6 7l184 200q8 8 16 9h19l-217 -236h-17z" />
<glyph unicode="&#x162;" horiz-adv-x="1165" d="M30 1411v23h1106v-23h-539v-1411h4l-36 -112q44 -7 80 -16t61.5 -24.5t40 -37.5t14.5 -54q0 -30 -12 -52t-33.5 -38t-50.5 -24.5t-64 -8.5q-42 0 -83 15t-64 39l4 4q6 6 10 6t13 -7t25.5 -15.5t40.5 -15.5t60 -7q61 0 96 27t35 75q0 32 -15 52.5t-42 33.5t-62.5 19.5 t-76.5 11.5l41 129h-11v1411h-542z" />
<glyph unicode="&#x163;" horiz-adv-x="672" d="M65 950v6l180 5l8 403q0 5 2.5 9.5t7.5 4.5h6v-417h342v-21h-342v-750q0 -51 13 -86t35.5 -57t52 -32.5t63.5 -10.5q43 0 75.5 13.5t55 28.5t36 28.5t20.5 13.5q4 0 8 -4l4 -4q-30 -39 -80.5 -65.5t-106.5 -29.5l-30 -97q44 -7 79.5 -16t61.5 -24.5t40 -37.5t14 -54 q0 -30 -11.5 -52t-33 -38t-51 -24.5t-63.5 -8.5q-42 0 -83 15t-65 39l4 4q6 6 10 6t13.5 -7t26 -15.5t40.5 -15.5t60 -7q61 0 96 27t35 75q0 32 -15.5 52.5t-42 33.5t-62.5 19.5t-77 11.5l36 113q-43 1 -77 12.5t-57.5 36.5t-35.5 64t-12 93v750h-166q-14 0 -14 10z" />
<glyph unicode="&#x164;" horiz-adv-x="1165" d="M30 0zM30 1411v23h1106v-23h-539v-1411h-25v1411h-542zM339 1845h20q5 0 10.5 -1.5t10.5 -6.5l201 -240l4 -5l4 5l200 240q5 5 10.5 6.5t10.5 1.5h20l-237 -270h-17z" />
<glyph unicode="&#x165;" horiz-adv-x="668" d="M60 0zM61 950v6l180 5l8 403q0 5 2.5 9.5t7.5 4.5h6v-417h342v-21h-342v-750q0 -51 13 -86t35.5 -57t52 -32.5t63.5 -10.5q43 0 75.5 13.5t55 28.5t36 28.5t20.5 13.5q4 0 8 -4l4 -4q-15 -20 -37.5 -38t-48.5 -31t-55 -20t-58 -7q-88 0 -138 48t-50 158v750h-166 q-14 0 -14 10zM603 1190l47 287h10q16 0 17 -23q0 -11 -4 -30.5t-10.5 -50t-16 -71.5t-23.5 -98q-2 -6 -4 -10t-10 -4h-6z" />
<glyph unicode="&#x166;" horiz-adv-x="1206" d="M50 1411v23h1106v-23h-539v-543h365v-20h-365v-848h-24v848h-369v20h369v543h-543z" />
<glyph unicode="&#x167;" horiz-adv-x="678" d="M69 950v6l180 5l8 403q0 5 2.5 9.5t7.5 4.5h6v-417h342v-21h-342v-235h335v-21h-335v-494q0 -51 13 -86t35.5 -57t52 -32.5t63.5 -10.5q43 0 75.5 13.5t55 28.5t36 28.5t20.5 13.5q4 0 8 -4l4 -4q-15 -20 -37 -38t-48.5 -31t-55.5 -20t-58 -7q-88 0 -138 48t-50 158v494 h-171v21h171v235h-166q-14 0 -14 10z" />
<glyph unicode="&#x168;" horiz-adv-x="1474" d="M219 0zM219 532v902h25v-899q0 -110 33.5 -207t97 -169t155 -113.5t207.5 -41.5t207.5 41.5t155 113t97.5 168t34 205.5v902h24v-902q0 -114 -35.5 -214t-103 -174.5t-163.5 -118t-216 -43.5t-215.5 43.5t-163 118t-103.5 175t-36 213.5zM488 1595q0 28 9 53t26 43.5 t41.5 30t54.5 11.5q34 0 66 -18.5t63 -41t61 -41t60 -18.5q51 0 80.5 33.5t31.5 83.5h17q0 -28 -9 -53t-25 -43.5t-40.5 -30t-54.5 -11.5q-33 0 -65.5 18.5t-63 41t-61 41t-60.5 18.5q-25 0 -45.5 -9t-35 -25t-23 -37.5t-9.5 -45.5h-18z" />
<glyph unicode="&#x169;" horiz-adv-x="1111" d="M177 0zM177 360v644h25v-644q0 -84 18.5 -150t56.5 -112t95.5 -70t136.5 -24q118 0 216.5 62.5t174.5 173.5v764h25v-1004h-6q-14 0 -15 16l-4 193q-36 -51 -79 -93t-93 -71.5t-105.5 -45t-113.5 -15.5q-168 0 -250 99t-82 277zM328 1253q0 28 8 53t23 43.5t37.5 30 t52.5 11.5q34 0 62.5 -18.5t55.5 -41t54 -41t57 -18.5q51 0 76 33.5t27 83.5h16q0 -28 -7 -53t-21.5 -43.5t-37 -30t-53.5 -11.5q-33 0 -61.5 18.5t-56 41t-54.5 41t-57 18.5q-25 0 -43.5 -9t-31.5 -25t-19.5 -37.5t-7.5 -45.5h-19z" />
<glyph unicode="&#x16a;" horiz-adv-x="1474" d="M219 0zM219 532v902h25v-899q0 -110 33.5 -207t97 -169t155 -113.5t207.5 -41.5t207.5 41.5t155 113t97.5 168t34 205.5v902h24v-902q0 -114 -35.5 -214t-103 -174.5t-163.5 -118t-216 -43.5t-215.5 43.5t-163 118t-103.5 175t-36 213.5zM502 1671v21h471v-21h-471z" />
<glyph unicode="&#x16b;" horiz-adv-x="1111" d="M177 0zM177 360v644h25v-644q0 -84 18.5 -150t56.5 -112t95.5 -70t136.5 -24q118 0 216.5 62.5t174.5 173.5v764h25v-1004h-6q-14 0 -15 16l-4 193q-36 -51 -79 -93t-93 -71.5t-105.5 -45t-113.5 -15.5q-168 0 -250 99t-82 277zM291 1300v21h533v-21h-533z" />
<glyph unicode="&#x16c;" horiz-adv-x="1474" d="M219 0zM219 532v902h25v-899q0 -110 33.5 -207t97 -169t155 -113.5t207.5 -41.5t207.5 41.5t155 113t97.5 168t34 205.5v902h24v-902q0 -114 -35.5 -214t-103 -174.5t-163.5 -118t-216 -43.5t-215.5 43.5t-163 118t-103.5 175t-36 213.5zM501 1826h23q0 -54 11 -96 t36 -71.5t66 -45t100 -15.5q58 0 99 15.5t66 45t36.5 71.5t11.5 96h22q0 -125 -54.5 -186.5t-180.5 -61.5t-181 61.5t-55 186.5z" />
<glyph unicode="&#x16d;" horiz-adv-x="1111" d="M177 0zM177 360v644h25v-644q0 -84 18.5 -150t56.5 -112t95.5 -70t136.5 -24q118 0 216.5 62.5t174.5 173.5v764h25v-1004h-6q-14 0 -15 16l-4 193q-36 -51 -79 -93t-93 -71.5t-105.5 -45t-113.5 -15.5q-168 0 -250 99t-82 277zM343 1434h20q0 -42 10.5 -80.5t33.5 -68 t59.5 -47t91.5 -17.5q53 0 90.5 17.5t60.5 47t33 68t10 80.5h21q0 -48 -12 -90t-38 -74.5t-67 -51t-98 -18.5t-98.5 18.5t-67.5 51t-37.5 74t-11.5 90.5z" />
<glyph unicode="&#x16e;" horiz-adv-x="1474" d="M219 0zM219 532v902h25v-899q0 -110 33.5 -207t97 -169t155 -113.5t207.5 -41.5t207.5 41.5t155 113t97.5 168t34 205.5v902h24v-902q0 -114 -35.5 -214t-103 -174.5t-163.5 -118t-216 -43.5t-215.5 43.5t-163 118t-103.5 175t-36 213.5zM586 1714q0 32 12 58.5 t32.5 46.5t48 31.5t59.5 11.5t59.5 -11.5t48 -31.5t32 -46.5t11.5 -58.5t-11.5 -58.5t-32 -46.5t-48.5 -31t-59 -11q-32 0 -59.5 11t-48 31t-32.5 46.5t-12 58.5zM609 1714q0 -28 9.5 -51.5t27 -40.5t41 -27t51.5 -10t51 10t40.5 27t27.5 41t10 51q0 28 -10 51.5t-27.5 41 t-41 27t-50.5 9.5q-28 0 -51.5 -9.5t-41 -27t-27 -41t-9.5 -51.5z" />
<glyph unicode="&#x16f;" horiz-adv-x="1111" d="M177 0zM177 360v644h25v-644q0 -84 18.5 -150t56.5 -112t95.5 -70t136.5 -24q118 0 216.5 62.5t174.5 173.5v764h25v-1004h-6q-14 0 -15 16l-4 193q-36 -51 -79 -93t-93 -71.5t-105.5 -45t-113.5 -15.5q-168 0 -250 99t-82 277zM406 1321q0 32 12 58.5t32.5 46.5t48 31 t59.5 11t59.5 -11t48 -31t32 -46.5t11.5 -58.5t-11.5 -58.5t-32 -46.5t-48.5 -31t-59 -11q-32 0 -59.5 11t-48 31t-32.5 46.5t-12 58.5zM429 1321q0 -28 9.5 -51.5t27 -41t41 -27t51.5 -9.5t51 9.5t40.5 27t27.5 41t10 51.5t-10 51.5t-27.5 41t-41 27t-50.5 9.5 q-28 0 -51.5 -9.5t-41 -27t-27 -41t-9.5 -51.5z" />
<glyph unicode="&#x170;" horiz-adv-x="1474" d="M219 0zM219 532v902h25v-899q0 -110 33.5 -207t97 -169t155 -113.5t207.5 -41.5t207.5 41.5t155 113t97.5 168t34 205.5v902h24v-902q0 -114 -35.5 -214t-103 -174.5t-163.5 -118t-216 -43.5t-215.5 43.5t-163 118t-103.5 175t-36 213.5zM564 1575l174 249q9 13 18 17.5 t27 4.5h20l-209 -263q-5 -8 -16 -8h-14zM863 1575l194 249q11 14 19.5 18t25.5 4h25l-234 -263q-8 -8 -16 -8h-14z" />
<glyph unicode="&#x171;" horiz-adv-x="1111" d="M177 0zM177 360v644h25v-644q0 -84 18.5 -150t56.5 -112t95.5 -70t136.5 -24q118 0 216.5 62.5t174.5 173.5v764h25v-1004h-6q-14 0 -15 16l-4 193q-36 -51 -79 -93t-93 -71.5t-105.5 -45t-113.5 -15.5q-168 0 -250 99t-82 277zM424 1186l168 241q9 14 17.5 18.5 t25.5 4.5h23l-203 -256q-5 -8 -16 -8h-15zM642 1186l188 241q11 14 18.5 18.5t24.5 4.5h27l-228 -256q-5 -8 -16 -8h-14z" />
<glyph unicode="&#x172;" horiz-adv-x="1474" d="M219 532v902h25v-899q0 -110 33.5 -207t97 -169t155.5 -113.5t207 -41.5q116 0 207.5 41.5t155 113t97.5 168t34 205.5v902h24v-902q0 -109 -32.5 -205t-94 -169.5t-149 -119.5t-198.5 -54q-20 -12 -44.5 -31.5t-45 -44t-34.5 -54.5t-14 -65q0 -57 39.5 -89t97.5 -32 q33 0 56 7.5t38.5 15.5t24.5 15t14 7q4 0 9 -4l6 -6q-27 -27 -67 -41t-83 -14q-68 0 -112.5 35.5t-44.5 105.5q0 31 11 58.5t29 52t40 45t44 37.5h-8q-120 0 -215.5 43.5t-163 118t-103.5 175t-36 213.5z" />
<glyph unicode="&#x173;" horiz-adv-x="1111" d="M177 360v644h25v-644q0 -84 18.5 -150t56.5 -112t95.5 -70t136.5 -24q118 0 216.5 62.5t174.5 173.5v764h25v-1004q-20 -11 -46.5 -30t-49.5 -44.5t-38.5 -57.5t-15.5 -69q0 -57 39.5 -89t97.5 -32q33 0 56 7.5t38.5 15.5t25 15.5t14.5 7.5q4 0 8 -5l6 -6 q-27 -27 -67 -41t-83 -14q-68 0 -112.5 36t-44.5 105q0 36 14.5 68t36.5 58.5t49 47.5t51 36v7l-4 193q-36 -51 -79 -93t-93 -71.5t-105.5 -45t-113.5 -15.5q-168 0 -250 99t-82 277z" />
<glyph unicode="&#x174;" horiz-adv-x="2050" d="M63 0zM63 1434h19q9 0 12 -11l419 -1338l15 -54q6 31 16 54l466 1338q3 10 14 11h4q9 0 12 -11l466 -1338l16 -54q6 31 15 54l419 1338q3 10 14 11h17l-455 -1434h-21l-477 1376q-6 19 -9 32q-3 -12 -9 -32l-477 -1376h-21zM778 1575l237 270h17l237 -270h-20 q-5 0 -10 1.5t-11 6.5l-200 229q-2 1 -4 6l-4 -6l-201 -229q-5 -5 -10.5 -6.5t-10.5 -1.5h-20z" />
<glyph unicode="&#x175;" horiz-adv-x="1529" d="M67 0zM67 1004h14q8 0 12 -5t6 -10l308 -919q4 -11 7.5 -21.5t5.5 -21.5q4 20 13 43l320 929q3 10 10 11h6q7 0 10 -11l318 -929q4 -11 7 -20.5t5 -20.5q2 11 6 20t8 21l308 919q7 14 18 15h14l-344 -1004h-10q-9 0 -12 10l-322 934q-6 16 -9 29q-2 -7 -4.5 -14t-4.5 -15 l-326 -934q-3 -10 -10 -10h-10zM543 1198l217 236h17l217 -236h-19q-8 0 -16 8l-184 201l-6 6l-7 -6l-184 -201q-3 -3 -7 -5.5t-9 -2.5h-19z" />
<glyph unicode="&#x176;" horiz-adv-x="1167" d="M37 0zM37 1434h20q9 0 15 -9l482 -747q8 -13 16 -25t14 -24q5 12 13 24t16 25l483 747q5 8 14 9h20l-534 -825v-609h-25v609zM338 1575l237 270h17l237 -270h-20q-5 0 -10 1.5t-11 6.5l-200 229q-2 1 -4 6l-4 -6l-201 -229q-5 -5 -10.5 -6.5t-10.5 -1.5h-20z" />
<glyph unicode="&#x177;" horiz-adv-x="1002" d="M56 0zM56 1004h15q8 0 13 -5t7 -10l399 -911q4 -9 8 -18.5t6 -19.5q2 10 5.5 19.5t7.5 18.5l399 911q7 14 19 15h14l-592 -1350q-3 -8 -9 -15.5t-15 -7.5h-15l172 386zM306 1198l217 236h17l217 -236h-19q-8 0 -16 8l-184 201l-6 6l-7 -6l-184 -201q-3 -3 -7 -5.5 t-9 -2.5h-19z" />
<glyph unicode="&#x178;" horiz-adv-x="1167" d="M37 0zM37 1434h20q9 0 15 -9l482 -747q8 -13 16 -25t14 -24q5 12 13 24t16 25l483 747q5 8 14 9h20l-534 -825v-609h-25v609zM338 1704q0 24 17 40.5t40 16.5q22 0 40 -16.5t18 -40.5q0 -22 -18 -38.5t-40 -16.5q-24 0 -40.5 16.5t-16.5 38.5zM715 1704q0 24 16.5 40.5 t40.5 16.5q22 0 39.5 -16.5t17.5 -40.5q0 -22 -17.5 -38.5t-39.5 -16.5q-24 0 -40.5 16.5t-16.5 38.5z" />
<glyph unicode="&#x179;" horiz-adv-x="1216" d="M85 0v4q0 6 1.5 9.5t4.5 9.5l1000 1388h-990v23h1024v-4q0 -9 -8 -21l-997 -1386h1003v-23h-1038zM85 0zM542 1575l288 287q8 8 16.5 11t26.5 3h36l-337 -295q-4 -4 -8.5 -5t-9.5 -1h-12z" />
<glyph unicode="&#x17a;" horiz-adv-x="894" d="M76 0v6q0 5 1.5 7t4.5 7l703 963h-674v21h708v-11q0 -3 -1.5 -5t-4.5 -7l-702 -961h677v-20h-712zM76 0zM403 1186l168 241q9 14 17.5 18.5t25.5 4.5h27l-207 -256q-5 -8 -17 -8h-14z" />
<glyph unicode="&#x17b;" horiz-adv-x="1216" d="M85 0v4q0 6 1.5 9.5t4.5 9.5l1000 1388h-990v23h1024v-4q0 -9 -8 -21l-997 -1386h1003v-23h-1038zM85 0zM560 1708q0 24 17 40.5t41 16.5q22 0 39.5 -16.5t17.5 -40.5q0 -22 -18 -38.5t-39 -16.5q-24 0 -41 17t-17 38z" />
<glyph unicode="&#x17c;" horiz-adv-x="892" d="M74 0v6q0 5 1.5 7t4.5 7l703 963h-674v21h708v-11q0 -3 -1.5 -5t-4.5 -7l-702 -961h677v-20h-712zM74 0zM409 1393q0 24 17 40.5t41 16.5q22 0 39.5 -16.5t17.5 -40.5q0 -22 -18 -39t-39 -17q-24 0 -41 17t-17 39z" />
<glyph unicode="&#x17d;" horiz-adv-x="1216" d="M85 0v4q0 6 1.5 9.5t4.5 9.5l1000 1388h-990v23h1024v-4q0 -9 -8 -21l-997 -1386h1003v-23h-1038zM85 0zM374 1845h20q5 0 10.5 -1.5t10.5 -6.5l201 -240l4 -5l4 5l200 240q5 5 10.5 6.5t10.5 1.5h20l-237 -270h-17z" />
<glyph unicode="&#x17e;" horiz-adv-x="892" d="M74 0v6q0 5 1.5 7t4.5 7l703 963h-674v21h708v-11q0 -3 -1.5 -5t-4.5 -7l-702 -961h677v-20h-712zM74 0zM241 1434h19q8 0 16 -9l184 -200l7 -7l6 7l184 200q8 8 16 9h19l-217 -236h-17z" />
<glyph unicode="&#x17f;" horiz-adv-x="499" d="M66 952v9h180v153q0 86 20.5 149t56.5 104t86.5 61t110.5 20q30 0 61.5 -5.5t53.5 -17.5l-2 -8q-2 -7 -10 -6t-21.5 4.5t-34 7.5t-47.5 4q-53 0 -98.5 -16.5t-79.5 -54t-53 -97.5t-19 -145v-1114h-24v940l-168 4q-12 0 -12 8z" />
<glyph unicode="&#x192;" horiz-adv-x="634" d="M-141 -379l2 7q2 6 5 7t5 1q7 0 37.5 -10.5t82.5 -10.5q108 0 166.5 69t58.5 207v1049l-168 4q-12 0 -12 8v9h180v153q0 86 20.5 149t56.5 104t86 61t110 20q30 0 62 -5.5t53 -17.5l-2 -8q-2 -7 -8 -6t-19 4.5t-34 7.5t-52 4q-53 0 -98.5 -16.5t-78.5 -54t-52 -97.5 t-19 -145v-153h357v-21h-357v-1049q0 -143 -64 -220t-185 -77q-36 0 -68.5 7t-64.5 20z" />
<glyph unicode="&#x218;" horiz-adv-x="1083" d="M113 0zM113 170l4 4q3 3 5 4.5t7 1.5q6 0 18 -12.5t32.5 -32.5t49 -42.5t69.5 -42.5t93.5 -33t120.5 -13q99 0 176.5 32t131 85.5t82 125t28.5 152.5q0 68 -21 117t-57 84.5t-83.5 60.5t-102 45t-110.5 37t-110.5 37.5t-102 46.5t-83.5 63.5t-57 89t-21 122.5 q0 69 25.5 131.5t75 111t121.5 77t165 28.5q104 0 185 -34t151 -107l-4 -6q-3 -6 -10 -7q-7 0 -17.5 10t-27 25t-40.5 32t-57.5 32t-77.5 25t-102 10q-88 0 -156 -27.5t-114 -72.5t-70 -104.5t-24 -123.5q0 -83 32 -138.5t84.5 -93t120 -63t137 -48.5t137 -48.5t120 -65 t84.5 -97.5t32 -145q0 -88 -29.5 -164t-86 -133t-138.5 -89.5t-186 -32.5q-73 0 -130 12.5t-105 36.5t-87.5 58.5t-76.5 78.5zM447 -399l47 286h10q16 0 17 -22q0 -11 -3.5 -30.5t-10.5 -50t-16.5 -72t-22.5 -97.5q-2 -6 -4.5 -10t-10.5 -4h-6z" />
<glyph unicode="&#x219;" horiz-adv-x="857" d="M111 0zM111 104l6 7q3 3 5 4.5t7 1.5q8 0 26.5 -17.5t52 -39t84.5 -39t125 -17.5t130.5 21.5t95.5 59t59 87t20 107.5t-25.5 96.5t-67 65t-95 44.5t-108.5 34.5t-108.5 34.5t-95 45.5t-67 67.5t-25.5 99q0 50 22.5 95.5t63.5 81t98 56.5t125 21q85 0 149.5 -23t125.5 -75 l-4 -7q-3 -6 -11 -6t-24 14t-46 31t-76 31t-114 14q-63 0 -116 -19t-90.5 -51.5t-58.5 -74.5t-21 -88q0 -54 25.5 -90.5t67 -61.5t94.5 -42.5t108.5 -34.5t108.5 -36t94.5 -47.5t67 -70t25.5 -102.5t-22 -115.5t-64 -94.5t-102.5 -63.5t-138.5 -23.5q-54 0 -97.5 8.5t-79 24 t-67.5 38t-62 49.5zM363 -399l47 286h10q16 0 17 -22q0 -11 -3.5 -30.5t-10.5 -50t-16.5 -72t-22.5 -97.5q-2 -6 -4.5 -10t-10.5 -4h-6z" />
<glyph unicode="&#x21a;" horiz-adv-x="1165" d="M30 0zM30 1411v23h1106v-23h-539v-1411h-25v1411h-542zM521 -399l47 286h10q16 0 17 -22q0 -11 -3.5 -30.5t-10.5 -50t-16.5 -72t-22.5 -97.5q-2 -6 -4.5 -10t-10.5 -4h-6z" />
<glyph unicode="&#x21b;" horiz-adv-x="668" d="M60 0zM61 950v6l180 5l8 403q0 5 2.5 9.5t7.5 4.5h6v-417h342v-21h-342v-750q0 -51 13 -86t35.5 -57t52 -32.5t63.5 -10.5q43 0 75.5 13.5t55 28.5t36 28.5t20.5 13.5q4 0 8 -4l4 -4q-15 -20 -37.5 -38t-48.5 -31t-55 -20t-58 -7q-88 0 -138 48t-50 158v750h-166 q-14 0 -14 10zM366 -399l47 286h10q16 0 17 -22q0 -11 -3.5 -30.5t-10.5 -50t-16.5 -72t-22.5 -97.5q-2 -6 -4.5 -10t-10.5 -4h-6z" />
<glyph unicode="&#x237;" horiz-adv-x="425" d="M-61 -360l4 8q4 8 9 7.5t14 -4.5t23.5 -8.5t35.5 -4.5q87 0 131.5 51.5t44.5 134.5v1180h24v-1180q0 -45 -14 -83t-40.5 -65.5t-63 -43t-82.5 -15.5q-28 0 -48 5.5t-38 17.5z" />
<glyph unicode="&#x2c6;" horiz-adv-x="819" d="M184 1198l217 236h17l217 -236h-19q-8 0 -16 8l-184 201l-6 6l-7 -6l-184 -201q-3 -3 -7 -5.5t-9 -2.5h-19z" />
<glyph unicode="&#x2c7;" horiz-adv-x="819" d="M184 1434h19q8 0 16 -9l184 -200l7 -7l6 7l184 200q8 8 16 9h19l-217 -236h-17z" />
<glyph unicode="&#x2d8;" horiz-adv-x="819" d="M195 1434h20q0 -42 10.5 -80.5t33.5 -68t59.5 -47t91.5 -17.5q53 0 90.5 17.5t60.5 47t33 68t10 80.5h21q0 -48 -12 -90t-38 -74.5t-67 -51t-98 -18.5t-98.5 18.5t-67.5 51t-37.5 74t-11.5 90.5z" />
<glyph unicode="&#x2d9;" horiz-adv-x="819" d="M352 1393q0 24 17 40.5t41 16.5q22 0 39.5 -16.5t17.5 -40.5q0 -22 -18 -39t-39 -17q-24 0 -41 17t-17 39z" />
<glyph unicode="&#x2da;" horiz-adv-x="819" d="M258 1321q0 32 12 58.5t32.5 46.5t48 31t59.5 11t59.5 -11t48 -31t32 -46.5t11.5 -58.5t-11.5 -58.5t-32 -46.5t-48.5 -31t-59 -11q-32 0 -59.5 11t-48 31t-32.5 46.5t-12 58.5zM281 1321q0 -28 9.5 -51.5t27 -41t41 -27t51.5 -9.5t51 9.5t40.5 27t27.5 41t10 51.5 t-10 51.5t-27.5 41t-41 27t-50.5 9.5q-28 0 -51.5 -9.5t-41 -27t-27 -41t-9.5 -51.5z" />
<glyph unicode="&#x2db;" horiz-adv-x="819" d="M268 -201q0 37 16 70t39.5 60.5t51.5 49t53 35.5l12 -14q-20 -11 -46 -30t-49 -44.5t-38.5 -57.5t-15.5 -69q0 -57 39.5 -89t97.5 -32q33 0 56 7.5t38.5 15.5t24.5 15.5t14 7.5q4 0 8 -5l6 -6q-27 -27 -66.5 -41t-82.5 -14q-68 0 -113 36t-45 105z" />
<glyph unicode="&#x2dc;" horiz-adv-x="819" d="M180 1253q0 28 8 53t23 43.5t37.5 30t52.5 11.5q34 0 62.5 -18.5t55.5 -41t54 -41t57 -18.5q51 0 76 33.5t27 83.5h16q0 -28 -7 -53t-21.5 -43.5t-37 -30t-53.5 -11.5q-33 0 -61.5 18.5t-56 41t-54.5 41t-57 18.5q-25 0 -43.5 -9t-31.5 -25t-19.5 -37.5t-7.5 -45.5h-19z " />
<glyph unicode="&#x2dd;" horiz-adv-x="819" d="M276 1186l168 241q9 14 17.5 18.5t25.5 4.5h23l-203 -256q-5 -8 -16 -8h-15zM494 1186l188 241q11 14 18.5 18.5t24.5 4.5h27l-228 -256q-5 -8 -16 -8h-14z" />
<glyph unicode="&#x394;" horiz-adv-x="1300" d="M48 0v6q0 8 5 21l587 1407h20l587 -1404q2 -5 3.5 -10t1.5 -10v-10h-1204zM77 20h1148l-558 1338q-5 11 -9.5 21t-7.5 21q-4 -11 -7.5 -21t-8.5 -21z" />
<glyph unicode="&#x3a9;" horiz-adv-x="1619" d="M146 753q0 170 55 300t146.5 217.5t211.5 132.5t251 45q87 0 170 -20t156.5 -59.5t135.5 -98.5t106.5 -136t70 -172.5t25.5 -208.5q0 -146 -40.5 -270t-109.5 -219t-159.5 -158t-190.5 -87l36 4t34 2h423v-13q0 -12 -12 -12h-510v33q112 26 204.5 90t159 159t103.5 215 t37 256q0 166 -53.5 291.5t-142.5 210.5t-204 128.5t-239 43.5t-239 -43.5t-204 -128.5t-142.5 -210.5t-53.5 -291.5q0 -135 37 -255.5t103.5 -215.5t159 -159.5t204.5 -89.5v-33h-510q-12 0 -12 12v13h422q15 0 33.5 -1.5t37.5 -4.5q-100 24 -190.5 87t-159.5 158 t-109.5 218.5t-40.5 270.5z" />
<glyph unicode="&#x3bc;" horiz-adv-x="1191" d="M187 -356v1360h25v-644q0 -84 18.5 -150t57 -112t95.5 -70t136 -24q118 0 217 61t174 172v767h25v-792q0 -52 15.5 -90t43 -62t65.5 -36t84 -12h28v-10q0 -10 -45 -10q-43 0 -81 12t-67.5 38.5t-47.5 67.5t-18 99q-71 -104 -172.5 -164.5t-220.5 -60.5q-133 0 -209 63 t-101 178q1 -51 2 -110t1 -105v-379h-12q-6 0 -9.5 4t-3.5 9z" />
<glyph unicode="&#x3c0;" horiz-adv-x="1186" d="M90 961v8q0 5 3.5 9.5t12.5 4.5h996v-12q0 -6 -3 -8t-13 -2h-198q0 -90 -1.5 -165.5t-3 -142.5t-2.5 -127.5t-1 -119.5q0 -123 10 -199.5t32 -118.5t56.5 -56.5t82.5 -14.5h22v-10q0 -4 -8 -7t-35 -3q-44 0 -78 14t-57.5 53t-36 110t-12.5 185q0 44 1.5 110t3.5 144 t4 166.5t2 181.5h-503q-1 -260 -27 -444t-62 -300t-77 -169t-74 -53q-19 0 -20 7v18h20q24 0 60 51.5t70.5 163.5t60 291t26.5 435h-251z" />
<glyph unicode="&#x1e80;" horiz-adv-x="2050" d="M63 0zM63 1434h19q9 0 12 -11l419 -1338l15 -54q6 31 16 54l466 1338q3 10 14 11h4q9 0 12 -11l466 -1338l16 -54q6 31 15 54l419 1338q3 10 14 11h17l-455 -1434h-21l-477 1376q-6 19 -9 32q-3 -12 -9 -32l-477 -1376h-21zM775 1876h37q17 0 25.5 -2.5t17.5 -11.5 l255 -287h-13q-5 0 -9.5 1t-8.5 5z" />
<glyph unicode="&#x1e81;" horiz-adv-x="1529" d="M67 0zM67 1004h14q8 0 12 -5t6 -10l308 -919q4 -11 7.5 -21.5t5.5 -21.5q4 20 13 43l320 929q3 10 10 11h6q7 0 10 -11l318 -929q4 -11 7 -20.5t5 -20.5q2 11 6 20t8 21l308 919q7 14 18 15h14l-344 -1004h-10q-9 0 -12 10l-322 934q-6 16 -9 29q-2 -7 -4.5 -14t-4.5 -15 l-326 -934q-3 -10 -10 -10h-10zM613 1450h27q17 0 25 -4t18 -19l168 -241h-15q-11 0 -16 8z" />
<glyph unicode="&#x1e82;" horiz-adv-x="2050" d="M63 0zM63 1434h19q9 0 12 -11l419 -1338l15 -54q6 31 16 54l466 1338q3 10 14 11h4q9 0 12 -11l466 -1338l16 -54q6 31 15 54l419 1338q3 10 14 11h17l-455 -1434h-21l-477 1376q-6 19 -9 32q-3 -12 -9 -32l-477 -1376h-21zM946 1575l288 287q8 8 16.5 11t26.5 3h36 l-337 -295q-4 -4 -8.5 -5t-9.5 -1h-12z" />
<glyph unicode="&#x1e83;" horiz-adv-x="1529" d="M67 0zM67 1004h14q8 0 12 -5t6 -10l308 -919q4 -11 7.5 -21.5t5.5 -21.5q4 20 13 43l320 929q3 10 10 11h6q7 0 10 -11l318 -929q4 -11 7 -20.5t5 -20.5q2 11 6 20t8 21l308 919q7 14 18 15h14l-344 -1004h-10q-9 0 -12 10l-322 934q-6 16 -9 29q-2 -7 -4.5 -14t-4.5 -15 l-326 -934q-3 -10 -10 -10h-10zM703 1186l168 241q9 14 17.5 18.5t25.5 4.5h27l-207 -256q-5 -8 -17 -8h-14z" />
<glyph unicode="&#x1e84;" horiz-adv-x="2050" d="M63 0zM63 1434h19q9 0 12 -11l419 -1338l15 -54q6 31 16 54l466 1338q3 10 14 11h4q9 0 12 -11l466 -1338l16 -54q6 31 15 54l419 1338q3 10 14 11h17l-455 -1434h-21l-477 1376q-6 19 -9 32q-3 -12 -9 -32l-477 -1376h-21zM778 1704q0 24 17 40.5t40 16.5q22 0 40 -16.5 t18 -40.5q0 -22 -18 -38.5t-40 -16.5q-24 0 -40.5 16.5t-16.5 38.5zM1155 1704q0 24 16.5 40.5t40.5 16.5q22 0 39.5 -16.5t17.5 -40.5q0 -22 -17.5 -38.5t-39.5 -16.5q-24 0 -40.5 16.5t-16.5 38.5z" />
<glyph unicode="&#x1e85;" horiz-adv-x="1529" d="M67 0zM67 1004h14q8 0 12 -5t6 -10l308 -919q4 -11 7.5 -21.5t5.5 -21.5q4 20 13 43l320 929q3 10 10 11h6q7 0 10 -11l318 -929q4 -11 7 -20.5t5 -20.5q2 11 6 20t8 21l308 919q7 14 18 15h14l-344 -1004h-10q-9 0 -12 10l-322 934q-6 16 -9 29q-2 -7 -4.5 -14t-4.5 -15 l-326 -934q-3 -10 -10 -10h-10zM543 1311q0 24 17 40.5t41 16.5q22 0 39.5 -16.5t17.5 -40.5q0 -22 -18 -39t-39 -17q-24 0 -41 17t-17 39zM879 1311q0 24 17 40.5t41 16.5q22 0 39.5 -16.5t17.5 -40.5q0 -22 -18 -39t-39 -17q-24 0 -41 17t-17 39z" />
<glyph unicode="&#x2000;" horiz-adv-x="938" />
<glyph unicode="&#x2001;" horiz-adv-x="1876" />
<glyph unicode="&#x2002;" horiz-adv-x="938" />
<glyph unicode="&#x2003;" horiz-adv-x="1876" />
<glyph unicode="&#x2004;" horiz-adv-x="625" />
<glyph unicode="&#x2005;" horiz-adv-x="469" />
<glyph unicode="&#x2006;" horiz-adv-x="312" />
<glyph unicode="&#x2007;" horiz-adv-x="312" />
<glyph unicode="&#x2008;" horiz-adv-x="234" />
<glyph unicode="&#x2009;" horiz-adv-x="375" />
<glyph unicode="&#x200a;" horiz-adv-x="104" />
<glyph unicode="&#x2010;" horiz-adv-x="755" d="M153 592v20h450v-20h-450z" />
<glyph unicode="&#x2011;" horiz-adv-x="755" d="M153 592v20h450v-20h-450z" />
<glyph unicode="&#x2012;" horiz-adv-x="755" d="M153 592v20h450v-20h-450z" />
<glyph unicode="&#x2013;" d="M197 571v21h794v-21h-794z" />
<glyph unicode="&#x2014;" horiz-adv-x="1603" d="M153 571v21h1298v-21h-1298z" />
<glyph unicode="&#x2018;" horiz-adv-x="406" d="M160.5 1266q6.5 63 29 121.5t61.5 101.5l4 -4q4 -4 0 -10q-38 -51 -55 -109.5t-18.5 -115.5t11 -108.5t33.5 -90.5q3 -5 3.5 -10.5t-5.5 -8.5l-20 -10q-29 53 -39.5 117t-4 127z" />
<glyph unicode="&#x2019;" horiz-adv-x="404" d="M159 1069q-4 4 0 10q38 51 54.5 109.5t18 115.5t-10.5 108.5t-34 90.5q-3 5 -3.5 10.5t5.5 8.5l21 10q29 -54 39.5 -117.5t4 -126.5t-29.5 -121.5t-61 -101.5z" />
<glyph unicode="&#x201a;" horiz-adv-x="430" d="M163 -283q38 51 54.5 109.5t18.5 115.5t-10.5 108.5t-34.5 90.5q-3 5 -3.5 10.5t6.5 8.5l20 10q29 -54 39.5 -117.5t4 -126.5t-29.5 -121.5t-61 -101.5l-4 4q-4 4 0 10z" />
<glyph unicode="&#x201c;" horiz-adv-x="652" d="M154 1022zM160.5 1266q6.5 63 29 121.5t61.5 101.5l4 -4q4 -4 0 -10q-38 -51 -55 -109.5t-18.5 -115.5t11 -108.5t33.5 -90.5q3 -5 3.5 -10.5t-5.5 -8.5l-20 -10q-29 53 -39.5 117t-4 127zM406.5 1266q6.5 63 29 121.5t61.5 101.5l4 -4q4 -4 0 -10q-38 -51 -55 -109.5 t-18.5 -115.5t11 -108.5t33.5 -90.5q3 -5 3.5 -10.5t-5.5 -8.5l-20 -10q-29 53 -39.5 117t-4 127z" />
<glyph unicode="&#x201d;" horiz-adv-x="650" d="M155 1065zM159 1069q-4 4 0 10q38 51 54.5 109.5t18.5 115.5t-10.5 108.5t-34.5 90.5q-3 5 -3.5 10.5t6.5 8.5l20 10q29 -54 39.5 -117.5t4 -126.5t-29.5 -121.5t-61 -101.5zM405 1069q-4 4 0 10q38 51 54.5 109.5t18.5 115.5t-10.5 108.5t-34.5 90.5q-3 5 -3.5 10.5 t6.5 8.5l20 10q29 -54 39.5 -117.5t4 -126.5t-29.5 -121.5t-61 -101.5z" />
<glyph unicode="&#x201e;" horiz-adv-x="675" d="M159 0zM163 -283q38 51 54.5 109.5t18.5 115.5t-10.5 108.5t-34.5 90.5q-3 5 -3.5 10.5t6.5 8.5l20 10q29 -54 39.5 -117.5t4 -126.5t-29.5 -121.5t-61 -101.5l-4 4q-4 4 0 10zM409 -283q38 51 54.5 109.5t18.5 115.5t-10.5 108.5t-34.5 90.5q-3 5 -3.5 10.5t6.5 8.5 l20 10q29 -54 39.5 -117.5t4 -126.5t-29.5 -121.5t-61 -101.5l-4 4q-4 4 0 10z" />
<glyph unicode="&#x2020;" d="M205 944v8q0 5 4 10t10 5l365 -6l-4 489q3 2 6 3t8 1t8 -1t6 -3l-4 -489l365 6q6 0 10 -5t4 -10v-8h-379v-577l4 -738q-3 -2 -6 -3t-8 -1t-8 1t-6 3l4 738v577h-379z" />
<glyph unicode="&#x2021;" d="M205 127v8h379v809h-379v8q0 5 4 10t10 5l365 -6l-4 489q3 2 6 3t8 1t8 -1t6 -3l-4 -489l365 6q6 0 10 -5t4 -10v-8h-379v-809h379v-8q0 -5 -4 -9.5t-10 -4.5l-365 5l4 -489q-3 -2 -6 -3t-8 -1t-8 1t-6 3l4 489l-365 -5q-6 0 -10 4.5t-4 9.5z" />
<glyph unicode="&#x2022;" d="M362 612q0 48 18.5 90.5t50 74.5t73 50.5t88.5 18.5q48 0 90.5 -18.5t74 -50.5t50 -74.5t18.5 -90.5q0 -47 -18.5 -88.5t-50 -72.5t-74 -49.5t-90.5 -18.5q-47 0 -88.5 18.5t-73 49.5t-50 72.5t-18.5 88.5z" />
<glyph unicode="&#x2026;" horiz-adv-x="1437" d="M171 0zM171 49q0 28 19 48t47 20t47.5 -20t19.5 -48t-20 -46.5t-47 -18.5q-28 0 -47 18.5t-19 46.5zM652 49q0 28 19 48t47 20t47.5 -20t19.5 -48t-20 -46.5t-47 -18.5q-28 0 -47 18.5t-19 46.5zM1134 49q0 28 19 48t47 20t47.5 -20t19.5 -48t-20 -46.5t-47 -18.5 q-28 0 -47 18.5t-19 46.5z" />
<glyph unicode="&#x202f;" horiz-adv-x="375" />
<glyph unicode="&#x2030;" horiz-adv-x="2277" d="M114 1090q0 93 22.5 160.5t61.5 112t91 66t111 21.5q58 0 110.5 -21.5t91.5 -66t62 -112t23 -160.5q0 -92 -23 -160t-62 -112t-91 -65.5t-111 -21.5t-111 21.5t-91 65.5t-61.5 111.5t-22.5 160.5zM136 1090q0 -89 21 -154t57.5 -106.5t84 -60.5t101.5 -19q53 0 101.5 19 t85 60.5t57.5 106.5t21 154t-21 153.5t-57.5 106.5t-84.5 62t-102 20t-101.5 -20t-84 -62t-57.5 -106.5t-21 -153.5zM253 0l1012 1425q5 8 16 9h14l-1011 -1426q-5 -8 -17 -8h-14zM871 342q0 93 22.5 160.5t61.5 112t91.5 66t111.5 21.5q58 0 110.5 -21.5t91.5 -66t62 -112 t23 -160.5q0 -92 -23 -159.5t-62 -111.5t-91 -65.5t-111 -21.5t-111.5 21.5t-91.5 65.5t-61.5 111.5t-22.5 159.5zM894 342q0 -89 21 -153.5t57.5 -106t84 -61t101.5 -19.5q53 0 101.5 19.5t84.5 61t57 106t21 153.5t-21 153.5t-57 106.5t-84.5 62t-101.5 20 q-54 0 -101.5 -20t-84 -62t-57.5 -106.5t-21 -153.5zM1605 342q0 93 22.5 160.5t61 112t91 66t111.5 21.5q58 0 110.5 -21.5t91.5 -66t62 -112t23 -160.5q0 -92 -23 -159.5t-62 -111.5t-91 -65.5t-111 -21.5t-111.5 21.5t-91 65.5t-61 111.5t-22.5 159.5zM1627 342 q0 -89 21 -153.5t57.5 -106t84 -61t101.5 -19.5q53 0 101.5 19.5t85 61t57.5 106t21 153.5t-21 153.5t-57.5 106.5t-84.5 62t-102 20t-101.5 -20t-84 -62t-57.5 -106.5t-21 -153.5z" />
<glyph unicode="&#x2039;" horiz-adv-x="531" d="M126 520v4l240 379l6 -4q5 -3 6.5 -9t-4.5 -16l-209 -329q-14 -20 -19 -23q6 -4 19 -22l209 -330q6 -9 4.5 -15.5t-6.5 -9.5l-6 -4z" />
<glyph unicode="&#x203a;" horiz-adv-x="533" d="M155.5 154.5q-1.5 6.5 4.5 15.5l209 330q6 10 10.5 15t7.5 7q-6 3 -18 23l-209 329q-6 9 -4.5 15.5t6.5 9.5l6 4l240 -379v-4l-240 -379l-6 4q-5 3 -6.5 9.5z" />
<glyph unicode="&#x2044;" horiz-adv-x="286" d="M-272 0l802 1421q6 12 21 13h12l-803 -1422q-5 -8 -10.5 -10t-11.5 -2h-10z" />
<glyph unicode="&#x205f;" horiz-adv-x="469" />
<glyph unicode="&#x20a3;" d="M90 334v20h258v1080h735v-23h-710v-651h608v-23h-608v-383h354v-20h-354v-334h-25v334h-258z" />
<glyph unicode="&#x20a4;" d="M84 555v20h211v199h-211v10q0 5 3.5 8t8.5 3h199v219q0 94 25.5 174t75.5 137.5t125 90t173 32.5q76 0 133.5 -18.5t99.5 -49t70.5 -72t49.5 -87.5l-11 -2q-10 -3 -18 10q-20 37 -45.5 72.5t-62.5 63.5t-89 45t-127 17q-92 0 -162 -30.5t-117 -85.5t-71.5 -131 t-24.5 -166v-219h521v-21h-521v-199h521v-10q0 -5 -3.5 -7.5t-9.5 -2.5h-508v-258q0 -53 -12 -95.5t-34.5 -76.5t-54.5 -60t-72 -46q20 2 37.5 3t37.5 1h903v-11q0 -5 -4 -8.5t-10 -3.5h-999v23q36 16 69 38.5t58.5 55.5t41 77t15.5 103v258h-211z" />
<glyph unicode="&#x20a7;" d="M85 1016v20h174v398h262q231 0 346 -98.5t118 -299.5h147v-20h-146q-2 -88 -34.5 -161.5t-92.5 -127t-145.5 -83.5t-192.5 -30h-237v-614h-25v1016h-174zM284 635h237q103 0 184 29.5t137.5 81t86 121t32.5 149.5h-677v-381zM284 1036h678q-3 184 -109.5 280.5 t-331.5 96.5h-237v-377z" />
<glyph unicode="&#x20ac;" d="M16 598v20h182q-3 47 -3 99q0 30 1 58.5t3 55.5h-183v21h185q13 141 56 251.5t112 187.5t162.5 117t207.5 40q63 0 116 -10.5t99 -31.5t87 -52.5t81 -73.5l-4 -6q-2 -4 -8 -4q-5 0 -16.5 11.5t-30.5 29t-47 38t-67.5 38t-91.5 29t-118 11.5q-108 0 -196 -37t-154 -110.5 t-108 -181t-56 -246.5h664v-8q0 -6 -2.5 -9.5t-12.5 -3.5h-651q-2 -28 -3 -56.5t-1 -57.5q0 -51 3 -99h575v-8q0 -12 -15 -12h-558q12 -145 52.5 -256.5t107 -186t155.5 -113t196 -38.5q71 0 125.5 14t96.5 35t72 45.5t51 45.5t33 35t20 14q4 0 10 -7l4 -4q-37 -44 -79 -80 t-92.5 -62.5t-110.5 -41t-132 -14.5q-114 0 -207 39.5t-161.5 117.5t-111 193t-54.5 264h-183z" />
<glyph unicode="&#x2113;" horiz-adv-x="935" d="M80 588q43 8 84 18.5t81 23.5q15 176 60 326.5t110.5 260t145 171.5t162.5 62q46 0 78 -18.5t51 -49t28 -69t9 -78.5q0 -103 -43 -196t-123 -172t-195 -143t-260 -110q-6 -71 -6 -143q0 -129 12 -218.5t35 -146t58 -81.5t84 -25q41 0 83.5 17t82.5 55t78.5 98t72.5 147 l18 -6q-17 -58 -48 -117.5t-74 -107t-96.5 -77t-114.5 -29.5q-54 0 -95 25t-67.5 82.5t-39.5 152t-13 231.5q0 35 1.5 68.5t3.5 67.5q-39 -11 -78 -21.5t-81 -18.5zM269 638q135 44 245.5 105t188.5 136.5t120.5 164.5t42.5 187q0 100 -39 148t-104 48q-80 0 -155 -60.5 t-136.5 -167t-104 -251t-58.5 -310.5z" />
<glyph unicode="&#x2122;" horiz-adv-x="1509" d="M105 1413v21h469v-21h-221v-555h-24v555h-224zM728 858v576h14q5 0 7.5 -1.5t5.5 -5.5l264 -426q1 -3 2 -5.5t2 -4.5q2 2 3 4.5t3 5.5l256 426q3 6 10 7h15v-576h-21v524l1 17l-255 -426q-3 -6 -10 -6h-4q-7 0 -10 6l-262 425l2 -16v-524h-23z" />
<glyph unicode="&#x2126;" horiz-adv-x="1628" d="M151 753q0 170 54.5 300t146 217.5t211.5 132.5t251 45q87 0 170 -20t156.5 -59.5t135.5 -98.5t106.5 -136t70 -172.5t25.5 -208.5q0 -146 -40.5 -270t-109 -219t-159.5 -158t-191 -87l36 4t35 2h422v-13q0 -12 -12 -12h-510v33q112 26 204.5 90t159 159t103.5 215 t37 256q0 166 -53 291.5t-142.5 210.5t-204.5 128.5t-239 43.5t-239 -43.5t-204 -128.5t-142.5 -210.5t-53.5 -291.5q0 -135 37 -255.5t103.5 -215.5t159 -159.5t204.5 -89.5v-33h-510q-12 0 -12 12v13h423q15 0 33 -1.5t37 -4.5q-100 24 -190.5 87t-159.5 158t-109 218.5 t-40 270.5z" />
<glyph unicode="&#x212e;" horiz-adv-x="1719" d="M139 719q0 157 54.5 290.5t152 231t234 153.5t299.5 56q158 0 290.5 -51t228.5 -143t150 -218.5t54 -275.5h-1434v-10v-66q0 -79 22.5 -160.5t66 -156.5t107.5 -141t146 -114.5t182 -77t215 -28.5q99 0 185 19.5t159 55.5t135 87t113 115l17 -13q-51 -66 -116 -118 t-141.5 -88.5t-165 -56t-188.5 -19.5q-177 0 -318.5 61.5t-241 163t-153 233t-53.5 271.5zM168 778h1409v9q0 86 -23 167.5t-66 153t-105 131t-139.5 102t-169.5 67t-195 24.5q-152 0 -280 -51.5t-222 -140.5t-149 -208t-60 -254z" />
<glyph unicode="&#x2202;" horiz-adv-x="1150" d="M126 373q0 116 35.5 218.5t101.5 179.5t159.5 122t209.5 45q55 0 111 -16.5t103.5 -52.5t84 -94t52.5 -141q6 41 10 84t6 82t2.5 71.5t0.5 52.5q0 121 -20 215.5t-61 159.5t-102 99t-142 34q-55 0 -96 -11t-69.5 -23.5t-45.5 -23t-25 -10.5q-5 0 -8 6l-4 6q35 22 66 36.5 t61 24t59 13.5t62 4q86 0 151.5 -36t109.5 -104t66.5 -166.5t22.5 -225.5q0 -129 -16 -248.5t-47 -223t-77.5 -188.5t-108.5 -145.5t-139.5 -93.5t-168.5 -33q-78 0 -141.5 26.5t-108.5 75.5t-69.5 120.5t-24.5 160.5zM151 375q0 -86 23.5 -153.5t66 -115t101.5 -72 t132 -24.5q99 0 181.5 43t146 120t107 183t65.5 232q-9 59 -33.5 118t-65 106t-100 76.5t-139.5 29.5q-113 0 -202.5 -42t-152.5 -116t-96.5 -173t-33.5 -212z" />
<glyph unicode="&#x2206;" horiz-adv-x="1341" d="M69 0v6q0 8 5 21l586 1407h21l587 -1404q2 -5 3.5 -10t1.5 -10v-10h-1204zM97 20h1148l-558 1338q-5 11 -9 21t-7 21q-4 -11 -8 -21t-9 -21z" />
<glyph unicode="&#x220f;" horiz-adv-x="1351" d="M72 1411v23h1208v-23h-236v-1780h-24v1780h-688v-1780h-25v1780h-235z" />
<glyph unicode="&#x2211;" horiz-adv-x="1396" d="M81 -356q0 7 4 11l727 877l-726 877q-5 5 -5 12v13h1208v-23h-1170l726 -876v-5l-726 -876h1170v-23h-1208v13z" />
<glyph unicode="&#x2212;" d="M183 676v20h822v-20h-822z" />
<glyph unicode="&#x2215;" horiz-adv-x="894" d="M32 0l802 1421q6 12 21 13h12l-803 -1422q-5 -8 -10.5 -10t-11.5 -2h-10zM32 0z" />
<glyph unicode="&#x221a;" horiz-adv-x="1300" d="M75 743v7h303q9 0 13.5 -5t6.5 -10l262 -665q8 -24 13 -38l10 38l549 1683q7 14 18 14h8l-575 -1767h-18l-290 731h-286q-14 0 -14 12z" />
<glyph unicode="&#x221e;" horiz-adv-x="1533" d="M159 604q0 69 22.5 122.5t60 91t87 57.5t103.5 20q55 0 102 -23t86.5 -61.5t75.5 -87.5t71 -100q34 51 69.5 100t76 87.5t87.5 61.5t102 23q54 0 103.5 -20t87 -57.5t60 -91t22.5 -122.5t-22.5 -122.5t-60 -91t-87 -57.5t-103.5 -20q-55 0 -102 23t-87.5 61t-76 87.5 t-69.5 100.5q-35 -51 -71 -100.5t-75.5 -87.5t-86.5 -61t-102 -23q-54 0 -103.5 20t-87 57.5t-60 91.5t-22.5 122zM183 604q0 -63 19.5 -113t53.5 -85t79 -53.5t97 -18.5t96 23t83 61t74 86.5t69 99.5q-34 51 -69 100t-74 86.5t-83 60.5t-96 23t-97 -18t-79 -53.5 t-53.5 -85.5t-19.5 -113zM779 604q34 -51 69.5 -99.5t74 -86.5t83 -61t96.5 -23t97 18.5t78.5 53.5t52.5 85t19 113q0 62 -19 112.5t-52.5 86t-78.5 53.5t-97 18t-96.5 -23t-83 -60.5t-74 -86.5t-69.5 -100z" />
<glyph unicode="&#x222b;" horiz-adv-x="1055" d="M18 -358l5 8q4 7 10 7t17.5 -3t30 -7t46.5 -4q61 0 114.5 19t95 60t69.5 108t40 162l138 1299q11 98 41.5 168.5t75.5 115t102.5 65t124.5 20.5q33 0 61.5 -3.5t46.5 -15.5l-4 -8q-4 -8 -10 -7.5t-18 3.5t-30.5 7t-45.5 4q-61 0 -114.5 -18.5t-95 -60t-69.5 -108.5 t-41 -162l-137 -1299q-11 -98 -42 -168.5t-76 -115t-102.5 -65t-123.5 -20.5q-33 0 -61.5 3.5t-47.5 15.5z" />
<glyph unicode="&#x2248;" d="M224 522q27 40 71 64t99 24q53 0 105 -20t101.5 -43.5t98.5 -43.5t97 -20t89.5 22t65.5 56l15 -10q-27 -40 -72.5 -64t-97.5 -24t-103 20t-101 43.5t-99.5 43.5t-98.5 20q-51 0 -91 -22t-64 -56zM224 825q27 40 71 64t99 24q53 0 105 -20t101.5 -43.5t98.5 -43.5t97 -20 t89.5 22t65.5 56l15 -10q-27 -40 -72.5 -64t-97.5 -24t-103 20t-101 43.5t-99.5 43.5t-98.5 20q-51 0 -91 -22t-64 -56z" />
<glyph unicode="&#x2260;" d="M186 532v21h357l112 281h-469v20h478l120 297h23l-120 -297h319v-20h-327l-114 -281h441v-21h-449l-119 -294h-22l119 294h-349z" />
<glyph unicode="&#x2264;" d="M218 82v20h748v-20h-748zM218 680v12l748 381v-11q0 -12 -20 -22l-658 -333l-24 -12t-24 -9q12 -4 23.5 -9.5t24.5 -10.5l658 -334q19 -10 20 -22v-11z" />
<glyph unicode="&#x2265;" d="M222 82v20h748v-20h-748zM222 299v11q0 11 20 22l658 334q11 5 23 10.5t24 9.5q-12 3 -24 8.5t-23 12.5l-658 333q-19 9 -20 22v11l748 -381v-12z" />
<glyph unicode="&#x25ca;" d="M164 674l422 862h16l422 -862l-422 -862h-16zM190 674l390 -793q10 -23 14 -40q2 10 5.5 20t8.5 20l389 793l-389 792q-5 10 -8.5 20t-5.5 20q-4 -17 -14 -40z" />
<glyph unicode="&#x25fc;" horiz-adv-x="1003" d="M0 0v1004h1004v-1004h-1004z" />
<glyph unicode="&#xf8ff;" horiz-adv-x="1615" d="M82 385q0 158 36 316t106.5 303t176.5 269t246 212l4 -12q-87 -58 -154 -152t-116 -207t-82.5 -237.5t-53 -247t-28 -235t-8.5 -199.5t11 -148t31 -107t47 -81t58 -70l-12 -12q-60 56 -108.5 115.5t-82.5 130.5t-52.5 159t-18.5 203zM438 776v223l123 13l103 250h264 v-258h178v-252h-178v-351q0 -39 26 -61.5t80 -22.5q9 0 25.5 0.5t34.5 4.5l20 -220q-51 -20 -109.5 -31.5t-121.5 -11.5q-98 0 -164 23.5t-106 70t-56 114t-16 155.5v307zM965 -211q87 58 154 151.5t116 205.5t82 237t53.5 247t28.5 233.5t8 199.5t-11.5 150t-31 108 t-46.5 81.5t-58 70.5l12 12q60 -57 109 -116.5t82.5 -131.5t52 -160t18.5 -200q0 -158 -36 -316.5t-106.5 -303t-176.5 -268.5t-246 -212z" />
<glyph horiz-adv-x="819" d="M161 1876h37q17 0 25.5 -2.5t17.5 -11.5l255 -287h-13q-5 0 -9.5 1t-8.5 5z" />
<glyph horiz-adv-x="819" d="M332 1575l288 287q8 8 16.5 11t26.5 3h36l-337 -295q-4 -4 -8.5 -5t-9.5 -1h-12z" />
<glyph horiz-adv-x="819" d="M164 1575l237 270h17l237 -270h-20q-5 0 -10 1.5t-11 6.5l-200 229q-2 1 -4 6l-4 -6l-201 -229q-5 -5 -10.5 -6.5t-10.5 -1.5h-20z" />
<glyph horiz-adv-x="819" d="M164 1845h20q5 0 10.5 -1.5t10.5 -6.5l201 -240l4 -5l4 5l200 240q5 5 10.5 6.5t10.5 1.5h20l-237 -270h-17z" />
<glyph horiz-adv-x="819" d="M377 1190l47 287h10q16 0 17 -23q0 -11 -4 -30.5t-10.5 -50t-16 -71.5t-23.5 -98q-2 -6 -4 -10t-10 -4h-6z" />
<glyph horiz-adv-x="819" d="M160 1595q0 28 9 53t26 43.5t41.5 30t54.5 11.5q34 0 66 -18.5t63 -41t61 -41t60 -18.5q51 0 80.5 33.5t31.5 83.5h17q0 -28 -9 -53t-25 -43.5t-40.5 -30t-54.5 -11.5q-33 0 -65.5 18.5t-63 41t-61 41t-60.5 18.5q-25 0 -45.5 -9t-35 -25t-23 -37.5t-9.5 -45.5h-18z" />
<glyph horiz-adv-x="819" d="M164 1704q0 24 17 40.5t40 16.5q22 0 40 -16.5t18 -40.5q0 -22 -18 -38.5t-40 -16.5q-24 0 -40.5 16.5t-16.5 38.5zM541 1704q0 24 16.5 40.5t40.5 16.5q22 0 39.5 -16.5t17.5 -40.5q0 -22 -17.5 -38.5t-39.5 -16.5q-24 0 -40.5 16.5t-16.5 38.5z" />
<glyph horiz-adv-x="819" d="M174 1671v21h471v-21h-471z" />
<glyph horiz-adv-x="819" d="M173 1826h23q0 -54 11 -96t36 -71.5t66 -45t100 -15.5q58 0 99 15.5t66 45t36.5 71.5t11.5 96h22q0 -125 -54.5 -186.5t-180.5 -61.5t-181 61.5t-55 186.5z" />
<glyph horiz-adv-x="819" d="M258 1714q0 32 12 58.5t32.5 46.5t48 31.5t59.5 11.5t59.5 -11.5t48 -31.5t32 -46.5t11.5 -58.5t-11.5 -58.5t-32 -46.5t-48.5 -31t-59 -11q-32 0 -59.5 11t-48 31t-32.5 46.5t-12 58.5zM281 1714q0 -28 9.5 -51.5t27 -40.5t41 -27t51.5 -10t51 10t40.5 27t27.5 41t10 51 q0 28 -10 51.5t-27.5 41t-41 27t-50.5 9.5q-28 0 -51.5 -9.5t-41 -27t-27 -41t-9.5 -51.5z" />
<glyph horiz-adv-x="819" d="M236 1575l174 249q9 13 18 17.5t27 4.5h20l-209 -263q-5 -8 -16 -8h-14zM535 1575l194 249q11 14 19.5 18t25.5 4h25l-234 -263q-8 -8 -16 -8h-14z" />
<glyph horiz-adv-x="819" d="M352 1708q0 24 17 40.5t41 16.5q22 0 39.5 -16.5t17.5 -40.5q0 -22 -18 -38.5t-39 -16.5q-24 0 -41 17t-17 38z" />
<glyph horiz-adv-x="819" d="M346 -399l47 286h10q16 0 17 -22q0 -11 -3.5 -30.5t-10.5 -50t-16.5 -72t-22.5 -97.5q-2 -6 -4.5 -10t-10.5 -4h-6z" />
<glyph horiz-adv-x="819" d="M386 1163l66 287h16l-47 -287h-35z" />
<glyph horiz-adv-x="684" d="M166 541l205 182h16v-705h166v-18h-363v18h172v641l5 34l-181 -163q-7 -7 -14 0z" />
<glyph horiz-adv-x="684" d="M111 0v8q0 6 6 12l254 259q32 32 59.5 62t48 60.5t32 64t11.5 71.5q0 44 -15 76t-40 53t-57 31t-66 10q-77 0 -126 -45t-64 -115q-3 -10 -15 -10l-10 2q6 44 24.5 78.5t46 59t64.5 37.5t80 13q38 0 74.5 -11t64.5 -34.5t45 -59t17 -85.5q0 -41 -13 -76.5t-34.5 -68 t-50 -62.5t-60.5 -62l-248 -252q24 4 64 4h352q8 0 8 -8v-12h-452z" />
<glyph horiz-adv-x="684" d="M105 172l9 4q3 2 9 1.5t9 -9.5q2 -6 10 -31.5t28.5 -53.5t59.5 -50.5t105 -22.5q50 0 88.5 17t63.5 43t38 58.5t13 61.5q0 36 -12.5 67.5t-38.5 54.5t-68.5 35.5t-102.5 12.5v17q96 3 149.5 48.5t53.5 119.5q0 42 -14.5 72.5t-39 50.5t-55.5 29.5t-65 9.5q-77 0 -126 -45 t-64 -115q-3 -10 -13 -10l-12 2q6 44 24.5 78.5t46 59t64.5 37.5t80 13q38 0 74 -10.5t63 -32.5t43.5 -56t16.5 -81q0 -36 -13 -65.5t-34 -52t-49 -37t-59 -20.5q85 -10 130 -59t45 -120q0 -42 -17 -78.5t-47.5 -63.5t-72 -43t-90.5 -16q-63 0 -104.5 18t-66.5 44.5t-38 58 t-21 59.5z" />
<glyph horiz-adv-x="684" d="M71 233l368 486h19v-483h145v-11q0 -8 -10 -8h-135v-217h-21v217h-352q-12 0 -12 6zM97 236h340v426v12.5t2 13.5z" />
<glyph horiz-adv-x="819" d="M225 1311q0 24 17 40.5t41 16.5q22 0 39.5 -16.5t17.5 -40.5q0 -22 -18 -39t-39 -17q-24 0 -41 17t-17 39zM479 1311q0 24 17 40.5t41 16.5q22 0 39.5 -16.5t17.5 -40.5q0 -22 -18 -39t-39 -17q-24 0 -41 17t-17 39z" />
<glyph horiz-adv-x="819" d="M352 1393q0 24 17 40.5t41 16.5q22 0 39.5 -16.5t17.5 -40.5q0 -22 -18 -39t-39 -17q-24 0 -41 17t-17 39z" />
<glyph horiz-adv-x="1231" d="M0 0z" />
</font>
</defs>
</svg>
